<?xml version="1.0" encoding="utf-8"?>
<!-- Generator: Adobe Illustrator 19.0.0, SVG Export Plug-In . SVG Version: 6.00 Build 0)  -->
<svg version="1.1" id="Layer_1" xmlns="http://www.w3.org/2000/svg" xmlns:xlink="http://www.w3.org/1999/xlink" x="0px" y="0px"
	 viewBox="160 -104 1280 768" style="enable-background:new 160 -104 1280 768;" xml:space="preserve">
<style type="text/css">
	.st0{fill:#00073F;stroke:#0065FF;stroke-miterlimit:10;}
	.st1{fill:#00073F;}
	.st2{fill:#00073F;stroke:#000000;stroke-width:3;stroke-miterlimit:10;}
	.st3{fill:#00073F;stroke:#000000;stroke-miterlimit:10;}
	.st4{fill:#00073F;stroke:#000000;stroke-width:0.75;stroke-miterlimit:10;}
	.st5{fill:#00073F;stroke:#000000;stroke-width:0.25;stroke-miterlimit:10;}
</style>
<g id="Layer_1_1_">
	<g transform="translate(0.000000,768.000000) scale(0.100000,-0.100000)">
		<path class="st0" d="M13918.2,2848.5l-3,1858l-500,6c-275,3-508,2-517-3c-17-8-18-44-18-548v-540h-167c-93,0-174-4-182-9
			s-16-32-19-65l-4-56h-37c-69-1-115-17-146-53l-30-35v785c0,765,0,785-19,799c-14,10-49,14-116,14h-97l-6,872c-4,479-7,1008-7,1174
			c0,290-1,304-19,314c-13,6-184,10-487,10h-467l-199-35c-109-19-207-41-218-47c-24-15-25-44-6-143c8-38,13-71,12-73
			c-2-1-54-11-117-23c-149-26-177-36-185-62c-4-12-5-267-3-567l4-545l-65-3c-35-2-70-8-77-14c-10-8-13-103-13-444
			c0-283-3-434-10-434c-6,0-10,56-10,149c0,113-3,151-14,160c-9,8-153,10-517,9l-504-3l-3-397l-2-398h-200v1517l-21,19
			c-20,18-36,19-260,16l-239-4v1066c0,1053,0,1066-20,1086s-33,20-567,19l-548-1l-206-38c-113-21-216-43-227-49c-27-14-28-46-6-161
			c8-45,14-83,12-85c-2-1-70-14-152-29c130.8,36.9-78.6-11.9-167-37c-19.4-5.5-19-42-19-906v-896l-114,6c-136,8-146,3-146-74
			c0-45-2-49-23-49c-38,0-57-30-57-88v-52h-57c-67,0-117-21-147-63c-21-28-21-36-24-963c-2-817-4-934-17-934c-12,0-15,14-15,59
			c0,38-5,63-14,70c-10,8-95,11-300,9l-286-3l-2,740c-3,616-5,745-17,768c-20,39-68,65-134,73l-57,7v51c0,29-5,57-12,64
			c-8,8-64,12-185,12h-172l-3,653c-0.9,181.7-1.6,313.1-2.7,409.1c-5.6,1.5-10.7,4.2-15.3,7.6c-1.1-1.6-2.5-3-3.8-4.3
			c-23.7-32.6-86.1-25.2-81.2,23.1c8.4,82.5,21.6,164.5,23.5,247.4c-10.3,13.6-13.6,31-7.4,46.2c-0.5,1.1-1,2.2-1.5,3.4
			c-16.5,5.7-35.9,9.4-59.5,11.5l-60,6v59c0,54-2,59-26,68c-14,6-140,10-282,10c-304,0-302,0-302-84v-53l-71-5c-49-4-79-12-97-25
			c-57-42-57-36-60-570l-3-493h-124c-143,0-145-1-145-91c0-35-3-50-10-43c-5,5-11,90-12,189l-3,180l-508,3l-507,2l-10-26
			c-6-16-10-602-10-1614v-1589l-97-3l-98-3l-3-988l-2-987h11750L13918.2,2848.5z"/>
	</g>
	<line class="st1" x1="684.5" y1="-20.1" x2="684.1" y2="-41.8"/>
	<line class="st2" x1="684.3" y1="-42.8" x2="699.7" y2="-41"/>
	<g>
		<g>
			<path class="st1" d="M675.2-31c5.8,0,5.8-9,0-9S669.4-31,675.2-31L675.2-31z"/>
		</g>
	</g>
	<g>
		<g>
			<path class="st1" d="M671.8-35.5c0.2,4.9-1.4,10.3-2.2,15.1c-0.4,2.4,0.6,4.8,3.1,5.5c2.1,0.6,5.2-0.7,5.5-3.1
				c0.9-5.6,2.7-11.9,2.5-17.5C680.6-41.3,671.6-41.3,671.8-35.5L671.8-35.5z"/>
		</g>
	</g>
	<g>
		<g>
			<path class="st1" d="M679.3-26.8c-1.1,3.5-2.6,6.8-4.4,10.1c-2.8,5.1,4.9,9.6,7.8,4.5c2.2-3.9,4-8,5.3-12.2
				C689.8-30,681.1-32.3,679.3-26.8L679.3-26.8z"/>
		</g>
	</g>
	<g>
		<g>
			<path class="st1" d="M681.7-31.3c-0.7,4.2-1.4,8.4-2,12.7c-0.4,2.4,0.6,4.8,3.1,5.5c2.1,0.6,5.2-0.7,5.5-3.1
				c0.6-4.2,1.3-8.4,2-12.7c0.4-2.4-0.6-4.8-3.1-5.5C685-35,682.1-33.7,681.7-31.3L681.7-31.3z"/>
		</g>
	</g>
	<g>
		<g>
			<path class="st1" d="M690.1-30c-3.4,2.1-6.8,3.6-10.6,4.6c-5.6,1.5-3.2,10.2,2.4,8.7c4.5-1.2,8.8-3.1,12.8-5.5
				C699.6-25.4,695.1-33.2,690.1-30L690.1-30z"/>
		</g>
	</g>
	<g>
		<g>
			<path class="st1" d="M689-35c-4-2.5-9.6,0.7-13.3,2.5c-2.2,1.1-2.8,4.2-1.6,6.2c1.3,2.2,4,2.7,6.2,1.6c0.9-0.5,1.9-0.9,2.9-1.3
				c0.6-0.2,1.2-0.4,1.7-0.6c0.2-0.1,0.4-0.1,0.6-0.2c1-0.2,0.7-0.3-1-0.3C689.3-24.1,693.9-32,689-35L689-35z"/>
		</g>
	</g>
	<g>
		<g>
			<path class="st1" d="M688.3-41.3c-6.3,1.4-12.2,3.4-18.1,6c-5.3,2.3-0.7,10.1,4.5,7.8c5.1-2.2,10.5-3.9,15.9-5.1
				C696.3-34,693.9-42.7,688.3-41.3L688.3-41.3z"/>
		</g>
	</g>
	<g>
		<g>
			<path class="st1" d="M688.8-43.7c-5-2.1-10-0.5-14.8,1.3c-2.3,0.8-3.8,3-3.1,5.5c0.6,2.2,3.2,4,5.5,3.1c1.6-0.6,3.2-1.2,4.8-1.6
				c0.7-0.2,1.4-0.4,2.1-0.4c0.4,0,1.9,0.3,0.9-0.1c2.2,1,4.8,0.7,6.2-1.6C691.5-39.5,691-42.8,688.8-43.7L688.8-43.7z"/>
		</g>
	</g>
	<g>
		<g>
			<path class="st1" d="M677.4-35.5c2.5-0.9,4.8-1.9,7.4-2.5c2.7-0.6,5.2-1.4,7.6-2.5c-1.8-2.4-3.6-4.7-5.5-7.1
				c-0.8,0.6-1.7,1-2.6,1.4c-2.2,1-2.7,4.2-1.6,6.2c1.4,2.3,3.9,2.6,6.2,1.6c1.6-0.7,3-1.7,4.4-2.8c1.7-1.4,1.6-4.3,0.4-5.9
				c-1.5-1.9-3.7-2.1-5.8-1.2c-2,0.9-4.3,1.3-6.4,1.8c-2.3,0.6-4.3,1.5-6.5,2.3C669.6-42.3,671.9-33.5,677.4-35.5L677.4-35.5z"/>
		</g>
	</g>
	<g>
		<g>
			<path class="st1" d="M685.8-46.3c-15.1,0.9-21.4,15-23.5,28.1c2.9,0.4,5.9,0.8,8.8,1.2c0.4-5.5,0.9-11,1.3-16.5
				c0.4-4.3-6.6-6.3-8.4-2.3c-2.8,6.2-5,12.6-6.5,19.3c-1.3,5.8,6.6,7.7,8.7,2.4c2.1-5.2,2.4-10.2,1.6-15.7c-0.6-4.5-7.7-4.1-8.7,0
				c-0.4,1.7-0.6,2.9-0.5,4.7c0,5.8,9,5.8,9,0c0.1-0.8,0.2-1.5,0.2-2.3c-2.9,0-5.8,0-8.7,0c0.5,3.8-0.2,7.4-1.6,10.9
				c2.9,0.8,5.8,1.6,8.7,2.4c1.3-5.9,3.1-11.6,5.6-17.2c-2.8-0.8-5.6-1.5-8.4-2.3c-0.4,5.5-0.9,11-1.3,16.5c-0.4,5,8,6.2,8.8,1.2
				c1.4-8.5,4.3-20.9,14.8-21.5C691.6-37.5,691.6-46.5,685.8-46.3L685.8-46.3z"/>
		</g>
	</g>
	<path class="st3" d="M654.1-11.5c0.1-1.9,0.1-3.9-0.2-5.8"/>
	<path class="st3" d="M654.3-13.8c-1-13,0.5-26,3.8-38.6c7.8-0.7,15.6-0.7,23.5-0.7c18,0,35.9-0.1,53.9-0.1"/>
	<g>
		<g>
			<path class="st1" d="M675.6-23c-1.5-4.9,0.7-10.2-0.7-15.3c-1-3.5-6.5-4.7-8.2-1.1c-1.6,3.3-2.8,6.7-3.5,10.3
				c2.9,0.4,5.9,0.8,8.8,1.2c0.4-5.3,0.7-10.4,0.2-15.7c-0.5-4.9-7.2-6.2-8.8-1.2c-1.8,5.6-3.4,11.3-4.8,17.1
				c2.9,0.4,5.9,0.8,8.8,1.2c-0.7-5.4-0.8-10.7-0.5-16.1c0.2-5-8.1-6.3-8.8-1.2c-1.5,10.1-3.3,20.2-5.3,30.2
				c2.9,0.4,5.9,0.8,8.8,1.2c0.1-1.7,0.2-3.4,0.3-5.2c-3,0-6,0-9,0c0.5,13.1,0,26.8,2.8,39.6c1.3,5.7,9.9,3.3,8.7-2.4
				c-2.7-12-2-25-2.5-37.2c-0.2-5.8-8.7-5.8-9,0c-0.1,1.7-0.2,3.4-0.3,5.2c-0.2,5,7.8,6.2,8.8,1.2c2-10,3.8-20.1,5.3-30.2
				c-2.9-0.4-5.9-0.8-8.8-1.2c-0.2,5.4-0.2,10.8,0.5,16.1c0.6,4.6,7.5,6.6,8.8,1.2c1.4-5.8,3-11.4,4.8-17.1
				c-2.9-0.4-5.9-0.8-8.8-1.2c0.5,5.3,0.2,10.4-0.2,15.7c-0.4,5,7.9,6.2,8.8,1.2c0.6-2.9,1.3-5.5,2.6-8.2c-2.7-0.4-5.5-0.7-8.2-1.1
				c1.4,5-0.9,10.2,0.7,15.3C668.6-15.1,677.3-17.5,675.6-23L675.6-23z"/>
		</g>
	</g>
	<g>
		<g>
			<path class="st1" d="M663.9,21c-0.6-11.3-1.4-22.7-1.5-34c-0.1-5.4,0-10.9,0.2-16.3c0.3-5.8,0.4-12.3,2.1-17.8
				c-0.7,0.9-1.4,1.8-2.1,2.7c1.1-0.7,4.7,0.2,6,0.2c3,0.2,5.9,0.3,8.9,0.4c5.6,0.2,11.2,0.4,16.7,0.6c11.2,0.3,22.3,0.3,33.5,0.1
				c5.8-0.1,5.8-9.1,0-9c-12.8,0.2-25.6,0.1-38.4-0.3c-6.2-0.2-12.5-0.4-18.7-0.7c-4.4-0.2-11.3-2-14.1,2.5
				c-2.4,3.8-2.1,11.2-2.5,15.6c-0.5,6-0.7,12.1-0.7,18.2c0,12.6,0.9,25.2,1.6,37.9C655.3,26.6,664.3,26.8,663.9,21L663.9,21z"/>
		</g>
	</g>
	<g>
		<g>
			<path class="st1" d="M729.8-54c-19.7,0.2-39.4,0.4-59.2,0.6c-5.8,0.1-5.8,9.1,0,9c19.7-0.2,39.4-0.4,59.2-0.6
				C735.6-45,735.6-54,729.8-54L729.8-54z"/>
		</g>
	</g>
	<g>
		<g>
			<path class="st1" d="M668.8-43c0.1,2.1,0.4,4.3,1.1,6.3c1.4,4.3,7.3,4.3,8.7,0c0.7-2,1.3-4.4,1.2-6.5c-0.1-3.9-4.6-5.9-7.8-3.9
				c-1.8,1.1-3.2,3.6-4.1,5.5c-1.1,2.5-1.4,4.9-0.9,7.6c0.4,2.4,3.4,3.7,5.5,3.1c2.5-0.7,3.6-3.1,3.1-5.5c0.1,0.6,0.1-0.8,0-0.2
				c0.1-0.5,0.2-0.9,0.4-1.2c0.2-0.5,0.5-0.9,0.8-1.4c0.4-0.6,1.6-1.5,0-0.5c-0.8,0.2-1.5,0.4-2.3,0.6c0.1,0,0.3,0,0.4,0
				c-1.1-0.4-2.1-0.9-3.2-1.3c0.1,0.1,0.2,0.2,0.3,0.2c-0.4-1.1-0.9-2.1-1.3-3.2c0.1,1.3-0.4,2.8-0.9,4.1c2.9,0,5.8,0,8.7,0
				c-0.4-1.4-0.7-2.6-0.8-3.9c-0.1-2.4-2-4.5-4.5-4.5C671-47.5,668.7-45.5,668.8-43L668.8-43z"/>
		</g>
	</g>
	<g>
		<g>
			<path class="st1" d="M662.4-6.6c-1.2-13.7-0.9-27.5,1-41.1c0.8-5.7-7.9-8.1-8.7-2.4c-2,14.5-2.6,28.9-1.3,43.5
				C653.9-0.8,662.9-0.8,662.4-6.6L662.4-6.6z"/>
		</g>
	</g>
	<g>
		<g>
			<path class="st1" d="M446.3,61.8c2,1.5,4,3.1,5.9,4.6c1,0.8,1.9,1.6,3,2.3c0.9,0.5,1.9,0.8,2.6,1.2c5,3,9.5-4.8,4.5-7.8
				c-1.6-1-2.8-1.4-4.3-2.6c-1.8-1.4-3.5-2.8-5.3-4.2c-1.9-1.5-4.5-1.9-6.4,0C444.7,57,444.4,60.3,446.3,61.8L446.3,61.8z"/>
		</g>
	</g>
	<g>
		<g>
			<path class="st1" d="M446.9,57.5c3.4,4,6.8,8,10.3,12c3.9,4.3,10.2-2,6.4-6.4c-3.5-3.9-6.9-7.9-10.3-12c-1.6-1.9-4.8-1.6-6.4,0
				C445,53,445.3,55.7,446.9,57.5L446.9,57.5z"/>
		</g>
	</g>
	<g>
		<g>
			<path class="st1" d="M387.7,68.7c3.3-5.9,9.7-9.3,13.6-14.8c3.3-4.8-4.5-9.3-7.8-4.5c-3.9,5.6-10.2,8.7-13.6,14.8
				C377.1,69.2,384.9,73.7,387.7,68.7L387.7,68.7z"/>
		</g>
	</g>
	<g>
		<g>
			<path class="st1" d="M380,72.8c2.8-2.1,5.8-4,8.9-5.7c5.1-2.8,0.6-10.5-4.5-7.8c-3.1,1.7-6.1,3.6-8.9,5.7
				c-1.9,1.5-2.9,3.9-1.6,6.2C375,73.2,378,74.3,380,72.8L380,72.8z"/>
		</g>
	</g>
	<g>
		<g>
			<path class="st1" d="M380.5,73.3c3.5-3.5,7-7,11.3-9.5c5-3,0.5-10.7-4.5-7.8c-4.9,2.9-9,6.9-13.1,10.9
				C370,71.2,376.4,77.4,380.5,73.3L380.5,73.3z"/>
		</g>
	</g>
	<g>
		<g>
			<path class="st1" d="M400.6,55.2c0.2-0.1,0.3-0.2,0.5-0.3c-0.6,0.3-0.7,0.3-0.3,0.1c0.3-0.1,0.5-0.2,0.8-0.3
				c0.6-0.2,1.3-0.4,2-0.5c2.3-0.4,3.8-3.4,3.1-5.5c-0.8-2.5-3.1-3.6-5.5-3.1c-1.8,0.3-3.5,1-5.2,1.8c-2.1,1-2.9,4.2-1.6,6.2
				C395.9,55.7,398.4,56.3,400.6,55.2L400.6,55.2z"/>
		</g>
	</g>
	<g>
		<g>
			<path class="st1" d="M392.5,47.5c-4.7,2.3-8,6.3-10,11.1c-0.9,2.2,1,4.9,3.1,5.5c2.6,0.7,4.6-0.9,5.5-3.1c1-2.3,3.2-4.4,5.9-5.7
				c2.2-1,2.8-4.2,1.6-6.2C397.3,46.8,394.7,46.5,392.5,47.5L392.5,47.5z"/>
		</g>
	</g>
	<g>
		<g>
			<path class="st1" d="M399.7,46.8c-7.3,0.9-12.2,4.9-17.2,10c-4.9,5-9.4,10.2-11.2,17.1c-1.5,5.6,7.2,8,8.7,2.4
				c1.3-4.9,4.4-8.4,7.8-12c3.3-3.4,7-7.9,11.9-8.5C405.4,55,405.5,46,399.7,46.8L399.7,46.8z"/>
		</g>
	</g>
	<g>
		<g>
			<path class="st1" d="M382.8,80.8c1.1-9.8,6.1-18.4,13.4-24.8c4.4-3.8-2-10.2-6.4-6.4c-9.2,8.1-14.6,19-16,31.2
				C373.1,86.4,382.1,86.4,382.8,80.8L382.8,80.8z"/>
		</g>
	</g>
	<g>
		<g>
			<path class="st1" d="M381.1,75.4c-0.2-6.9,2.8-13.3,8.5-17.3c4.7-3.3,0.2-11.1-4.5-7.8c-8.3,5.7-13.2,14.9-12.9,25
				C372.2,81.3,381.2,81.3,381.1,75.4L381.1,75.4z"/>
		</g>
	</g>
	<g>
		<g>
			<path class="st1" d="M383.6,76.6c-0.4-3.9,2.5-7.9,4.3-11.2c1.9-3.5,3.9-7,6-10.3c3.2-4.9-4.6-9.4-7.8-4.5
				c-2.8,4.3-5.3,8.8-7.6,13.3c-2.1,4-4.5,8.1-3.9,12.7C375.3,82.2,384.3,82.3,383.6,76.6L383.6,76.6z"/>
		</g>
	</g>
	<g>
		<g>
			<path class="st1" d="M390.6,59.8c0-0.4,0.1-0.7,0.1-1.1c0.1-1.1-0.6-2.5-1.3-3.2c-0.8-0.8-2.1-1.4-3.2-1.3
				c-1.2,0.1-2.4,0.4-3.2,1.3c-0.2,0.3-0.5,0.6-0.7,0.9c-0.4,0.7-0.6,1.5-0.6,2.3c0,0.4-0.1,0.7-0.1,1.1c-0.1,1.1,0.6,2.5,1.3,3.2
				c0.8,0.8,2.1,1.4,3.2,1.3c1.2-0.1,2.4-0.4,3.2-1.3c0.2-0.3,0.5-0.6,0.7-0.9C390.4,61.5,390.6,60.7,390.6,59.8L390.6,59.8z"/>
		</g>
	</g>
	<g>
		<g>
			<path class="st1" d="M387.7,59.7c8.5-9.9,23.5-8.3,35.3-7.7c13.9,0.7,30.2,3,38.4,15.6c3.2,4.8,11,0.3,7.8-4.5
				c-9.8-15-27.6-18.9-44.4-19.9c-14.7-0.9-32.8-2.1-43.4,10.2C377.6,57.7,384,64.1,387.7,59.7L387.7,59.7z"/>
		</g>
	</g>
	<g>
		<g>
			<path class="st1" d="M453.6,59.7c3.6,2.9,6.3,6.4,8.3,10.6c1.1,2.2,4.2,2.8,6.2,1.6c2.2-1.3,2.7-4,1.6-6.2
				c-2.3-4.8-5.6-9.1-9.7-12.4c-1.9-1.5-4.5-1.8-6.4,0C452,54.8,451.7,58,453.6,59.7L453.6,59.7z"/>
		</g>
	</g>
	<g>
		<g>
			<path class="st1" d="M461,69.1l0.1,0.1c-0.3-0.2-0.6-0.5-0.9-0.7c0.8,0.6,1.6,1.4,2.2,2.2c0.7,0.8,2.1,1.3,3.2,1.3
				s2.4-0.5,3.2-1.3c0.8-0.9,1.4-2,1.3-3.2c-0.1-0.4-0.1-0.8-0.2-1.2c-0.2-0.8-0.6-1.4-1.2-2c-1-1.2-2.1-2.1-3.3-3
				c-0.9-0.7-2.5-0.7-3.5-0.5c-1,0.3-2.2,1.1-2.7,2.1c-0.6,1-0.8,2.3-0.5,3.5c0.2,0.4,0.3,0.7,0.5,1.1
				C459.8,68.2,460.3,68.7,461,69.1L461,69.1z"/>
		</g>
	</g>
	<g>
		<g>
			<path class="st1" d="M459.1,72.3c-1.2-0.9-0.6,1.3-0.6,2.2c0,1.9-0.1,3.9-0.1,5.8c-0.1,3.6-0.1,7.2-0.2,10.9
				c-0.1,5.8,8.9,5.8,9,0c0.1-5.6,0.2-11.1,0.2-16.7c0-4.2-0.4-7.3-3.9-10C459.1,61,454.6,68.8,459.1,72.3L459.1,72.3z"/>
		</g>
	</g>
	<g>
		<g>
			<path class="st1" d="M459.9,74.8c0.7,7.8,0.6,15.5-0.4,23.2c-0.7,5.7,8.3,5.7,9,0c1-7.7,1.1-15.5,0.4-23.2
				C468.4,69.1,459.4,68.9,459.9,74.8L459.9,74.8z"/>
		</g>
	</g>
	<g>
		<g>
			<path class="st1" d="M462.2,72.2c-0.3,3.3-0.2,6.6,0,10c0.2,2.4,1.9,4.5,4.5,4.5c2.3,0,4.7-2.1,4.5-4.5c-0.3-3.3-0.4-6.6,0-10
				c0.2-2.4-2.2-4.5-4.5-4.5C464,67.7,462.4,69.8,462.2,72.2L462.2,72.2z"/>
		</g>
	</g>
	<g>
		<g>
			<path class="st1" d="M465.4,97.8c-0.3,5-0.7,10-1.3,15c-0.3,2.4,2.3,4.5,4.5,4.5c2.7,0,4.2-2.1,4.5-4.5c0.6-5,1-10,1.3-15
				C474.7,91.9,465.7,91.9,465.4,97.8L465.4,97.8z"/>
		</g>
	</g>
	<g>
		<g>
			<path class="st1" d="M462.1,68.3c3.3,5.2,2.2,11.7,2.6,17.5c0.4,5.7,9.4,5.8,9,0c-0.6-7.6,0.4-15.4-3.9-22.1
				C466.8,58.8,459,63.3,462.1,68.3L462.1,68.3z"/>
		</g>
	</g>
	<g>
		<g>
			<path class="st1" d="M464.1,81.7c0.3,5.5,0.2,11-0.6,16.4c-0.4,2.4,0.6,4.8,3.1,5.5c2.1,0.6,5.2-0.7,5.5-3.1
				c0.9-6.3,1.3-12.5,0.9-18.8C472.7,75.8,463.7,75.8,464.1,81.7L464.1,81.7z"/>
		</g>
	</g>
	<g>
		<g>
			<path class="st1" d="M464.9,89.3c0.9,4.3,1.2,8.6,0.9,13.1c-0.3,5.8,8.7,5.8,9,0c0.3-5.2-0.2-10.3-1.2-15.4
				C472.4,81.3,463.7,83.7,464.9,89.3L464.9,89.3z"/>
		</g>
	</g>
	<g>
		<g>
			<path class="st1" d="M465.7,84.3c0.4,6.2,0.3,12.4-0.3,18.6c-0.5,5.8,8.5,5.7,9,0c0.6-6.2,0.7-12.4,0.3-18.6
				C474.4,78.4,465.4,78.4,465.7,84.3L465.7,84.3z"/>
		</g>
	</g>
	<g>
		<g>
			<path class="st1" d="M474.4,86.1c-0.8-3.3-1.2-6.6-1.3-9.9c-0.2-5.8-9.2-5.8-9,0c0.2,4.2,0.7,8.3,1.6,12.3
				C467.1,94.1,475.7,91.8,474.4,86.1L474.4,86.1z"/>
		</g>
	</g>
	<g>
		<g>
			<path class="st1" d="M474.8,87.3c0.2-9.6,0-22.7-10.1-27.5c-5.2-2.4-9.8,5.3-4.5,7.8c6.6,3.1,5.8,13.5,5.6,19.7
				C465.6,93.2,474.6,93.2,474.8,87.3L474.8,87.3z"/>
		</g>
	</g>
	<line class="st3" x1="531.7" y1="232.3" x2="530.3" y2="216.8"/>
	<line class="st3" x1="531.3" y1="216.8" x2="507.3" y2="215.1"/>
	<line class="st3" x1="529.1" y1="232.3" x2="528.3" y2="233.6"/>
	<g>
		<g>
			<path class="st1" d="M528,225.1c0-0.2,0.1-0.3,0.2-0.5c-0.2,0.4-0.3,0.7-0.5,1.1c0.2-0.4,0.3-0.7,0.6-1c-0.2,0.3-0.5,0.6-0.7,0.9
				c0.2-0.3,0.4-0.5,0.7-0.7c-0.3,0.2-0.6,0.5-0.9,0.7c0.3-0.2,0.5-0.4,0.8-0.5c-0.4,0.2-0.7,0.3-1.1,0.5c0.2-0.1,0.4-0.2,0.6-0.2
				c2.3-0.6,3.9-3.2,3.1-5.5c-0.8-2.3-3.1-3.8-5.5-3.1c-2.9,0.8-5.2,3.1-6,6c-0.6,2.3,0.8,5,3.1,5.5
				C524.8,228.8,527.3,227.4,528,225.1L528,225.1z"/>
		</g>
	</g>
	<g>
		<g>
			<path class="st1" d="M526.4,226.9c5.8,0,5.8-9,0-9C520.6,217.9,520.6,226.9,526.4,226.9L526.4,226.9z"/>
		</g>
	</g>
	<g>
		<g>
			<path class="st1" d="M521.5,223.1c4.3,0,4.4-6.8,0-6.8C517.2,216.4,517.1,223.1,521.5,223.1L521.5,223.1z"/>
		</g>
	</g>
	<g>
		<g>
			<path class="st1" d="M522.5,223.1c4.3,0,4.4-6.8,0-6.8C518.2,216.3,518.1,223.1,522.5,223.1L522.5,223.1z"/>
		</g>
	</g>
	<g>
		<g>
			<path class="st1" d="M523.8,222.9c4.3,0,4.4-6.8,0-6.8C519.4,216.1,519.4,222.9,523.8,222.9L523.8,222.9z"/>
		</g>
	</g>
	<g>
		<g>
			<path class="st1" d="M520.9,222.6c4.3,0,4.4-6.8,0-6.8C516.5,215.9,516.5,222.6,520.9,222.6L520.9,222.6z"/>
		</g>
	</g>
	<g>
		<g>
			<path class="st1" d="M518.9,222.4c4.3,0,4.4-6.8,0-6.8C514.5,215.6,514.5,222.4,518.9,222.4L518.9,222.4z"/>
		</g>
	</g>
	<g>
		<g>
			<path class="st1" d="M526.5,225.1c4.3,0,4.4-6.8,0-6.8C522.2,218.3,522.1,225.1,526.5,225.1L526.5,225.1z"/>
		</g>
	</g>
	<g>
		<g>
			<path class="st1" d="M526.5,224.6c4.3,0,4.4-6.8,0-6.8C522.2,217.8,522.1,224.6,526.5,224.6L526.5,224.6z"/>
		</g>
	</g>
	<g>
		<g>
			<path class="st1" d="M526.6,224.4c4.3,0,4.4-6.8,0-6.8C522.3,217.6,522.3,224.4,526.6,224.4L526.6,224.4z"/>
		</g>
	</g>
	<g>
		<g>
			<path class="st1" d="M526.6,224.3c4.3,0,4.4-6.8,0-6.8C522.3,217.6,522.3,224.3,526.6,224.3L526.6,224.3z"/>
		</g>
	</g>
	<g>
		<g>
			<path class="st1" d="M526.8,224.1c4.3,0,4.4-6.8,0-6.8C522.4,217.3,522.4,224.1,526.8,224.1L526.8,224.1z"/>
		</g>
	</g>
	<g>
		<g>
			<path class="st1" d="M526.8,223.9c4.3,0,4.4-6.8,0-6.8C522.4,217.1,522.4,223.9,526.8,223.9L526.8,223.9z"/>
		</g>
	</g>
	<g>
		<g>
			<path class="st1" d="M526.8,223.6c4.3,0,4.4-6.8,0-6.8C522.4,216.8,522.4,223.6,526.8,223.6L526.8,223.6z"/>
		</g>
	</g>
	<g>
		<g>
			<path class="st1" d="M527,223.6c4.3,0,4.4-6.8,0-6.8C522.7,216.8,522.6,223.6,527,223.6L527,223.6z"/>
		</g>
	</g>
	<g>
		<g>
			<path class="st1" d="M527,223.3c4.3,0,4.4-6.8,0-6.8C522.7,216.6,522.6,223.3,527,223.3L527,223.3z"/>
		</g>
	</g>
	<g>
		<g>
			<path class="st1" d="M527.1,223.1c4.3,0,4.4-6.8,0-6.8C522.8,216.4,522.8,223.1,527.1,223.1L527.1,223.1z"/>
		</g>
	</g>
	<g>
		<g>
			<path class="st1" d="M527.3,223.1c4.3,0,4.4-6.8,0-6.8C522.9,216.4,522.9,223.1,527.3,223.1L527.3,223.1z"/>
		</g>
	</g>
	<g>
		<g>
			<path class="st1" d="M527.5,222.9c4.3,0,4.4-6.8,0-6.8C523.2,216.1,523.1,222.9,527.5,222.9L527.5,222.9z"/>
		</g>
	</g>
	<line class="st4" x1="1107.7" y1="30.9" x2="1066" y2="31"/>
	<line class="st4" x1="1066" y1="31" x2="1059.3" y2="65.1"/>
	<line class="st4" x1="1066" y1="31" x2="1059.3" y2="31"/>
	<line class="st4" x1="1066" y1="31" x2="1059.3" y2="31"/>
	<line class="st4" x1="1059.3" y1="31" x2="1059.3" y2="62.2"/>
	<line class="st4" x1="1036.2" y1="72.3" x2="1036" y2="62.2"/>
	<line class="st4" x1="1036" y1="62.2" x2="1058" y2="62.2"/>
	<g>
		<g>
			<path class="st1" d="M1041.8,77.1c5.8,0,5.8-9,0-9S1035.9,77.1,1041.8,77.1L1041.8,77.1z"/>
		</g>
	</g>
	<g>
		<g>
			<path class="st1" d="M1041.3,77.1c5.8,0,5.8-9,0-9S1035.4,77.1,1041.3,77.1L1041.3,77.1z"/>
		</g>
	</g>
	<g>
		<g>
			<path class="st1" d="M1040.8,77.1c5.8,0,5.8-9,0-9S1034.9,77.1,1040.8,77.1L1040.8,77.1z"/>
		</g>
	</g>
	<g>
		<g>
			<path class="st1" d="M1040.3,77.1c5.8,0,5.8-9,0-9S1034.4,77.1,1040.3,77.1L1040.3,77.1z"/>
		</g>
	</g>
	<g>
		<g>
			<path class="st1" d="M1041,72.8c5.8,0,5.8-9,0-9S1035.2,72.8,1041,72.8L1041,72.8z"/>
		</g>
	</g>
	<g>
		<g>
			<path class="st1" d="M1041,72.1c5.8,0,5.8-9,0-9C1035.2,63,1035.2,72.1,1041,72.1L1041,72.1z"/>
		</g>
	</g>
	<g>
		<g>
			<path class="st1" d="M1040.3,71.1c5.8,0,5.8-9,0-9C1034.5,62,1034.4,71.1,1040.3,71.1L1040.3,71.1z"/>
		</g>
	</g>
	<g>
		<g>
			<path class="st1" d="M1051,71.3c5.8,0,5.8-9,0-9S1045.2,71.3,1051,71.3L1051,71.3z"/>
		</g>
	</g>
	<g>
		<g>
			<path class="st1" d="M1049.8,70.8c5.8,0,5.8-9,0-9S1043.9,70.8,1049.8,70.8L1049.8,70.8z"/>
		</g>
	</g>
	<g>
		<g>
			<path class="st1" d="M1047.3,70.8c5.8,0,5.8-9,0-9S1041.4,70.8,1047.3,70.8L1047.3,70.8z"/>
		</g>
	</g>
	<g>
		<g>
			<path class="st1" d="M1044.8,70.8c5.8,0,5.8-9,0-9S1038.9,70.8,1044.8,70.8L1044.8,70.8z"/>
		</g>
	</g>
	<g>
		<g>
			<path class="st1" d="M1054.5,70.8c5.8,0,5.8-9,0-9S1048.7,70.8,1054.5,70.8L1054.5,70.8z"/>
		</g>
	</g>
	<g>
		<g>
			<path class="st1" d="M1069.6,64.8c0.9-8.3,2-16.7,3-25c0.7-5.7-8.3-5.7-9,0c-1,8.3-2.1,16.6-3,25
				C1060,70.6,1069,70.4,1069.6,64.8L1069.6,64.8z"/>
		</g>
	</g>
	<g>
		<g>
			<path class="st1" d="M1071.1,70.4c-1.3-1.5-0.9-5.7-1-7.7c-0.3-2.7-0.5-5.5-0.6-8.3c-0.2-5.7,0.2-11.3,1.6-16.9
				c-1.4,1.1-2.9,2.2-4.3,3.3c13.8,0.2,27.7,0.4,41.5,0.7c5.8,0.1,5.8-8.9,0-9c-13.8-0.2-27.7-0.4-41.5-0.7c-1.9,0-3.9,1.4-4.3,3.3
				c-1.9,7.5-2.2,15.2-1.7,23c0.4,6,0,13.7,4.1,18.6C1068.4,81.3,1074.8,74.8,1071.1,70.4L1071.1,70.4z"/>
		</g>
	</g>
	<g>
		<g>
			<path class="st1" d="M1107.3,30.8c-0.3,0-0.7,0-1,0c-1.2,0-2.4,0.5-3.2,1.3c-0.8,0.8-1.4,2.1-1.3,3.2c0.1,1.2,0.4,2.4,1.3,3.2
				s2,1.3,3.2,1.3c0.3,0,0.7,0,1,0c1.2,0,2.4-0.5,3.2-1.3c0.8-0.8,1.4-2.1,1.3-3.2c-0.1-1.2-0.4-2.4-1.3-3.2
				C1109.6,31.3,1108.5,30.8,1107.3,30.8L1107.3,30.8z"/>
		</g>
	</g>
	<g>
		<g>
			<path class="st1" d="M1102.5,31c-0.1,0-0.2,0-0.3,0c-1.2,0-2.4,0.5-3.2,1.3c-0.8,0.8-1.4,2.1-1.3,3.2c0.1,1.2,0.4,2.4,1.3,3.2
				s2,1.3,3.2,1.3c0.1,0,0.2,0,0.3,0c1.2,0,2.4-0.5,3.2-1.3c0.8-0.8,1.4-2.1,1.3-3.2c-0.1-1.2-0.4-2.4-1.3-3.2
				C1104.8,31.5,1103.7,31,1102.5,31L1102.5,31z"/>
		</g>
	</g>
	<g>
		<g>
			<path class="st1" d="M1100.7,31.8c-6,0.1-11.9,0.3-17.8,1.1c-5.4,0.7-12.1,3.9-17.4,2.3c-2.9-0.9-5.6,1.5-5.7,4.3
				c-0.1,8.5-0.1,17,0.1,25.6c0.2,5.8,9.2,5.8,9,0c-0.2-8.5-0.3-17-0.1-25.6c-1.9,1.4-3.8,2.9-5.7,4.3c5.8,1.7,11-0.2,16.7-1.4
				c6.8-1.5,13.9-1.5,20.9-1.7C1106.5,40.7,1106.5,31.6,1100.7,31.8L1100.7,31.8z"/>
		</g>
	</g>
	<g>
		<g>
			<path class="st1" d="M1101,30.5c-11.3-0.3-22.7,0.1-34,1c-5.7,0.5-5.8,9.5,0,9c11.3-0.9,22.6-1.2,34-1
				C1106.8,39.8,1106.8,30.8,1101,30.5L1101,30.5z"/>
		</g>
	</g>
	<g>
		<g>
			<path class="st1" d="M1073.5,31.5c-2.4,0.1-4.8,0.2-7.2,0.3c-2.3,0.1-4.6,2-4.5,4.5c0.1,2.3,2,4.6,4.5,4.5
				c2.4-0.1,4.8-0.2,7.2-0.3c2.3-0.1,4.6-2,4.5-4.5C1077.9,33.7,1076,31.4,1073.5,31.5L1073.5,31.5z"/>
		</g>
	</g>
	<g>
		<g>
			<path class="st1" d="M1072.5,31.9c-1.9-0.2-3.8-0.5-5.7-0.7c-2.3-0.3-4.6,2.3-4.5,4.5c0.1,2.7,2,4.2,4.5,4.5
				c1.9,0.2,3.8,0.5,5.7,0.7c2.3,0.3,4.6-2.3,4.5-4.5C1076.9,33.7,1075,32.2,1072.5,31.9L1072.5,31.9z"/>
		</g>
	</g>
	<g>
		<g>
			<path class="st1" d="M1073.2,31c-1.9-0.2-3.9,0-5.7,0.6c-2.2,0.7-3.9,3.1-3.1,5.5c0.7,2.2,3.1,3.9,5.5,3.1
				c0.3-0.1,0.6-0.2,0.9-0.3c0.2-0.1,0.4-0.1,0.6-0.1c-0.6,0.1-0.7,0.1-0.4,0.1c0.7,0,1.4,0,2.1,0.1c1.1,0.1,2.5-0.6,3.2-1.3
				c0.8-0.8,1.4-2.1,1.3-3.2c-0.1-1.2-0.4-2.4-1.3-3.2C1075.5,31.5,1074.5,31.1,1073.2,31L1073.2,31z"/>
		</g>
	</g>
	<g>
		<g>
			<path class="st1" d="M1059.1,40.3c-1.2,8,3.1,16.4,0.9,24.1c-1.6,5.6,7.1,8,8.7,2.4c2.4-8.4-2.1-15.9-0.9-24.1
				C1068.6,37,1060,34.5,1059.1,40.3L1059.1,40.3z"/>
		</g>
	</g>
	<g>
		<g>
			<path class="st1" d="M1059,53c-0.5,5.2-0.2,10.3,0.5,15.4c0.3,2.4,3.4,3.7,5.5,3.1c2.6-0.7,3.5-3.1,3.1-5.5
				c-0.6-4.3-0.6-8.7-0.2-13c0.2-2.4-2.2-4.5-4.5-4.5C1060.9,48.5,1059.3,50.5,1059,53L1059,53z"/>
		</g>
	</g>
	<g>
		<g>
			<path class="st1" d="M1059.3,47c-0.3,3.4-0.4,6.8-0.1,10.3c0.2,2.4,1.9,4.5,4.5,4.5c2.3,0,4.7-2.1,4.5-4.5
				c-0.3-3.4-0.2-6.8,0.1-10.3c0.2-2.4-2.2-4.5-4.5-4.5C1061.1,42.5,1059.5,44.5,1059.3,47L1059.3,47z"/>
		</g>
	</g>
	<g>
		<g>
			<path class="st1" d="M1062.5,61.8c-1.7-0.3-3.4-0.5-5.2-0.3c-1.2,0.1-2.3,0.4-3.2,1.3c-0.8,0.8-1.4,2.1-1.3,3.2
				c0.1,2.3,2,4.7,4.5,4.5c1.1-0.1,2.3-0.1,3.4,0.1c-0.4-0.1-0.8-0.1-1.2-0.2c0.2,0,0.4,0.1,0.6,0.1c1.2,0.2,2.3,0.2,3.5-0.5
				c0.9-0.5,1.8-1.6,2.1-2.7C1066.1,65.3,1064.9,62.3,1062.5,61.8L1062.5,61.8z"/>
		</g>
	</g>
	<g>
		<g>
			<path class="st1" d="M1041.5,70.8c5.8,0,5.8-9,0-9S1035.7,70.8,1041.5,70.8L1041.5,70.8z"/>
		</g>
	</g>
	<g>
		<g>
			<path class="st1" d="M1039.8,70.8c5.8,0,5.8-9,0-9S1033.9,70.8,1039.8,70.8L1039.8,70.8z"/>
		</g>
	</g>
	<g>
		<g>
			<path class="st1" d="M1040,79.8c5.8,0,5.8-9,0-9S1034.2,79.8,1040,79.8L1040,79.8z"/>
		</g>
	</g>
	<g>
		<g>
			<path class="st1" d="M1040.5,78.6c5.8,0,5.8-9,0-9S1034.7,78.6,1040.5,78.6L1040.5,78.6z"/>
		</g>
	</g>
	<g>
		<g>
			<path class="st1" d="M1040.5,78.1c5.8,0,5.8-9,0-9S1034.7,78.1,1040.5,78.1L1040.5,78.1z"/>
		</g>
	</g>
	<g>
		<g>
			<path class="st1" d="M1040.5,77.1c5.8,0,5.8-9,0-9S1034.7,77.1,1040.5,77.1L1040.5,77.1z"/>
		</g>
	</g>
	<g>
		<g>
			<path class="st1" d="M1064,42c5.8,0,5.8-9,0-9S1058.2,42,1064,42L1064,42z"/>
		</g>
	</g>
	<g>
		<g>
			<path class="st1" d="M1064.5,39.8c5.8,0,5.8-9,0-9S1058.7,39.8,1064.5,39.8L1064.5,39.8z"/>
		</g>
	</g>
	<g>
		<g>
			<path class="st1" d="M1063,40.3c5.8,0,5.8-9,0-9S1057.2,40.3,1063,40.3L1063,40.3z"/>
		</g>
	</g>
	<g>
		<g>
			<path class="st1" d="M1063.5,42c5.8,0,5.8-9,0-9S1057.7,42,1063.5,42L1063.5,42z"/>
		</g>
	</g>
	<g>
		<g>
			<path class="st1" d="M1063.5,43.8c5.8,0,5.8-9,0-9S1057.7,43.8,1063.5,43.8L1063.5,43.8z"/>
		</g>
	</g>
	<g>
		<g>
			<path class="st1" d="M1063,39.8c5.8,0,5.8-9,0-9S1057.2,39.8,1063,39.8L1063,39.8z"/>
		</g>
	</g>
	<line class="st3" x1="1107.7" y1="30.9" x2="1120.7" y2="-89.6"/>
	<path class="st3" d="M1120.7-50.5c0.3,27.2,0.3,54.2,0,81.3"/>
	<path class="st3" d="M1120.7-89.6c0.3,11.3,0.3,22.3,0,33.3"/>
	<path class="st3" d="M1130.2-0.8c1.8,10.5,1.8,20.5,3.4,31.8"/>
	<path class="st3" d="M1125.1-48.3c1.5,12.9,3.1,25.9,4.2,38.9"/>
	<path class="st3" d="M1120.7-89.6c0.9,10.4,2,20.8,3.3,31.2"/>
	<polygon class="st1" points="1130.9,46.5 1110.2,46.3 1100,29.1 1110.4,12.2 1131.1,12.4 1141.4,29.5 	"/>
	<g>
		<g>
			<path class="st1" d="M1112.9,26.4c-1,2.5-2.4,5-4.1,7.1c2.5,1.5,5,2.9,7.5,4.4c0.7-3.3,1.4-6.7,2.1-10c-2.9-0.4-5.9-0.8-8.8-1.2
				c0,3.5-0.1,7.1-0.1,10.6c-0.1,5.9,8.4,5.6,9,0c0.8-7.5,2.7-14.7,5.4-21.8c-2.9-0.4-5.9-0.8-8.8-1.2c-0.4,6-2.1,11.6-5.1,16.8
				c2.7,0.4,5.5,0.7,8.2,1.1c-1.4-3.6,0-6.9,1.3-10.4c1.9-4.8-5.7-7.7-8.2-3.5c-1.5,2.6-3.2,5.2-4.9,7.7c-0.9,1.3-1.8,2.5-2.8,3.7
				c-0.4,0.4-0.7,0.9-1.1,1.3c-1.7,1.5-1.4,1.8,1,0.8c0.9,2.2,1.8,4.4,2.7,6.6c1.8-2.8,3.6-5.5,5.4-8.3c2.8-4.2-3.7-9.4-7.1-5.5
				c-1.9,2.2-3.8,4.4-5.7,6.7c2.4,1.8,4.7,3.6,7.1,5.5c4.4-7.1,9.1-14,13.9-20.8c3.4-4.7-4.4-9.2-7.8-4.5
				c-4.8,6.8-9.5,13.7-13.9,20.8c-2.7,4.3,3.7,9.4,7.1,5.5c1.9-2.2,3.8-4.4,5.7-6.7c-2.4-1.8-4.7-3.6-7.1-5.5
				c-1.8,2.8-3.6,5.5-5.4,8.3c-1.8,2.7,0.2,5.6,2.7,6.6c4.1,1.7,7.1-2.2,9.3-5c3.2-4,6.1-8.2,8.6-12.6c-2.7-1.2-5.5-2.3-8.2-3.5
				c-1.9,4.9-3.3,10-1.3,15.1c1.3,3.5,6.2,4.7,8.2,1.1c3.8-6.6,5.8-13.7,6.3-21.3c0.3-5.4-7.2-5.7-8.8-1.2
				c-2.9,7.8-4.7,15.9-5.7,24.2c3,0,6,0,9,0c0-3.5,0.1-7.1,0.1-10.6c0-5-7.8-6.3-8.8-1.2c-0.7,3.3-1.4,6.7-2.1,10
				c-0.8,3.9,4.5,8.2,7.5,4.4c2.7-3.5,4.8-7,6.4-11.1C1123.7,23.4,1115,21,1112.9,26.4L1112.9,26.4z"/>
		</g>
	</g>
	<g>
		<g>
			<path class="st1" d="M1122.7,19.8c4.4,6.3,8.9,12.7,13.3,19c3.3,4.7,11.1,0.2,7.8-4.5c-4.4-6.3-8.9-12.7-13.3-19
				C1127.2,10.4,1119.4,14.9,1122.7,19.8L1122.7,19.8z"/>
		</g>
	</g>
	<g>
		<g>
			<path class="st1" d="M1123.4,17.8c4.4,6.8,8.5,13.8,12.4,21c2.7,5.1,10.5,0.6,7.8-4.5c-3.9-7.2-8-14.1-12.4-21
				C1128.1,8.4,1120.3,12.9,1123.4,17.8L1123.4,17.8z"/>
		</g>
	</g>
	<g>
		<g>
			<path class="st1" d="M1119.1-2.1c0.1,2.3,0.1,4.5,0.2,6.8c0.1,2.4,2,4.6,4.5,4.5c2.4-0.1,4.6-2,4.5-4.5c-0.1-2.3-0.1-4.5-0.2-6.8
				c-0.1-2.4-2-4.6-4.5-4.5C1121.2-6.4,1119-4.6,1119.1-2.1L1119.1-2.1z"/>
		</g>
	</g>
	<g>
		<g>
			<path class="st1" d="M1121.4,12.8c-0.4,7.9-0.3,15.7,0.5,23.5c2.9-0.4,5.9-0.8,8.8-1.2c-1.7-6.2-2.9-12.4-3.7-18.7
				c-0.7-5.7-9.6-5.8-9,0c0.7,7.2,1.8,14.3,3.1,21.4c1.1,5.8,9.4,3.2,8.7-2.4c-1.1-8.2-2.3-16.4-3.4-24.6c-0.7-5.4-8.4-3.5-8.8,1.2
				c-0.5,5.1-1,10.3-1.4,15.4c3,0,6,0,9,0c-0.4-13.3,0.3-26.5,2.3-39.7c-2.9-0.4-5.9-0.8-8.8-1.2c0.1,1.8,0.1,3.6,0.2,5.4
				c0.2,5.8,9.2,5.8,9,0c-0.1-1.8-0.1-3.6-0.2-5.4c-0.1-4.8-8.1-6.4-8.8-1.2c-2.1,14-3,28-2.6,42.1c0.2,5.9,8.5,5.7,9,0
				c0.5-5.1,1-10.3,1.4-15.4c-2.9,0.4-5.9,0.8-8.8,1.2c1.1,8.2,2.3,16.4,3.4,24.6c2.9-0.8,5.8-1.6,8.7-2.4c-1.2-6.3-2.2-12.6-2.8-19
				c-3,0-6,0-9,0c0.8,7.1,2.1,14.2,4,21.1c1.3,4.7,9.3,4,8.8-1.2c-0.8-7.8-0.9-15.6-0.5-23.5C1130.7,7,1121.7,7,1121.4,12.8
				L1121.4,12.8z"/>
		</g>
	</g>
	<g>
		<g>
			<path class="st1" d="M1126.1,24.3c1.5-8,3.3-15.9,4.3-24c0.7-5.7-8.3-5.7-9,0c-0.9,7.3-2.6,14.4-3.9,21.6
				C1116.4,27.5,1125,30,1126.1,24.3L1126.1,24.3z"/>
		</g>
	</g>
	<g>
		<g>
			<path class="st1" d="M1116.1-42c0.1,15.8,0.1,31.6-0.1,47.3c-0.1,5.8,8.9,5.8,9,0c0.2-15.8,0.2-31.6,0.1-47.3
				C1125.1-47.8,1116.1-47.8,1116.1-42L1116.1-42z"/>
		</g>
	</g>
	<g>
		<g>
			<path class="st1" d="M1117.2-21.5c-0.7,14.2,0.1,29.5-4.4,43.2c-1.8,5.5,6.9,7.9,8.7,2.4c4.7-14.5,4-30.6,4.7-45.6
				C1126.5-27.3,1117.5-27.3,1117.2-21.5L1117.2-21.5z"/>
		</g>
	</g>
	<g>
		<g>
			<path class="st1" d="M1114.2-22c-0.8,13.8-1.7,27.6-2.7,41.4c-0.4,5.8,8.6,5.8,9,0c1-13.8,1.9-27.6,2.7-41.4
				C1123.6-27.8,1114.6-27.7,1114.2-22L1114.2-22z"/>
		</g>
	</g>
	<g>
		<g>
			<path class="st1" d="M1114.7-36c-0.4,6-0.8,12-1.2,18c-0.4,5.8,8.6,5.8,9,0c0.4-6,0.8-12,1.2-18
				C1124.1-41.8,1115.1-41.7,1114.7-36L1114.7-36z"/>
		</g>
	</g>
	<g>
		<g>
			<path class="st1" d="M1114.6-26.3c-0.4,12.6,0.4,25.8-2.1,38.2c-1.2,5.7,7.5,8.1,8.7,2.4c2.7-13.2,2-27.2,2.4-40.6
				C1123.8-32,1114.8-32,1114.6-26.3L1114.6-26.3z"/>
		</g>
	</g>
	<g>
		<g>
			<path class="st1" d="M1112.9-20.4c-1.3,12.6,0,25.4-1.8,37.9c-0.8,5.7,7.9,8.1,8.7,2.4c1.9-13.4,0.7-26.9,2.1-40.3
				C1122.5-26,1113.5-26,1112.9-20.4L1112.9-20.4z"/>
		</g>
	</g>
	<g>
		<g>
			<path class="st1" d="M1113.8-13.5c-2.8,4.1-2.4,10-2.8,14.8c-0.6,5.9-1.1,11.9-1.7,17.8c-0.5,5.8,8.5,5.7,9,0
				c0.4-4.7,0.9-9.4,1.3-14.1c0.4-3.9-0.3-10.7,1.9-14C1124.8-13.8,1117-18.3,1113.8-13.5L1113.8-13.5z"/>
		</g>
	</g>
	<g>
		<g>
			<path class="st1" d="M1119-2.2c0.3,7.4-0.7,14.8,0.8,22.1c1.2,5.7,9.9,3.3,8.7-2.4c-1.4-6.5-0.2-13.2-0.5-19.7
				C1127.8-7.9,1118.8-7.9,1119-2.2L1119-2.2z"/>
		</g>
	</g>
	<g>
		<g>
			<path class="st1" d="M1116.5-22.4c0.9,4.9,1.6,9.8,2.1,14.8c0.5,5.7,9.5,5.8,9,0s-1.3-11.5-2.4-17.2
				C1124.2-30.3,1115.5-28,1116.5-22.4L1116.5-22.4z"/>
		</g>
	</g>
	<g>
		<g>
			<path class="st1" d="M1116.1-19c1.9,11.4,3,22.9,3.4,34.4c0.2,5.8,9.2,5.8,9,0c-0.5-12.3-1.7-24.6-3.7-36.8
				C1123.8-27.1,1115.1-24.6,1116.1-19L1116.1-19z"/>
		</g>
	</g>
	<g>
		<g>
			<path class="st1" d="M1118.7-2.6c0.6,6.7,0.7,13.5,0.4,20.3c-0.3,5.8,8.7,5.8,9,0c0.3-6.8,0.2-13.5-0.4-20.3
				C1127.2-8.3,1118.2-8.3,1118.7-2.6L1118.7-2.6z"/>
		</g>
	</g>
	<g>
		<g>
			<path class="st1" d="M1116.5-17.4c0.7,3.6,1.3,7.2,1.8,10.8c0.3,2.4,1.9,4.5,4.5,4.5c2.2,0,4.8-2.1,4.5-4.5
				c-0.5-4.4-1.2-8.8-2.1-13.2C1124-25.5,1115.4-23,1116.5-17.4L1116.5-17.4z"/>
		</g>
	</g>
	<g>
		<g>
			<path class="st1" d="M1121.2-0.3c0.5,4.9,0.7,9.8,0.6,14.7c-0.1,5.8,8.9,5.8,9,0c0.1-4.9-0.1-9.8-0.6-14.7
				c-0.2-2.4-1.9-4.5-4.5-4.5C1123.5-4.8,1121-2.7,1121.2-0.3L1121.2-0.3z"/>
		</g>
	</g>
	<g>
		<g>
			<path class="st1" d="M1117.1-21.4c1.2,4.3,2.2,8.6,3,13c0.4,2.4,3.3,3.7,5.5,3.1c2.5-0.7,3.6-3.1,3.1-5.5c-0.8-4.4-1.8-8.7-3-13
				C1124.2-29.3,1115.5-27,1117.1-21.4L1117.1-21.4z"/>
		</g>
	</g>
	<g>
		<g>
			<path class="st1" d="M1119.7-1.3c0.2,4.3,0.3,8.6,0.3,13c0,5.8,9,5.8,9,0c0-4.3-0.1-8.6-0.3-13C1128.5-6.9,1119.5-7.1,1119.7-1.3
				L1119.7-1.3z"/>
		</g>
	</g>
	<g>
		<g>
			<path class="st1" d="M1118.1-21c0.5,4.1,0.9,8.1,1.2,12.2c0.2,2.4,1.9,4.5,4.5,4.5c2.3,0,4.7-2.1,4.5-4.5
				c-0.3-4.1-0.7-8.2-1.2-12.2c-0.3-2.4-1.9-4.5-4.5-4.5C1120.4-25.5,1117.9-23.4,1118.1-21L1118.1-21z"/>
		</g>
	</g>
	<g>
		<g>
			<path class="st1" d="M1121.1,0.7c0.7,4.5,1.5,9.1,2.2,13.6c0.4,2.4,3.4,3.7,5.5,3.1c2.5-0.7,3.5-3.1,3.1-5.5
				c-0.7-4.5-1.5-9.1-2.2-13.6c-0.4-2.4-3.4-3.7-5.5-3.1C1121.7-4.1,1120.7-1.8,1121.1,0.7L1121.1,0.7z"/>
		</g>
	</g>
	<g>
		<g>
			<path class="st1" d="M1117.2-42.5c0.9,10.7,1.8,21.3,2.7,32c0.5,5.7,9.5,5.8,9,0c-0.9-10.7-1.8-21.3-2.7-32
				C1125.8-48.3,1116.8-48.3,1117.2-42.5L1117.2-42.5z"/>
		</g>
	</g>
	<g>
		<g>
			<path class="st1" d="M1119-34.5c5.8,0,5.8-9,0-9S1113.2-34.5,1119-34.5L1119-34.5z"/>
		</g>
	</g>
	<g>
		<g>
			<path class="st1" d="M1119.7-38.8c5.8,0,5.8-9,0-9C1113.9-47.8,1113.9-38.8,1119.7-38.8L1119.7-38.8z"/>
		</g>
	</g>
	<g>
		<g>
			<path class="st1" d="M1120-42c5.8,0,5.8-9,0-9S1114.2-42,1120-42L1120-42z"/>
		</g>
	</g>
	<g>
		<g>
			<path class="st1" d="M1120-43.8c5.8,0,5.8-9,0-9S1114.2-43.8,1120-43.8L1120-43.8z"/>
		</g>
	</g>
	<g>
		<g>
			<path class="st1" d="M1138.4,34.5c1.4,0,1.5-2.3,0-2.3S1136.9,34.5,1138.4,34.5L1138.4,34.5z"/>
		</g>
	</g>
	<g>
		<g>
			<path class="st1" d="M1138.5,33c0.5,0.2,1,0.6,1.3,1c0.8,1.2,2.7,0.1,1.9-1.1c-0.6-1-1.5-1.7-2.6-2.1c-0.6-0.2-1.2,0.2-1.4,0.8
				C1137.5,32.3,1137.9,32.9,1138.5,33L1138.5,33z"/>
		</g>
	</g>
	<g>
		<g>
			<path class="st1" d="M1139.2,30.5c0.3,0.9,0.8,1.7,1.4,2.5c0.4,0.5,1.2,0.4,1.6,0c0.5-0.5,0.4-1.1,0-1.6c-0.4-0.4-0.7-1-0.8-1.5
				c-0.2-0.6-0.8-1-1.4-0.8C1139.4,29.4,1139,30,1139.2,30.5L1139.2,30.5z"/>
		</g>
	</g>
	<g>
		<g>
			<path class="st1" d="M1139.7,30.5c1.7,1.6,3.5,3,5.4,4.3c1.2,0.8,2.3-1.1,1.1-1.9c-1.7-1.2-3.4-2.5-4.9-3.9
				C1140.2,28,1138.6,29.5,1139.7,30.5L1139.7,30.5z"/>
		</g>
	</g>
	<g>
		<g>
			<path class="st1" d="M1101.5,27.9c-1.9,1.9-3.9,3.6-6.1,5.1c-1.2,0.8-0.1,2.8,1.1,1.9c2.3-1.6,4.5-3.4,6.5-5.5
				C1104.1,28.5,1102.5,26.9,1101.5,27.9L1101.5,27.9z"/>
		</g>
	</g>
	<g>
		<g>
			<path class="st1" d="M1101.9,27.8c-1.4-0.3-2.2,0.6-3.2,1.5c-1.2,1-2.3,2-3.5,2.9c-1.1,0.9,0.5,2.5,1.6,1.6
				c0.8-0.7,1.6-1.3,2.4-2c0.4-0.3,0.7-0.6,1.1-0.9c0.1-0.1,0.9-0.9,1-0.9C1102.8,30.3,1103.4,28,1101.9,27.8L1101.9,27.8z"/>
		</g>
	</g>
	<g>
		<g>
			<path class="st1" d="M1122.3-48c0.2,2.3-0.1,4.6,0.4,6.9c0.3,1.4,2.5,0.8,2.2-0.6c-0.4-2.1-0.1-4.2-0.3-6.3
				C1124.4-49.5,1122.2-49.5,1122.3-48L1122.3-48z"/>
		</g>
	</g>
	<g>
		<g>
			<path class="st1" d="M1122.6-48.3c0.1,1.5,0.2,3.1,0.4,4.6c0.1,1.4,2.4,1.4,2.3,0c-0.1-1.5-0.2-3.1-0.4-4.6
				C1124.7-49.7,1122.5-49.7,1122.6-48.3L1122.6-48.3z"/>
		</g>
	</g>
	<g>
		<g>
			<path class="st1" d="M1118.9-71.2c0.3,4.6,0.6,9.1-1.3,13.5c0.7,0.3,1.4,0.6,2.1,0.9c0.5-2.3,0.8-4.6,0.9-7c-0.8,0-1.5,0-2.3,0
				c0,2.8,0.4,6-1.2,8.6c0.7,0.2,1.4,0.4,2.1,0.6c-0.3-2.7,1-5.2,1-7.9c0-1.2-2-1.6-2.2-0.3c-0.3,2.1-0.6,4.2-0.9,6.3
				c0.7,0.1,1.5,0.2,2.2,0.3c1-7.6,1.9-15.3,2.7-23c0.2-1.4-2.1-1.4-2.3,0c-0.8,7.7-1.7,15.3-2.7,23c-0.2,1.2,2,1.6,2.2,0.3
				c0.3-2.1,0.6-4.2,0.9-6.3c-0.7-0.1-1.5-0.2-2.2-0.3c0,2.8-1.3,5.1-1,7.9c0.1,1.1,1.5,1.6,2.1,0.6c1.8-3,1.4-6.3,1.5-9.7
				c0-1.5-2.2-1.4-2.3,0c-0.1,2.2-0.3,4.2-0.8,6.4c-0.3,1.2,1.5,2.1,2.1,0.9c2-4.8,2-9.5,1.6-14.6
				C1121-72.6,1118.8-72.6,1118.9-71.2L1118.9-71.2z"/>
		</g>
	</g>
	<g>
		<g>
			<path class="st1" d="M1119.6-75.3c0.2,2.8,0.3,5.6,0.5,8.4c0.1,1.4,2.3,1.4,2.3,0c-0.2-2.8-0.3-5.6-0.5-8.4
				C1121.8-76.7,1119.5-76.7,1119.6-75.3L1119.6-75.3z"/>
		</g>
	</g>
	<g>
		<g>
			<path class="st1" d="M1119.6-74.8c0.4,3.4,0.7,6.7,1,10.1c0.1,1.4,2.4,1.4,2.3,0c-0.2-3.4-0.6-6.8-1-10.1
				C1121.6-76.3,1119.4-76.3,1119.6-74.8L1119.6-74.8z"/>
		</g>
	</g>
	<g>
		<g>
			<path class="st1" d="M1120-71.8c0.3,4.5,0.6,9,0.6,13.4c0.8,0,1.5,0,2.3,0c0-0.2,0-0.5,0-0.7c-0.1-1.4-2.3-1.4-2.3,0
				c0,0.2,0,0.5,0,0.7c0.1,1.4,2.3,1.5,2.3,0c-0.1-4.5-0.3-9-0.6-13.4C1122.2-73.2,1119.9-73.2,1120-71.8L1120-71.8z"/>
		</g>
	</g>
	<g>
		<g>
			<path class="st1" d="M1120-65.1c0.3,2.4,0.7,4.9,1.1,7.3c0.2,1.4,2.4,0.8,2.2-0.6c-0.4-2.4-0.8-4.8-1.1-7.3
				C1122-67.1,1119.8-66.4,1120-65.1L1120-65.1z"/>
		</g>
	</g>
	<g>
		<g>
			<path class="st1" d="M1120.3-65.8c0.2,2.6,0.3,5.3,0.5,7.9c0.1,1.4,2.3,1.4,2.3,0c-0.2-2.6-0.3-5.3-0.5-7.9
				C1122.5-67.2,1120.2-67.2,1120.3-65.8L1120.3-65.8z"/>
		</g>
	</g>
	<g>
		<g>
			<path class="st1" d="M1121.2-65.7c0,2.6,0.2,5.2,0.4,7.8c0.1,1.4,2.4,1.4,2.3,0c-0.2-2.6-0.3-5.2-0.4-7.8
				C1123.4-67.1,1121.2-67.1,1121.2-65.7L1121.2-65.7z"/>
		</g>
	</g>
	<g>
		<g>
			<path class="st1" d="M1121.7-78.8c0.3-0.5,0.4-1,0.4-1.6c0-1.4-2.3-1.5-2.3,0c0,0.2,0,0.3-0.1,0.4
				C1119-78.7,1121-77.6,1121.7-78.8L1121.7-78.8z"/>
		</g>
	</g>
	<g>
		<g>
			<path class="st1" d="M1121-80.3c1.4,0,1.5-2.3,0-2.3C1119.6-82.6,1119.5-80.3,1121-80.3L1121-80.3z"/>
		</g>
	</g>
	<g>
		<g>
			<path class="st1" d="M1117.6-55.2c-0.3,1.5-0.7,2.9-1,4.4c0.7,0.2,1.4,0.4,2.2,0.6c0.2-1,0.3-2,0.2-3.1c-0.1-1.1-1.5-1.6-2.1-0.6
				s-0.8,2-0.3,3.1c0.3,0.8,1.2,1.1,1.9,0.5c2-1.7,2.3-4.6,2.5-7.1c-0.8,0-1.5,0-2.3,0c-0.1,2.3,0,4.6,0.1,6.9
				c0.1,1.4,2.2,1.5,2.3,0c0.2-3.1,0.1-6.2,0.1-9.3c-0.8,0-1.5,0-2.3,0c0.1,3.5,0.4,7,0.7,10.5c0.1,1,1.5,1.6,2.1,0.6
				c0.7-1.3,0.7-2.9,0.8-4.4c0.1-2.1,0.2-4.1,0.1-6.2c0-1.4-2.3-1.5-2.3,0c0,3.3,0,6.6,0,10c0.8,0,1.5,0,2.3,0c0-0.2,0-0.4,0-0.7
				c0-1.4-2.3-1.5-2.3,0c0,0.2,0,0.4,0,0.7c0,1.4,2.3,1.5,2.3,0c0-3.3,0-6.6,0-10c-0.8,0-1.5,0-2.3,0c0,1.5,0,3.1-0.1,4.6
				c-0.1,1.4,0.1,3.5-0.6,4.8c0.7,0.2,1.4,0.4,2.1,0.6c-0.3-3.5-0.6-7-0.7-10.5c-0.1-1.4-2.3-1.5-2.3,0c0,3.1,0.1,6.2-0.1,9.3
				c0.8,0,1.5,0,2.3,0c-0.2-2.3-0.2-4.6-0.1-6.9c0.1-1.5-2.2-1.4-2.3,0c-0.1,1.9-0.3,4.2-1.8,5.5c0.6,0.2,1.3,0.3,1.9,0.5
				c0-0.5,0.1-0.9,0.1-1.4c-0.7-0.2-1.4-0.4-2.1-0.6c0.1,0.9,0,1.6-0.2,2.5c-0.3,1.4,1.9,2,2.2,0.6c0.3-1.5,0.7-2.9,1-4.4
				C1120.1-56,1118-56.5,1117.6-55.2L1117.6-55.2z"/>
		</g>
	</g>
	<g>
		<g>
			<path class="st1" d="M1120.5-59.2c0.3,3.1,0.6,6.2,0.9,9.3c0.8,0,1.5,0,2.3,0c-0.2-1.5-0.2-2.9-0.1-4.4c0.1-1.4-2.2-1.4-2.3,0
				c-0.1,1.5,0,2.9,0.1,4.4c0.2,1.4,2.4,1.5,2.3,0c-0.3-3.1-0.6-6.2-0.9-9.3C1122.6-60.6,1120.4-60.6,1120.5-59.2L1120.5-59.2z"/>
		</g>
	</g>
	<g>
		<g>
			<path class="st1" d="M1121.1-59.2c0.1,3.4,0.3,6.8,0.6,10.1c0.1,1.4,2.4,1.4,2.3,0c-0.3-3.4-0.5-6.7-0.6-10.1
				C1123.3-60.6,1121.1-60.6,1121.1-59.2L1121.1-59.2z"/>
		</g>
	</g>
	<g>
		<g>
			<path class="st1" d="M1121.4-60.2c-0.1,4.1,0.1,8.2,0.6,12.3c0.2,1.4,2.4,1.4,2.3,0c-0.5-4.1-0.7-8.2-0.6-12.3
				C1123.7-61.6,1121.4-61.6,1121.4-60.2L1121.4-60.2z"/>
		</g>
	</g>
	<g>
		<g>
			<path class="st1" d="M1121.7-59.9c0.7,4.7,1,9.4,0.9,14.1c0,1.4,2.2,1.4,2.3,0c0.1-4.9-0.3-9.8-1-14.7
				C1123.7-61.9,1121.5-61.3,1121.7-59.9L1121.7-59.9z"/>
		</g>
	</g>
	<g>
		<g>
			<path class="st1" d="M1121.5-58.2c1.3,4.3,1,8.9,1.6,13.4c0.2,1.4,2.4,0.8,2.2-0.6c-0.7-4.5-0.3-9-1.6-13.4
				C1123.2-60.2,1121.1-59.6,1121.5-58.2L1121.5-58.2z"/>
		</g>
	</g>
	<g>
		<g>
			<path class="st1" d="M1121.8-58.8c0.6,5.1,1,10.2,1.1,15.4c0,1.4,2.3,1.5,2.3,0c-0.1-5.1-0.5-10.3-1.1-15.4
				C1123.9-60.3,1121.6-60.3,1121.8-58.8L1121.8-58.8z"/>
		</g>
	</g>
	<g>
		<g>
			<path class="st1" d="M1121.7-58.8c0.1,4.3,0.6,8.6,1.4,12.9c0.3,1.4,2.4,0.8,2.2-0.6c-0.8-4.1-1.2-8.2-1.4-12.3
				C1123.9-60.2,1121.7-60.3,1121.7-58.8L1121.7-58.8z"/>
		</g>
	</g>
	<g>
		<g>
			<path class="st1" d="M1122.1-58.7c0.6,3.7,1,7.4,1.1,11.2c0,1.4,2.3,1.5,2.3,0c-0.1-4-0.5-7.9-1.1-11.8
				C1124-60.8,1121.9-60.2,1122.1-58.7L1122.1-58.7z"/>
		</g>
	</g>
	<g>
		<g>
			<path class="st1" d="M1125.7-45.2c-0.8-6.1-1.9-12.1-3.3-18c-0.3-1.4-2.5-0.8-2.2,0.6c1.4,5.7,2.5,11.5,3.2,17.4
				C1123.6-43.8,1125.8-43.8,1125.7-45.2L1125.7-45.2z"/>
		</g>
	</g>
	<g>
		<g>
			<path class="st1" d="M1126.4-43.3c-0.9-3.9-1.7-7.9-2.3-11.8c-0.2-1.4-2.4-0.8-2.2,0.6c0.6,4,1.3,7.9,2.3,11.8
				C1124.6-41.3,1126.8-42,1126.4-43.3L1126.4-43.3z"/>
		</g>
	</g>
	<g>
		<g>
			<path class="st1" d="M1126.6-41.2c-0.8-6.2-1.9-12.4-3.3-18.5c-0.3-1.4-2.5-0.8-2.2,0.6c1.4,5.9,2.5,11.9,3.2,17.9
				C1124.5-39.8,1126.8-39.8,1126.6-41.2L1126.6-41.2z"/>
		</g>
	</g>
	<g>
		<g>
			<path class="st1" d="M1125.3-6.1c0.5,2.3,0.9,4.6,1.3,7c0.2,1.4,2.4,0.8,2.2-0.6c-0.3-2.4-0.7-4.7-1.3-7
				C1127.1-8.1,1125-7.4,1125.3-6.1L1125.3-6.1z"/>
		</g>
	</g>
	<g>
		<g>
			<path class="st1" d="M1126.6-9.6c0.2,2.8,0.4,5.7,0.6,8.5c0.1,1.4,2.3,1.4,2.3,0c-0.2-2.8-0.4-5.7-0.6-8.5
				C1128.8-11.1,1126.5-11.1,1126.6-9.6L1126.6-9.6z"/>
		</g>
	</g>
	<g>
		<g>
			<path class="st1" d="M1127.1-10.8c-0.1,3.8,0.3,7.5,1.5,11.2c0.4,1.4,2.6,0.8,2.2-0.6c-1.1-3.5-1.5-7-1.4-10.6
				C1129.4-12.1,1127.2-12.1,1127.1-10.8L1127.1-10.8z"/>
		</g>
	</g>
	<g>
		<g>
			<path class="st1" d="M1127.3-10.3c-0.4,5.6-0.2,11.1,0.5,16.6c0.2,1.4,2.4,1.4,2.3,0c-0.7-5.5-0.9-11.1-0.5-16.6
				C1129.7-11.6,1127.4-11.6,1127.3-10.3L1127.3-10.3z"/>
		</g>
	</g>
	<g>
		<g>
			<path class="st1" d="M1127.2-10.4c0.4,5,0.6,10.1,0.7,15.1c0,1.4,2.3,1.5,2.3,0c-0.1-5-0.3-10.1-0.7-15.1
				C1129.4-11.9,1127.1-11.9,1127.2-10.4L1127.2-10.4z"/>
		</g>
	</g>
	<g>
		<g>
			<path class="st1" d="M1127.5-9.1c0.2,3.7,0.7,7.4,1.4,11.1c0.3,1.4,2.4,0.8,2.2-0.6c-0.7-3.5-1.1-6.9-1.3-10.5
				C1129.7-10.6,1127.4-10.6,1127.5-9.1L1127.5-9.1z"/>
		</g>
	</g>
	<g>
		<g>
			<path class="st1" d="M1127.3-9.9c0.3,3.9,0.7,7.8,1.2,11.6c0.2,1.4,2.4,1.4,2.3,0c-0.5-3.9-0.9-7.7-1.2-11.6
				C1129.4-11.4,1127.2-11.4,1127.3-9.9L1127.3-9.9z"/>
		</g>
	</g>
	<polygon class="st5" points="1122.4,-86.8 1119,-86.7 1117.3,-89.6 1118.9,-92.4 1122.2,-92.6 1124,-89.7 	"/>
	<g>
		<g>
			<path class="st1" d="M1120.6-88.6c1.4,0,1.5-2.3,0-2.3C1119.2-90.8,1119.2-88.6,1120.6-88.6L1120.6-88.6z"/>
		</g>
	</g>
	<g>
		<g>
			<path class="st1" d="M1119.2-90.3L1119.2-90.3c0.1-0.1,0.2-0.2,0.3-0.4c0.1,0,0.1-0.1,0.2-0.1c0.2,0,0.4,0,0.6,0
				c0.1,0,0.1,0.1,0.2,0.1c0.1,0.2,0.2,0.3,0.3,0.5c0,0.1,0,0.2,0,0.2c-0.7,0-1.4,0-2.2,0c0.1,0.5,0.2,1.1,0.4,1.6
				c0.6-0.4,1.1-0.8,1.7-1.3c-0.1-0.1-0.2-0.2-0.4-0.2c-0.2,0.7-0.4,1.4-0.6,2.1c-0.1-0.1-0.1,0,0,0s0.1,0.1,0.2,0.1
				c0.2,0.1,0.3,0.2,0.4,0.2c0.4,0.2,0.8,0.3,1.3,0.1c0.8-0.2,1.4-1.1,1.1-2c-0.2-0.5-0.7-0.9-1.2-0.8s-1,0.5-1,1.1
				c0,0.2,0,0.4,0.1,0.5c0.1,0.7,0.7,1.3,1.4,1.1c0.6-0.1,1-0.6,1.1-1.1c0.2-0.9-0.6-1.6-1.4-1.4s-1.6,0.7-1.6,1.6s0.7,1.6,1.6,1.5
				s1.3-0.9,1.5-1.7c0.1-0.4,0.2-0.8,0.2-1.2c0-0.2,0-0.3,0-0.5c0-0.1,0-0.2,0-0.3c-0.1-0.2-0.1-0.2,0-0.1c-0.1,0.3-0.2,0.5-0.3,0.8
				c0,0,0,0,0.1-0.1c-0.4,0.1-0.7,0.2-1.1,0.3c0,0,0,0,0.1,0c-0.3-0.3-0.5-0.5-0.8-0.8c0,0,0,0,0,0.1c0-0.2,0-0.4,0-0.6l0,0
				c0.5-0.3,0.9-0.5,1.4-0.8l0,0c-0.6-0.1-1.2,0.2-1.4,0.8c-0.2,0.5,0.2,1.3,0.8,1.4l0,0c0.6,0.1,1.3-0.2,1.4-0.8
				c0.1-0.6-0.1-1.3-0.8-1.5c-0.6-0.2-1.2,0.1-1.4,0.7c-0.3,0.6,0.3,1.8-0.2,2.3c0.2-0.1,0.3-0.2,0.5-0.3h-0.1c0.2,0,0.4,0,0.6,0
				c0.1,0,0.1,0.1,0.2,0.1c0.1,0.2,0.2,0.3,0.3,0.5c0.2,0.5-0.6,0.7-0.1,0.6c-0.5-0.5-0.9-0.9-1.4-1.4l0,0c0.1-0.1,0.3-0.3,0.4-0.4
				l0,0c0.5,0.4,0.9,0.7,1.4,1.1c0-0.2,0-0.4-0.1-0.5c-0.7,0.1-1.5,0.2-2.2,0.3l0,0c0.1-0.2,0.1-0.4,0.2-0.6s1,0,0.4-0.3
				c-0.1-0.1-0.2-0.2-0.4-0.2c-0.3-0.2-0.7-0.3-1-0.3c-1.2-0.1-1.4,1.5-0.6,2.1c0.1,0.1,0.2,0.2,0.4,0.2c0.9,0.6,1.9-0.4,1.7-1.3
				c-0.1-0.5-0.2-1.1-0.4-1.6c-0.3-1.2-1.8-1-2.2,0c-0.3,0.8,0.2,1.7,1,1.9c0.8,0.2,1.6-0.3,1.9-1.1
				C1121.8-90.9,1119.7-91.6,1119.2-90.3L1119.2-90.3z"/>
		</g>
	</g>
	<g>
		<g>
			<path class="st1" d="M1122.6-88.6c1.4,0,1.5-2.3,0-2.3C1121.2-90.8,1121.2-88.6,1122.6-88.6L1122.6-88.6z"/>
		</g>
	</g>
	<g>
		<g>
			<path class="st1" d="M1122.2-91.8c0.1,0,0.4,0.4,0.3,0.5c0.4-1.4-1.7-2-2.2-0.6c-0.3,1,0.3,2,1.2,2.2
				C1123-89.3,1123.6-91.3,1122.2-91.8L1122.2-91.8z"/>
		</g>
	</g>
	<g>
		<g>
			<path class="st1" d="M1119.9-89.3c-0.3,0-0.1,0.1,0.5,0.2c0,0,0,0-0.1-0.1c0.1,0,0.1,0.2,0-0.1c-0.1-0.2-0.2-0.3-0.2-0.5
				c-0.3-0.5-0.8-0.9-1.4-0.9c-1.4,0.1-1.5,2.3,0,2.3c-0.2,0-0.5-0.1-0.5-0.3l0.1,0.2c0.1,0.2,0.2,0.3,0.2,0.5
				c0.3,0.5,0.8,0.9,1.4,0.8s1.1-0.5,1.1-1.1C1121-88.7,1120.5-89.3,1119.9-89.3L1119.9-89.3z"/>
		</g>
	</g>
	<g>
		<g>
			<path class="st1" d="M1119.9-90.1c1.4,0,1.5-2.3,0-2.3C1118.4-92.3,1118.4-90.1,1119.9-90.1L1119.9-90.1z"/>
		</g>
	</g>
	<g>
		<g>
			<path class="st1" d="M1119.8-90.1c1.4,0,1.5-2.3,0-2.3C1118.3-92.3,1118.3-90.1,1119.8-90.1L1119.8-90.1z"/>
		</g>
	</g>
	<g>
		<g>
			<path class="st1" d="M1119-89.8c1.4,0,1.5-2.3,0-2.3C1117.6-92.1,1117.5-89.8,1119-89.8L1119-89.8z"/>
		</g>
	</g>
	<g>
		<g>
			<path class="st1" d="M1119-89.2c1.4,0,1.5-2.3,0-2.3C1117.6-91.3,1117.5-89.2,1119-89.2L1119-89.2z"/>
		</g>
	</g>
	<g>
		<g>
			<path class="st1" d="M1118.6-88.8c1.4,0,1.5-2.3,0-2.3C1117.2-91.1,1117.2-88.8,1118.6-88.8L1118.6-88.8z"/>
		</g>
	</g>
	<g>
		<g>
			<path class="st1" d="M1118.4-88.3c1.4,0,1.5-2.3,0-2.3S1116.9-88.3,1118.4-88.3L1118.4-88.3z"/>
		</g>
	</g>
	<g>
		<g>
			<path class="st1" d="M1119.6-89.6c1.4,0,1.5-2.3,0-2.3C1118.2-91.8,1118.2-89.6,1119.6-89.6L1119.6-89.6z"/>
		</g>
	</g>
	<g>
		<g>
			<path class="st1" d="M1119.6-90.3c1.4,0,1.5-2.3,0-2.3C1118.2-92.7,1118.2-90.3,1119.6-90.3L1119.6-90.3z"/>
		</g>
	</g>
	<g>
		<g>
			<path class="st1" d="M1120.6-90.3c1.4,0,1.5-2.3,0-2.3C1119.2-92.7,1119.2-90.3,1120.6-90.3L1120.6-90.3z"/>
		</g>
	</g>
	<g>
		<g>
			<path class="st1" d="M1119.8-86.6c1.4,0,1.5-2.3,0-2.3C1118.3-88.8,1118.3-86.6,1119.8-86.6L1119.8-86.6z"/>
		</g>
	</g>
	<g>
		<g>
			<path class="st1" d="M1119-87.3c1.4,0,1.5-2.3,0-2.3C1117.6-89.6,1117.5-87.3,1119-87.3L1119-87.3z"/>
		</g>
	</g>
	<g>
		<g>
			<path class="st1" d="M1122.4-88.3c1.4,0,1.5-2.3,0-2.3S1120.9-88.3,1122.4-88.3L1122.4-88.3z"/>
		</g>
	</g>
	<g>
		<g>
			<path class="st1" d="M1122.8-88.7c1.4,0,1.5-2.3,0-2.3C1121.3-90.8,1121.3-88.7,1122.8-88.7L1122.8-88.7z"/>
		</g>
	</g>
	<g>
		<g>
			<path class="st1" d="M1121.4-89.8c1.4,0,1.5-2.3,0-2.3S1119.9-89.8,1121.4-89.8L1121.4-89.8z"/>
		</g>
	</g>
	<g>
		<g>
			<path class="st1" d="M1120.9-89.8c1.4,0,1.5-2.3,0-2.3S1119.4-89.8,1120.9-89.8L1120.9-89.8z"/>
		</g>
	</g>
	<g>
		<g>
			<path class="st1" d="M1121.8-89.7c1.4,0,1.5-2.3,0-2.3C1120.3-91.8,1120.3-89.7,1121.8-89.7L1121.8-89.7z"/>
		</g>
	</g>
	<g>
		<g>
			<path class="st1" d="M1121.9-89.7c1.4,0,1.5-2.3,0-2.3C1120.4-91.8,1120.4-89.7,1121.9-89.7L1121.9-89.7z"/>
		</g>
	</g>
</g>
<g id="Layer_2">
	<g>
		<g>
			<path class="st1" d="M655.5-27.1c-0.8,4.9-1.2,9.9-1.2,14.9c0.1,5.8,9.1,5.8,9,0c0-4.2,0.2-8.3,0.8-12.5c0.4-2.4-0.6-4.8-3.1-5.5
				C658.9-30.8,655.9-29.5,655.5-27.1L655.5-27.1z"/>
		</g>
	</g>
	<rect x="160" y="532.8" class="st5" width="57" height="136"/>
	
		<rect x="160.3" y="517.4" transform="matrix(-1 -4.581986e-003 4.581986e-003 -1 376.8297 1187.0752)" class="st1" width="58.9" height="151.5"/>
	<rect x="1360.7" y="386.8" class="st1" width="79.3" height="282.1"/>
</g>
</svg>
