<?xml version="1.0" encoding="utf-8"?>
<!-- Generator: Adobe Illustrator 19.0.0, SVG Export Plug-In . SVG Version: 6.00 Build 0)  -->
<svg version="1.1" id="Layer_1" xmlns="http://www.w3.org/2000/svg" xmlns:xlink="http://www.w3.org/1999/xlink" x="0px" y="0px"
	 viewBox="160 -104 1280 768" style="enable-background:new 160 -104 1280 768;" xml:space="preserve">
<style type="text/css">
	.st0{stroke:#0065FF;stroke-miterlimit:10;}
	.st1{fill:none;}
	.st2{fill:none;stroke:#000000;stroke-width:3;stroke-miterlimit:10;}
	.st3{stroke:#000000;stroke-miterlimit:10;}
	.st4{fill:none;stroke:#000000;stroke-miterlimit:10;}
	.st5{fill:none;stroke:#000000;stroke-width:0.75;stroke-miterlimit:10;}
	.st6{stroke:#000000;stroke-width:0.25;stroke-miterlimit:10;}
	.st7{display:none;}
	.st8{display:inline;fill:#FFFFFF;}
	.st9{display:inline;fill:#FFEE3F;}
</style>
<g id="Layer_1_2_">
	<g id="Layer_1_1_">
		<g transform="translate(0.000000,768.000000) scale(0.100000,-0.100000)">
			<path class="st0" d="M13916.9,2866.2l-3,1858l-500,6c-275,3-508,2-517-3c-17-8-18-44-18-548v-540h-167c-93,0-174-4-182-9
				s-16-32-19-65l-4-56h-37c-69-1-115-17-146-53l-30-35v785c0,765,0,785-19,799c-14,10-49,14-116,14h-97l-6,872
				c-4,479-7,1008-7,1174c0,290-1,304-19,314c-13,6-184,10-487,10h-467l-199-35c-109-19-207-41-218-47c-24-15-25-44-6-143
				c8-38,13-71,12-73c-2-1-54-11-117-23c-149-26-177-36-185-62c-4-12-5-267-3-567l4-545l-65-3c-35-2-70-8-77-14c-10-8-13-103-13-444
				c0-283-3-434-10-434c-6,0-10,56-10,149c0,113-3,151-14,160c-9,8-153,10-517,9l-504-3l-3-397l-2-398h-200v1517l-21,19
				c-20,18-36,19-260,16l-239-4v1066c0,1053,0,1066-20,1086s-33,20-567,19l-548-1l-206-38c-113-21-216-43-227-49c-27-14-28-46-6-161
				c8-45,14-83,12-85c-2-1-70-14-152-29c130.8,36.9-78.6-11.9-167-37c-19.4-5.5-19-42-19-906v-896l-114,6c-136,8-146,3-146-74
				c0-45-2-49-23-49c-38,0-57-30-57-88v-52h-57c-67,0-117-21-147-63c-21-28-21-36-24-963c-2-817-4-934-17-934c-12,0-15,14-15,59
				c0,38-5,63-14,70c-10,8-95,11-300,9l-286-3l-2,740c-3,616-5,745-17,768c-20,39-68,65-134,73l-57,7v51c0,29-5,57-12,64
				c-8,8-64,12-185,12h-172l-3,653c-0.9,181.7-1.6,313.1-2.7,409.1c-5.6,1.5-10.7,4.2-15.3,7.6c-1.1-1.6-2.5-3-3.8-4.3
				c-23.7-32.6-86.1-25.2-81.2,23.1c8.4,82.5,21.6,164.5,23.5,247.4c-10.3,13.6-13.6,31-7.4,46.2c-0.5,1.1-1,2.2-1.5,3.4
				c-16.5,5.7-35.9,9.4-59.5,11.5l-60,6v59c0,54-2,59-26,68c-14,6-140,10-282,10c-304,0-302,0-302-84v-53l-71-5c-49-4-79-12-97-25
				c-57-42-57-36-60-570l-3-493h-124c-143,0-145-1-145-91c0-35-3-50-10-43c-5,5-11,90-12,189l-3,180l-508,3l-507,2l-10-26
				c-6-16-10-602-10-1614v-1589l-97-3l-98-3l-3-988l-2-987h11750L13916.9,2866.2z"/>
		</g>
		<line class="st1" x1="684.3" y1="-21.8" x2="683.9" y2="-43.5"/>
		<line class="st2" x1="684.1" y1="-44.5" x2="699.5" y2="-42.7"/>
		<g>
			<g>
				<path d="M675-32.7c5.8,0,5.8-9,0-9S669.3-32.7,675-32.7L675-32.7z"/>
			</g>
		</g>
		<g>
			<g>
				<path d="M671.6-37.2c0.2,4.9-1.4,10.3-2.2,15.1c-0.4,2.4,0.6,4.8,3.1,5.5c2.1,0.6,5.2-0.7,5.5-3.1c0.9-5.6,2.7-11.9,2.5-17.5
					C680.4-43,671.4-43,671.6-37.2L671.6-37.2z"/>
			</g>
		</g>
		<g>
			<g>
				<path d="M679.1-28.5c-1.1,3.5-2.6,6.8-4.4,10.1c-2.8,5.1,4.9,9.6,7.8,4.5c2.2-3.9,4-8,5.3-12.2C689.6-31.7,680.9-34,679.1-28.5
					L679.1-28.5z"/>
			</g>
		</g>
		<g>
			<g>
				<path d="M681.5-33c-0.7,4.2-1.4,8.4-2,12.7c-0.4,2.4,0.6,4.8,3.1,5.5c2.1,0.6,5.2-0.7,5.5-3.1c0.6-4.2,1.3-8.4,2-12.7
					c0.4-2.4-0.6-4.8-3.1-5.5C684.8-36.7,681.9-35.4,681.5-33L681.5-33z"/>
			</g>
		</g>
		<g>
			<g>
				<path d="M689.9-31.7c-3.4,2.1-6.8,3.6-10.6,4.6c-5.6,1.5-3.2,10.2,2.4,8.7c4.5-1.2,8.8-3.1,12.8-5.5
					C699.4-27.1,694.9-34.9,689.9-31.7L689.9-31.7z"/>
			</g>
		</g>
		<g>
			<g>
				<path d="M688.8-36.7c-4-2.5-9.6,0.7-13.3,2.5c-2.2,1.1-2.8,4.2-1.6,6.2c1.3,2.2,4,2.7,6.2,1.6c0.9-0.5,1.9-0.9,2.9-1.3
					c0.6-0.2,1.2-0.4,1.7-0.6c0.2-0.1,0.4-0.1,0.6-0.2c1-0.2,0.7-0.3-1-0.3C689.1-25.8,693.8-33.7,688.8-36.7L688.8-36.7z"/>
			</g>
		</g>
		<g>
			<g>
				<path d="M688.1-43c-6.3,1.4-12.2,3.4-18.1,6c-5.3,2.3-0.7,10.1,4.5,7.8c5.1-2.2,10.5-3.9,15.9-5.1
					C696.1-35.7,693.8-44.4,688.1-43L688.1-43z"/>
			</g>
		</g>
		<g>
			<g>
				<path d="M688.6-45.4c-5-2.1-10-0.5-14.8,1.3c-2.3,0.8-3.8,3-3.1,5.5c0.6,2.2,3.2,4,5.5,3.1c1.6-0.6,3.2-1.2,4.8-1.6
					c0.7-0.2,1.4-0.4,2.1-0.4c0.4,0,1.9,0.3,0.9-0.1c2.2,1,4.8,0.7,6.2-1.6C691.3-41.2,690.8-44.5,688.6-45.4L688.6-45.4z"/>
			</g>
		</g>
		<g>
			<g>
				<path d="M677.3-37.2c2.5-0.9,4.8-1.9,7.4-2.5c2.7-0.6,5.2-1.4,7.6-2.5c-1.8-2.4-3.6-4.7-5.5-7.1c-0.8,0.6-1.7,1-2.6,1.4
					c-2.2,1-2.7,4.2-1.6,6.2c1.4,2.3,3.9,2.6,6.2,1.6c1.6-0.7,3-1.7,4.4-2.8c1.7-1.4,1.6-4.3,0.4-5.9c-1.5-1.9-3.7-2.1-5.8-1.2
					c-2,0.9-4.3,1.3-6.4,1.8c-2.3,0.6-4.3,1.5-6.5,2.3C669.4-44,671.8-35.2,677.3-37.2L677.3-37.2z"/>
			</g>
		</g>
		<g>
			<g>
				<path d="M685.6-48c-15.1,0.9-21.4,15-23.5,28.1c2.9,0.4,5.9,0.8,8.8,1.2c0.4-5.5,0.9-11,1.3-16.5c0.4-4.3-6.6-6.3-8.4-2.3
					c-2.8,6.2-5,12.6-6.5,19.3c-1.3,5.8,6.6,7.7,8.7,2.4c2.1-5.2,2.4-10.2,1.6-15.7c-0.6-4.5-7.7-4.1-8.7,0
					c-0.4,1.7-0.6,2.9-0.5,4.7c0,5.8,9,5.8,9,0c0.1-0.8,0.2-1.5,0.2-2.3c-2.9,0-5.8,0-8.7,0c0.5,3.8-0.2,7.4-1.6,10.9
					c2.9,0.8,5.8,1.6,8.7,2.4c1.3-5.9,3.1-11.6,5.6-17.2c-2.8-0.8-5.6-1.5-8.4-2.3c-0.4,5.5-0.9,11-1.3,16.5c-0.4,5,8,6.2,8.8,1.2
					c1.4-8.5,4.3-20.9,14.8-21.5C691.4-39.2,691.4-48.2,685.6-48L685.6-48z"/>
			</g>
		</g>
		<path class="st3" d="M653.9-13.2c0.1-1.9,0.1-3.9-0.2-5.8"/>
		<path class="st3" d="M654.1-15.5c-1-13,0.5-26,3.8-38.6c7.8-0.7,15.6-0.7,23.5-0.7c18,0,35.9-0.1,53.9-0.1"/>
		<g>
			<g>
				<path d="M675.4-24.7c-1.5-4.9,0.7-10.2-0.7-15.3c-1-3.5-6.5-4.7-8.2-1.1c-1.6,3.3-2.8,6.7-3.5,10.3c2.9,0.4,5.9,0.8,8.8,1.2
					c0.4-5.3,0.7-10.4,0.2-15.7c-0.5-4.9-7.2-6.2-8.8-1.2c-1.8,5.6-3.4,11.3-4.8,17.1c2.9,0.4,5.9,0.8,8.8,1.2
					c-0.7-5.4-0.8-10.7-0.5-16.1c0.2-5-8.1-6.3-8.8-1.2c-1.5,10.1-3.3,20.2-5.3,30.2c2.9,0.4,5.9,0.8,8.8,1.2
					c0.1-1.7,0.2-3.4,0.3-5.2c-3,0-6,0-9,0c0.5,13.1,0,26.8,2.8,39.6c1.3,5.7,9.9,3.3,8.7-2.4c-2.7-12-2-25-2.5-37.2
					c-0.2-5.8-8.7-5.8-9,0c-0.1,1.7-0.2,3.4-0.3,5.2c-0.2,5,7.8,6.2,8.8,1.2c2-10,3.8-20.1,5.3-30.2c-2.9-0.4-5.9-0.8-8.8-1.2
					c-0.2,5.4-0.2,10.8,0.5,16.1c0.6,4.6,7.5,6.6,8.8,1.2c1.4-5.8,3-11.4,4.8-17.1c-2.9-0.4-5.9-0.8-8.8-1.2
					c0.5,5.3,0.2,10.4-0.2,15.7c-0.4,5,7.9,6.2,8.8,1.2c0.6-2.9,1.3-5.5,2.6-8.2c-2.7-0.4-5.5-0.7-8.2-1.1c1.4,5-0.9,10.2,0.7,15.3
					C668.4-16.8,677.1-19.2,675.4-24.7L675.4-24.7z"/>
			</g>
		</g>
		<g>
			<g>
				<path d="M663.8,19.3c-0.6-11.3-1.4-22.7-1.5-34c-0.1-5.4,0-10.9,0.2-16.3c0.3-5.8,0.4-12.3,2.1-17.8c-0.7,0.9-1.4,1.8-2.1,2.7
					c1.1-0.7,4.7,0.2,6,0.2c3,0.2,5.9,0.3,8.9,0.4c5.6,0.2,11.2,0.4,16.7,0.6c11.2,0.3,22.3,0.3,33.5,0.1c5.8-0.1,5.8-9.1,0-9
					c-12.8,0.2-25.6,0.1-38.4-0.3c-6.2-0.2-12.5-0.4-18.7-0.7c-4.4-0.2-11.3-2-14.1,2.5c-2.4,3.8-2.1,11.2-2.5,15.6
					c-0.5,6-0.7,12.1-0.7,18.2c0,12.6,0.9,25.2,1.6,37.9C655.1,24.9,664.1,25.1,663.8,19.3L663.8,19.3z"/>
			</g>
		</g>
		<g>
			<g>
				<path d="M729.6-55.7c-19.7,0.2-39.4,0.4-59.2,0.6c-5.8,0.1-5.8,9.1,0,9c19.7-0.2,39.4-0.4,59.2-0.6
					C735.4-46.7,735.4-55.7,729.6-55.7L729.6-55.7z"/>
			</g>
		</g>
		<g>
			<g>
				<path d="M668.6-44.7c0.1,2.1,0.4,4.3,1.1,6.3c1.4,4.3,7.3,4.3,8.7,0c0.7-2,1.3-4.4,1.2-6.5c-0.1-3.9-4.6-5.9-7.8-3.9
					c-1.8,1.1-3.2,3.6-4.1,5.5c-1.1,2.5-1.4,4.9-0.9,7.6c0.4,2.4,3.4,3.7,5.5,3.1c2.5-0.7,3.6-3.1,3.1-5.5c0.1,0.6,0.1-0.8,0-0.2
					c0.1-0.5,0.2-0.9,0.4-1.2c0.2-0.5,0.5-0.9,0.8-1.4c0.4-0.6,1.6-1.5,0-0.5c-0.8,0.2-1.5,0.4-2.3,0.6c0.1,0,0.3,0,0.4,0
					c-1.1-0.4-2.1-0.9-3.2-1.3c0.1,0.1,0.2,0.2,0.3,0.2c-0.4-1.1-0.9-2.1-1.3-3.2c0.1,1.3-0.4,2.8-0.9,4.1c2.9,0,5.8,0,8.7,0
					c-0.4-1.4-0.7-2.6-0.8-3.9c-0.1-2.4-2-4.5-4.5-4.5C670.8-49.2,668.5-47.2,668.6-44.7L668.6-44.7z"/>
			</g>
		</g>
		<g>
			<g>
				<path d="M662.3-8.3c-1.2-13.7-0.9-27.5,1-41.1c0.8-5.7-7.9-8.1-8.7-2.4c-2,14.5-2.6,28.9-1.3,43.5
					C653.8-2.5,662.8-2.5,662.3-8.3L662.3-8.3z"/>
			</g>
		</g>
		<g>
			<g>
				<path d="M446.1,60.1c2,1.5,4,3.1,5.9,4.6c1,0.8,1.9,1.6,3,2.3c0.9,0.5,1.9,0.8,2.6,1.2c5,3,9.5-4.8,4.5-7.8
					c-1.6-1-2.8-1.4-4.3-2.6c-1.8-1.4-3.5-2.8-5.3-4.2c-1.9-1.5-4.5-1.9-6.4,0C444.6,55.3,444.3,58.6,446.1,60.1L446.1,60.1z"/>
			</g>
		</g>
		<g>
			<g>
				<path d="M446.8,55.8c3.4,4,6.8,8,10.3,12c3.9,4.3,10.2-2,6.4-6.4c-3.5-3.9-6.9-7.9-10.3-12c-1.6-1.9-4.8-1.6-6.4,0
					C444.9,51.3,445.1,54,446.8,55.8L446.8,55.8z"/>
			</g>
		</g>
		<g>
			<g>
				<path d="M387.6,67c3.3-5.9,9.7-9.3,13.6-14.8c3.3-4.8-4.5-9.3-7.8-4.5c-3.9,5.6-10.2,8.7-13.6,14.8C377,67.5,384.8,72,387.6,67
					L387.6,67z"/>
			</g>
		</g>
		<g>
			<g>
				<path d="M379.9,71.1c2.8-2.1,5.8-4,8.9-5.7c5.1-2.8,0.6-10.5-4.5-7.8c-3.1,1.7-6.1,3.6-8.9,5.7c-1.9,1.5-2.9,3.9-1.6,6.2
					C374.9,71.5,377.9,72.6,379.9,71.1L379.9,71.1z"/>
			</g>
		</g>
		<g>
			<g>
				<path d="M380.4,71.6c3.5-3.5,7-7,11.3-9.5c5-3,0.5-10.7-4.5-7.8c-4.9,2.9-9,6.9-13.1,10.9C369.9,69.5,376.3,75.7,380.4,71.6
					L380.4,71.6z"/>
			</g>
		</g>
		<g>
			<g>
				<path d="M400.5,53.5c0.2-0.1,0.3-0.2,0.5-0.3c-0.6,0.3-0.7,0.3-0.3,0.1c0.3-0.1,0.5-0.2,0.8-0.3c0.6-0.2,1.3-0.4,2-0.5
					c2.3-0.4,3.8-3.4,3.1-5.5c-0.8-2.5-3.1-3.6-5.5-3.1c-1.8,0.3-3.5,1-5.2,1.8c-2.1,1-2.9,4.2-1.6,6.2
					C395.8,54,398.3,54.6,400.5,53.5L400.5,53.5z"/>
			</g>
		</g>
		<g>
			<g>
				<path d="M392.4,45.8c-4.7,2.3-8,6.3-10,11.1c-0.9,2.2,1,4.9,3.1,5.5c2.6,0.7,4.6-0.9,5.5-3.1c1-2.3,3.2-4.4,5.9-5.7
					c2.2-1,2.8-4.2,1.6-6.2C397.1,45.1,394.6,44.8,392.4,45.8L392.4,45.8z"/>
			</g>
		</g>
		<g>
			<g>
				<path d="M399.6,45.1c-7.3,0.9-12.2,4.9-17.2,10c-4.9,5-9.4,10.2-11.2,17.1c-1.5,5.6,7.2,8,8.7,2.4c1.3-4.9,4.4-8.4,7.8-12
					c3.3-3.4,7-7.9,11.9-8.5C405.3,53.3,405.4,44.3,399.6,45.1L399.6,45.1z"/>
			</g>
		</g>
		<g>
			<g>
				<path d="M382.6,79.1c1.1-9.8,6.1-18.4,13.4-24.8c4.4-3.8-2-10.2-6.4-6.4c-9.2,8.1-14.6,19-16,31.2C373,84.7,382,84.7,382.6,79.1
					L382.6,79.1z"/>
			</g>
		</g>
		<g>
			<g>
				<path d="M390.6,80c-0.2-6.9,2.8-13.3,8.5-17.3c4.7-3.3,0.2-11.1-4.5-7.8c-8.3,5.7-13.2,14.9-12.9,25
					C381.8,85.9,390.8,85.9,390.6,80L390.6,80z"/>
			</g>
		</g>
		<g>
			<g>
				<path d="M383.5,74.9c-0.4-3.9,2.5-7.9,4.3-11.2c1.9-3.5,3.9-7,6-10.3c3.2-4.9-4.6-9.4-7.8-4.5c-2.8,4.3-5.3,8.8-7.6,13.3
					c-2.1,4-4.5,8.1-3.9,12.7C375.1,80.5,384.1,80.6,383.5,74.9L383.5,74.9z"/>
			</g>
		</g>
		<g>
			<g>
				<path d="M390.5,58.1c0-0.4,0.1-0.7,0.1-1.1c0.1-1.1-0.6-2.5-1.3-3.2c-0.8-0.8-2.1-1.4-3.2-1.3c-1.2,0.1-2.4,0.4-3.2,1.3
					c-0.2,0.3-0.5,0.6-0.7,0.9c-0.4,0.7-0.6,1.5-0.6,2.3c0,0.4-0.1,0.7-0.1,1.1c-0.1,1.1,0.6,2.5,1.3,3.2c0.8,0.8,2.1,1.4,3.2,1.3
					c1.2-0.1,2.4-0.4,3.2-1.3c0.2-0.3,0.5-0.6,0.7-0.9C390.3,59.8,390.5,59,390.5,58.1L390.5,58.1z"/>
			</g>
		</g>
		<g>
			<g>
				<path d="M387.6,87.9c8.5-9.9,23.5-8.3,35.3-7.7c13.9,0.7,30.2,3,38.4,15.6c3.2,4.8,11,0.3,7.8-4.5c-9.8-15-27.6-18.9-44.4-19.9
					c-14.7-0.9-32.8-2.1-43.4,10.2C377.5,85.9,383.9,92.3,387.6,87.9L387.6,87.9z"/>
			</g>
		</g>
		<g>
			<g>
				<path d="M453.5,58c3.6,2.9,6.3,6.4,8.3,10.6c1.1,2.2,4.2,2.8,6.2,1.6c2.2-1.3,2.7-4,1.6-6.2c-2.3-4.8-5.6-9.1-9.7-12.4
					c-1.9-1.5-4.5-1.8-6.4,0C451.9,53.1,451.6,56.3,453.5,58L453.5,58z"/>
			</g>
		</g>
		<g>
			<g>
				<path d="M460.9,67.4l0.1,0.1c-0.3-0.2-0.6-0.5-0.9-0.7c0.8,0.6,1.6,1.4,2.2,2.2c0.7,0.8,2.1,1.3,3.2,1.3s2.4-0.5,3.2-1.3
					c0.8-0.9,1.4-2,1.3-3.2c-0.1-0.4-0.1-0.8-0.2-1.2c-0.2-0.8-0.6-1.4-1.2-2c-1-1.2-2.1-2.1-3.3-3c-0.9-0.7-2.5-0.7-3.5-0.5
					c-1,0.3-2.2,1.1-2.7,2.1c-0.6,1-0.8,2.3-0.5,3.5c0.2,0.4,0.3,0.7,0.5,1.1C459.6,66.5,460.1,67,460.9,67.4L460.9,67.4z"/>
			</g>
		</g>
		<g>
			<g>
				<path d="M459,70.6c-1.2-0.9-0.6,1.3-0.6,2.2c0,1.9-0.1,3.9-0.1,5.8c-0.1,3.6-0.1,7.2-0.2,10.9c-0.1,5.8,8.9,5.8,9,0
					c0.1-5.6,0.2-11.1,0.2-16.7c0-4.2-0.4-7.3-3.9-10C459,59.3,454.5,67.1,459,70.6L459,70.6z"/>
			</g>
		</g>
		<g>
			<g>
				<path d="M459.8,73.1c0.7,7.8,0.6,15.5-0.4,23.2c-0.7,5.7,8.3,5.7,9,0c1-7.7,1.1-15.5,0.4-23.2C468.3,67.4,459.3,67.2,459.8,73.1
					L459.8,73.1z"/>
			</g>
		</g>
		<g>
			<g>
				<path d="M462.1,70.5c-0.3,3.3-0.2,6.6,0,10c0.2,2.4,1.9,4.5,4.5,4.5c2.3,0,4.7-2.1,4.5-4.5c-0.3-3.3-0.4-6.6,0-10
					c0.2-2.4-2.2-4.5-4.5-4.5C463.9,66,462.3,68.1,462.1,70.5L462.1,70.5z"/>
			</g>
		</g>
		<g>
			<g>
				<path d="M465.3,96.1c-0.3,5-0.7,10-1.3,15c-0.3,2.4,2.3,4.5,4.5,4.5c2.7,0,4.2-2.1,4.5-4.5c0.6-5,1-10,1.3-15
					C474.6,90.2,465.6,90.2,465.3,96.1L465.3,96.1z"/>
			</g>
		</g>
		<g>
			<g>
				<path d="M462,66.6c3.3,5.2,2.2,11.7,2.6,17.5c0.4,5.7,9.4,5.8,9,0c-0.6-7.6,0.4-15.4-3.9-22.1C466.6,57.1,458.9,61.6,462,66.6
					L462,66.6z"/>
			</g>
		</g>
		<g>
			<g>
				<path d="M464,80c0.3,5.5,0.2,11-0.6,16.4c-0.4,2.4,0.6,4.8,3.1,5.5c2.1,0.6,5.2-0.7,5.5-3.1c0.9-6.3,1.3-12.5,0.9-18.8
					C472.6,74.1,463.6,74.1,464,80L464,80z"/>
			</g>
		</g>
		<g>
			<g>
				<path d="M464.8,87.6c0.9,4.3,1.2,8.6,0.9,13.1c-0.3,5.8,8.7,5.8,9,0c0.3-5.2-0.2-10.3-1.2-15.4C472.3,79.6,463.6,82,464.8,87.6
					L464.8,87.6z"/>
			</g>
		</g>
		<g>
			<g>
				<path d="M465.6,82.6c0.4,6.2,0.3,12.4-0.3,18.6c-0.5,5.8,8.5,5.7,9,0c0.6-6.2,0.7-12.4,0.3-18.6
					C474.3,76.7,465.3,76.7,465.6,82.6L465.6,82.6z"/>
			</g>
		</g>
		<g>
			<g>
				<path d="M474.3,84.4c-0.8-3.3-1.2-6.6-1.3-9.9c-0.2-5.8-9.2-5.8-9,0c0.2,4.2,0.7,8.3,1.6,12.3C467,92.4,475.6,90.1,474.3,84.4
					L474.3,84.4z"/>
			</g>
		</g>
		<g>
			<g>
				<path d="M474.6,85.6c0.2-9.6,0-22.7-10.1-27.5c-5.2-2.4-9.8,5.3-4.5,7.8c6.6,3.1,5.8,13.5,5.6,19.7
					C465.5,91.5,474.5,91.5,474.6,85.6L474.6,85.6z"/>
			</g>
		</g>
		<line class="st4" x1="531.5" y1="230.6" x2="530.1" y2="215.1"/>
		<line class="st4" x1="531.1" y1="215.1" x2="507.1" y2="213.4"/>
		<line class="st4" x1="528.9" y1="230.6" x2="528.1" y2="231.9"/>
		<g>
			<g>
				<path d="M527.8,223.4c0-0.2,0.1-0.3,0.2-0.5c-0.2,0.4-0.3,0.7-0.5,1.1c0.2-0.4,0.3-0.7,0.6-1c-0.2,0.3-0.5,0.6-0.7,0.9
					c0.2-0.3,0.4-0.5,0.7-0.7c-0.3,0.2-0.6,0.5-0.9,0.7c0.3-0.2,0.5-0.4,0.8-0.5c-0.4,0.2-0.7,0.3-1.1,0.5c0.2-0.1,0.4-0.2,0.6-0.2
					c2.3-0.6,3.9-3.2,3.1-5.5s-3.1-3.8-5.5-3.1c-2.9,0.8-5.2,3.1-6,6c-0.6,2.3,0.8,5,3.1,5.5C524.6,227.1,527.1,225.7,527.8,223.4
					L527.8,223.4z"/>
			</g>
		</g>
		<g>
			<g>
				<path d="M526.3,225.2c5.8,0,5.8-9,0-9C520.4,216.2,520.4,225.2,526.3,225.2L526.3,225.2z"/>
			</g>
		</g>
		<g>
			<g>
				<path d="M521.3,221.4c4.3,0,4.4-6.8,0-6.8C517,214.7,516.9,221.4,521.3,221.4L521.3,221.4z"/>
			</g>
		</g>
		<g>
			<g>
				<path d="M522.3,221.4c4.3,0,4.4-6.8,0-6.8C518,214.6,517.9,221.4,522.3,221.4L522.3,221.4z"/>
			</g>
		</g>
		<g>
			<g>
				<path d="M523.6,221.2c4.3,0,4.4-6.8,0-6.8C519.3,214.4,519.3,221.2,523.6,221.2L523.6,221.2z"/>
			</g>
		</g>
		<g>
			<g>
				<path d="M520.8,220.9c4.3,0,4.4-6.8,0-6.8C516.3,214.2,516.3,220.9,520.8,220.9L520.8,220.9z"/>
			</g>
		</g>
		<g>
			<g>
				<path d="M518.8,220.7c4.3,0,4.4-6.8,0-6.8S514.3,220.7,518.8,220.7L518.8,220.7z"/>
			</g>
		</g>
		<g>
			<g>
				<path d="M526.3,223.4c4.3,0,4.4-6.8,0-6.8C522,216.6,521.9,223.4,526.3,223.4L526.3,223.4z"/>
			</g>
		</g>
		<g>
			<g>
				<path d="M526.3,222.9c4.3,0,4.4-6.8,0-6.8C522,216.1,521.9,222.9,526.3,222.9L526.3,222.9z"/>
			</g>
		</g>
		<g>
			<g>
				<path d="M526.4,222.7c4.3,0,4.4-6.8,0-6.8C522.1,215.9,522.1,222.7,526.4,222.7L526.4,222.7z"/>
			</g>
		</g>
		<g>
			<g>
				<path d="M526.4,222.6c4.3,0,4.4-6.8,0-6.8C522.1,215.9,522.1,222.6,526.4,222.6L526.4,222.6z"/>
			</g>
		</g>
		<g>
			<g>
				<path d="M526.6,222.4c4.3,0,4.4-6.8,0-6.8C522.3,215.6,522.3,222.4,526.6,222.4L526.6,222.4z"/>
			</g>
		</g>
		<g>
			<g>
				<path d="M526.6,222.2c4.3,0,4.4-6.8,0-6.8C522.3,215.4,522.3,222.2,526.6,222.2L526.6,222.2z"/>
			</g>
		</g>
		<g>
			<g>
				<path d="M526.6,221.9c4.3,0,4.4-6.8,0-6.8C522.3,215.1,522.3,221.9,526.6,221.9L526.6,221.9z"/>
			</g>
		</g>
		<g>
			<g>
				<path d="M526.8,221.9c4.3,0,4.4-6.8,0-6.8C522.5,215.1,522.4,221.9,526.8,221.9L526.8,221.9z"/>
			</g>
		</g>
		<g>
			<g>
				<path d="M526.8,221.6c4.3,0,4.4-6.8,0-6.8C522.5,214.9,522.4,221.6,526.8,221.6L526.8,221.6z"/>
			</g>
		</g>
		<g>
			<g>
				<path d="M526.9,221.4c4.3,0,4.4-6.8,0-6.8C522.6,214.7,522.6,221.4,526.9,221.4L526.9,221.4z"/>
			</g>
		</g>
		<g>
			<g>
				<path d="M527.1,221.4c4.3,0,4.4-6.8,0-6.8C522.8,214.7,522.8,221.4,527.1,221.4L527.1,221.4z"/>
			</g>
		</g>
		<g>
			<g>
				<path d="M527.3,221.2c4.3,0,4.4-6.8,0-6.8C523,214.4,522.9,221.2,527.3,221.2L527.3,221.2z"/>
			</g>
		</g>
		<line class="st5" x1="1107.5" y1="29.2" x2="1065.8" y2="29.3"/>
		<line class="st5" x1="1065.8" y1="29.3" x2="1059.2" y2="63.4"/>
		<line class="st5" x1="1065.8" y1="29.3" x2="1059.2" y2="29.3"/>
		<line class="st5" x1="1065.8" y1="29.3" x2="1059.2" y2="29.3"/>
		<line class="st5" x1="1059.2" y1="29.3" x2="1059.2" y2="60.5"/>
		<line class="st5" x1="1036" y1="70.6" x2="1035.8" y2="60.5"/>
		<line class="st5" x1="1035.8" y1="60.5" x2="1057.8" y2="60.5"/>
		<g>
			<g>
				<path d="M1041.7,75.4c5.8,0,5.8-9,0-9S1035.8,75.4,1041.7,75.4L1041.7,75.4z"/>
			</g>
		</g>
		<g>
			<g>
				<path d="M1041.2,75.4c5.8,0,5.8-9,0-9S1035.3,75.4,1041.2,75.4L1041.2,75.4z"/>
			</g>
		</g>
		<g>
			<g>
				<path d="M1040.7,75.4c5.8,0,5.8-9,0-9S1034.8,75.4,1040.7,75.4L1040.7,75.4z"/>
			</g>
		</g>
		<g>
			<g>
				<path d="M1040.2,75.4c5.8,0,5.8-9,0-9S1034.3,75.4,1040.2,75.4L1040.2,75.4z"/>
			</g>
		</g>
		<g>
			<g>
				<path d="M1040.8,71.1c5.8,0,5.8-9,0-9S1035,71.1,1040.8,71.1L1040.8,71.1z"/>
			</g>
		</g>
		<g>
			<g>
				<path d="M1040.8,70.4c5.8,0,5.8-9,0-9C1035,61.3,1035,70.4,1040.8,70.4L1040.8,70.4z"/>
			</g>
		</g>
		<g>
			<g>
				<path d="M1040.2,69.4c5.8,0,5.8-9,0-9C1034.3,60.3,1034.3,69.4,1040.2,69.4L1040.2,69.4z"/>
			</g>
		</g>
		<g>
			<g>
				<path d="M1050.8,69.6c5.8,0,5.8-9,0-9S1045,69.6,1050.8,69.6L1050.8,69.6z"/>
			</g>
		</g>
		<g>
			<g>
				<path d="M1049.7,69.1c5.8,0,5.8-9,0-9S1043.8,69.1,1049.7,69.1L1049.7,69.1z"/>
			</g>
		</g>
		<g>
			<g>
				<path d="M1047.2,69.1c5.8,0,5.8-9,0-9S1041.3,69.1,1047.2,69.1L1047.2,69.1z"/>
			</g>
		</g>
		<g>
			<g>
				<path d="M1044.7,69.1c5.8,0,5.8-9,0-9S1038.8,69.1,1044.7,69.1L1044.7,69.1z"/>
			</g>
		</g>
		<g>
			<g>
				<path d="M1054.3,69.1c5.8,0,5.8-9,0-9S1048.5,69.1,1054.3,69.1L1054.3,69.1z"/>
			</g>
		</g>
		<g>
			<g>
				<path d="M1069.4,63.1c0.9-8.3,2-16.7,3-25c0.7-5.7-8.3-5.7-9,0c-1,8.3-2.1,16.6-3,25C1059.8,68.9,1068.8,68.7,1069.4,63.1
					L1069.4,63.1z"/>
			</g>
		</g>
		<g>
			<g>
				<path d="M1070.9,68.7c-1.3-1.5-0.9-5.7-1-7.7c-0.3-2.7-0.5-5.5-0.6-8.3c-0.2-5.7,0.2-11.3,1.6-16.9c-1.4,1.1-2.9,2.2-4.3,3.3
					c13.8,0.2,27.7,0.4,41.5,0.7c5.8,0.1,5.8-8.9,0-9c-13.8-0.2-27.7-0.4-41.5-0.7c-1.9,0-3.9,1.4-4.3,3.3c-1.9,7.5-2.2,15.2-1.7,23
					c0.4,6,0,13.7,4.1,18.6C1068.3,79.6,1074.7,73.1,1070.9,68.7L1070.9,68.7z"/>
			</g>
		</g>
		<g>
			<g>
				<path d="M1107.2,29.1c-0.3,0-0.7,0-1,0c-1.2,0-2.4,0.5-3.2,1.3c-0.8,0.8-1.4,2.1-1.3,3.2c0.1,1.2,0.4,2.4,1.3,3.2s2,1.3,3.2,1.3
					c0.3,0,0.7,0,1,0c1.2,0,2.4-0.5,3.2-1.3c0.8-0.8,1.4-2.1,1.3-3.2c-0.1-1.2-0.4-2.4-1.3-3.2S1108.3,29.1,1107.2,29.1L1107.2,29.1
					z"/>
			</g>
		</g>
		<g>
			<g>
				<path d="M1102.3,29.3c-0.1,0-0.2,0-0.3,0c-1.2,0-2.4,0.5-3.2,1.3c-0.8,0.8-1.4,2.1-1.3,3.2c0.1,1.2,0.4,2.4,1.3,3.2
					s2,1.3,3.2,1.3c0.1,0,0.2,0,0.3,0c1.2,0,2.4-0.5,3.2-1.3c0.8-0.8,1.4-2.1,1.3-3.2c-0.1-1.2-0.4-2.4-1.3-3.2
					C1104.7,29.8,1103.5,29.3,1102.3,29.3L1102.3,29.3z"/>
			</g>
		</g>
		<g>
			<g>
				<path d="M1100.5,30.1c-6,0.1-11.9,0.3-17.8,1.1c-5.4,0.7-12.1,3.9-17.4,2.3c-2.9-0.9-5.6,1.5-5.7,4.3c-0.1,8.5-0.1,17,0.1,25.6
					c0.2,5.8,9.2,5.8,9,0c-0.2-8.5-0.3-17-0.1-25.6c-1.9,1.4-3.8,2.9-5.7,4.3c5.8,1.7,11-0.2,16.7-1.4c6.8-1.5,13.9-1.5,20.9-1.7
					C1106.3,39,1106.3,29.9,1100.5,30.1L1100.5,30.1z"/>
			</g>
		</g>
		<g>
			<g>
				<path d="M1100.8,28.8c-11.3-0.3-22.7,0.1-34,1c-5.7,0.5-5.8,9.5,0,9c11.3-0.9,22.6-1.2,34-1
					C1106.7,38.1,1106.7,29.1,1100.8,28.8L1100.8,28.8z"/>
			</g>
		</g>
		<g>
			<g>
				<path d="M1073.3,29.8c-2.4,0.1-4.8,0.2-7.2,0.3c-2.3,0.1-4.6,2-4.5,4.5c0.1,2.3,2,4.6,4.5,4.5c2.4-0.1,4.8-0.2,7.2-0.3
					c2.3-0.1,4.6-2,4.5-4.5C1077.8,32,1075.8,29.7,1073.3,29.8L1073.3,29.8z"/>
			</g>
		</g>
		<g>
			<g>
				<path d="M1072.3,30.2c-1.9-0.2-3.8-0.5-5.7-0.7c-2.3-0.3-4.6,2.3-4.5,4.5c0.1,2.7,2,4.2,4.5,4.5c1.9,0.2,3.8,0.5,5.7,0.7
					c2.3,0.3,4.6-2.3,4.5-4.5C1076.8,32,1074.8,30.5,1072.3,30.2L1072.3,30.2z"/>
			</g>
		</g>
		<g>
			<g>
				<path d="M1073,29.3c-1.9-0.2-3.9,0-5.7,0.6c-2.2,0.7-3.9,3.1-3.1,5.5c0.7,2.2,3.1,3.9,5.5,3.1c0.3-0.1,0.6-0.2,0.9-0.3
					c0.2-0.1,0.4-0.1,0.6-0.1c-0.6,0.1-0.7,0.1-0.4,0.1c0.7,0,1.4,0,2.1,0.1c1.1,0.1,2.5-0.6,3.2-1.3c0.8-0.8,1.4-2.1,1.3-3.2
					c-0.1-1.2-0.4-2.4-1.3-3.2C1075.3,29.8,1074.3,29.4,1073,29.3L1073,29.3z"/>
			</g>
		</g>
		<g>
			<g>
				<path d="M1058.9,38.6c-1.2,8,3.1,16.4,0.9,24.1c-1.6,5.6,7.1,8,8.7,2.4c2.4-8.4-2.1-15.9-0.9-24.1
					C1068.4,35.3,1059.8,32.8,1058.9,38.6L1058.9,38.6z"/>
			</g>
		</g>
		<g>
			<g>
				<path d="M1058.8,51.3c-0.5,5.2-0.2,10.3,0.5,15.4c0.3,2.4,3.4,3.7,5.5,3.1c2.6-0.7,3.5-3.1,3.1-5.5c-0.6-4.3-0.6-8.7-0.2-13
					c0.2-2.4-2.2-4.5-4.5-4.5C1060.8,46.8,1059.2,48.8,1058.8,51.3L1058.8,51.3z"/>
			</g>
		</g>
		<g>
			<g>
				<path d="M1059.2,45.3c-0.3,3.4-0.4,6.8-0.1,10.3c0.2,2.4,1.9,4.5,4.5,4.5c2.3,0,4.7-2.1,4.5-4.5c-0.3-3.4-0.2-6.8,0.1-10.3
					c0.2-2.4-2.2-4.5-4.5-4.5C1060.9,40.8,1059.3,42.8,1059.2,45.3L1059.2,45.3z"/>
			</g>
		</g>
		<g>
			<g>
				<path d="M1062.3,60.1c-1.7-0.3-3.4-0.5-5.2-0.3c-1.2,0.1-2.3,0.4-3.2,1.3c-0.8,0.8-1.4,2.1-1.3,3.2c0.1,2.3,2,4.7,4.5,4.5
					c1.1-0.1,2.3-0.1,3.4,0.1c-0.4-0.1-0.8-0.1-1.2-0.2c0.2,0,0.4,0.1,0.6,0.1c1.2,0.2,2.3,0.2,3.5-0.5c0.9-0.5,1.8-1.6,2.1-2.7
					C1065.9,63.6,1064.8,60.6,1062.3,60.1L1062.3,60.1z"/>
			</g>
		</g>
		<g>
			<g>
				<path d="M1041.3,69.1c5.8,0,5.8-9,0-9S1035.5,69.1,1041.3,69.1L1041.3,69.1z"/>
			</g>
		</g>
		<g>
			<g>
				<path d="M1039.7,69.1c5.8,0,5.8-9,0-9S1033.8,69.1,1039.7,69.1L1039.7,69.1z"/>
			</g>
		</g>
		<g>
			<g>
				<path d="M1039.8,78.1c5.8,0,5.8-9,0-9S1034,78.1,1039.8,78.1L1039.8,78.1z"/>
			</g>
		</g>
		<g>
			<g>
				<path d="M1040.3,76.9c5.8,0,5.8-9,0-9S1034.5,76.9,1040.3,76.9L1040.3,76.9z"/>
			</g>
		</g>
		<g>
			<g>
				<path d="M1040.3,76.4c5.8,0,5.8-9,0-9S1034.5,76.4,1040.3,76.4L1040.3,76.4z"/>
			</g>
		</g>
		<g>
			<g>
				<path d="M1040.3,75.4c5.8,0,5.8-9,0-9S1034.5,75.4,1040.3,75.4L1040.3,75.4z"/>
			</g>
		</g>
		<g>
			<g>
				<path d="M1063.8,40.3c5.8,0,5.8-9,0-9S1058,40.3,1063.8,40.3L1063.8,40.3z"/>
			</g>
		</g>
		<g>
			<g>
				<path d="M1064.3,38.1c5.8,0,5.8-9,0-9S1058.5,38.1,1064.3,38.1L1064.3,38.1z"/>
			</g>
		</g>
		<g>
			<g>
				<path d="M1062.8,38.6c5.8,0,5.8-9,0-9S1057,38.6,1062.8,38.6L1062.8,38.6z"/>
			</g>
		</g>
		<g>
			<g>
				<path d="M1063.3,40.3c5.8,0,5.8-9,0-9S1057.5,40.3,1063.3,40.3L1063.3,40.3z"/>
			</g>
		</g>
		<g>
			<g>
				<path d="M1063.3,42.1c5.8,0,5.8-9,0-9S1057.5,42.1,1063.3,42.1L1063.3,42.1z"/>
			</g>
		</g>
		<g>
			<g>
				<path d="M1062.8,38.1c5.8,0,5.8-9,0-9S1057,38.1,1062.8,38.1L1062.8,38.1z"/>
			</g>
		</g>
		<line class="st4" x1="1107.5" y1="29.2" x2="1120.5" y2="-91.3"/>
		<path class="st3" d="M1120.5-52.2c0.3,27.2,0.3,54.2,0,81.3"/>
		<path class="st3" d="M1120.5-91.3c0.3,11.3,0.3,22.3,0,33.3"/>
		<path class="st3" d="M1130-2.5c1.8,10.5,1.8,20.5,3.4,31.8"/>
		<path class="st3" d="M1124.9-50c1.5,12.9,3.1,25.9,4.2,38.9"/>
		<path class="st3" d="M1120.5-91.3c0.9,10.4,2,20.8,3.3,31.2"/>
		<polygon points="1130.8,44.8 1110,44.6 1099.8,27.4 1110.3,10.5 1130.9,10.7 1141.3,27.8 		"/>
		<g>
			<g>
				<path d="M1112.8,24.7c-1,2.5-2.4,5-4.1,7.1c2.5,1.5,5,2.9,7.5,4.4c0.7-3.3,1.4-6.7,2.1-10c-2.9-0.4-5.9-0.8-8.8-1.2
					c0,3.5-0.1,7.1-0.1,10.6c-0.1,5.9,8.4,5.6,9,0c0.8-7.5,2.7-14.7,5.4-21.8c-2.9-0.4-5.9-0.8-8.8-1.2c-0.4,6-2.1,11.6-5.1,16.8
					c2.7,0.4,5.5,0.7,8.2,1.1c-1.4-3.6,0-6.9,1.3-10.4c1.9-4.8-5.7-7.7-8.2-3.5c-1.5,2.6-3.2,5.2-4.9,7.7c-0.9,1.3-1.8,2.5-2.8,3.7
					c-0.4,0.4-0.7,0.9-1.1,1.3c-1.7,1.5-1.4,1.8,1,0.8c0.9,2.2,1.8,4.4,2.7,6.6c1.8-2.8,3.6-5.5,5.4-8.3c2.8-4.2-3.7-9.4-7.1-5.5
					c-1.9,2.2-3.8,4.4-5.7,6.7c2.4,1.8,4.7,3.6,7.1,5.5c4.4-7.1,9.1-14,13.9-20.8c3.4-4.7-4.4-9.2-7.8-4.5
					c-4.8,6.8-9.5,13.7-13.9,20.8c-2.7,4.3,3.7,9.4,7.1,5.5c1.9-2.2,3.8-4.4,5.7-6.7c-2.4-1.8-4.7-3.6-7.1-5.5
					c-1.8,2.8-3.6,5.5-5.4,8.3c-1.8,2.7,0.2,5.6,2.7,6.6c4.1,1.7,7.1-2.2,9.3-5c3.2-4,6.1-8.2,8.6-12.6c-2.7-1.2-5.5-2.3-8.2-3.5
					c-1.9,4.9-3.3,10-1.3,15.1c1.3,3.5,6.2,4.7,8.2,1.1c3.8-6.6,5.8-13.7,6.3-21.3c0.3-5.4-7.2-5.7-8.8-1.2
					c-2.9,7.8-4.7,15.9-5.7,24.2c3,0,6,0,9,0c0-3.5,0.1-7.1,0.1-10.6c0-5-7.8-6.3-8.8-1.2c-0.7,3.3-1.4,6.7-2.1,10
					c-0.8,3.9,4.5,8.2,7.5,4.4c2.7-3.5,4.8-7,6.4-11.1C1123.5,21.7,1114.8,19.3,1112.8,24.7L1112.8,24.7z"/>
			</g>
		</g>
		<g>
			<g>
				<path d="M1122.5,18.1c4.4,6.3,8.9,12.7,13.3,19c3.3,4.7,11.1,0.2,7.8-4.5c-4.4-6.3-8.9-12.7-13.3-19
					C1127,8.7,1119.3,13.2,1122.5,18.1L1122.5,18.1z"/>
			</g>
		</g>
		<g>
			<g>
				<path d="M1123.3,16.1c4.4,6.8,8.5,13.8,12.4,21c2.7,5.1,10.5,0.6,7.8-4.5c-3.9-7.2-8-14.1-12.4-21
					C1127.9,6.7,1120.2,11.2,1123.3,16.1L1123.3,16.1z"/>
			</g>
		</g>
		<g>
			<g>
				<path d="M1118.9-3.8c0.1,2.3,0.1,4.5,0.2,6.8c0.1,2.4,2,4.6,4.5,4.5c2.4-0.1,4.6-2,4.5-4.5c-0.1-2.3-0.1-4.5-0.2-6.8
					c-0.1-2.4-2-4.6-4.5-4.5C1121-8.1,1118.8-6.3,1118.9-3.8L1118.9-3.8z"/>
			</g>
		</g>
		<g>
			<g>
				<path d="M1121.3,11.1c-0.4,7.9-0.3,15.7,0.5,23.5c2.9-0.4,5.9-0.8,8.8-1.2c-1.7-6.2-2.9-12.4-3.7-18.7c-0.7-5.7-9.6-5.8-9,0
					c0.7,7.2,1.8,14.3,3.1,21.4c1.1,5.8,9.4,3.2,8.7-2.4c-1.1-8.2-2.3-16.4-3.4-24.6c-0.7-5.4-8.4-3.5-8.8,1.2
					c-0.5,5.1-1,10.3-1.4,15.4c3,0,6,0,9,0c-0.4-13.3,0.3-26.5,2.3-39.7c-2.9-0.4-5.9-0.8-8.8-1.2c0.1,1.8,0.1,3.6,0.2,5.4
					c0.2,5.8,9.2,5.8,9,0c-0.1-1.8-0.1-3.6-0.2-5.4c-0.1-4.8-8.1-6.4-8.8-1.2c-2.1,14-3,28-2.6,42.1c0.2,5.9,8.5,5.7,9,0
					c0.5-5.1,1-10.3,1.4-15.4c-2.9,0.4-5.9,0.8-8.8,1.2c1.1,8.2,2.3,16.4,3.4,24.6c2.9-0.8,5.8-1.6,8.7-2.4
					c-1.2-6.3-2.2-12.6-2.8-19c-3,0-6,0-9,0c0.8,7.1,2.1,14.2,4,21.1c1.3,4.7,9.3,4,8.8-1.2c-0.8-7.8-0.9-15.6-0.5-23.5
					C1130.5,5.3,1121.5,5.3,1121.3,11.1L1121.3,11.1z"/>
			</g>
		</g>
		<g>
			<g>
				<path d="M1125.9,22.6c1.5-8,3.3-15.9,4.3-24c0.7-5.7-8.3-5.7-9,0c-0.9,7.3-2.6,14.4-3.9,21.6
					C1116.3,25.8,1124.8,28.3,1125.9,22.6L1125.9,22.6z"/>
			</g>
		</g>
		<g>
			<g>
				<path d="M1115.9-43.7c0.1,15.8,0.1,31.6-0.1,47.3c-0.1,5.8,8.9,5.8,9,0c0.2-15.8,0.2-31.6,0.1-47.3
					C1124.9-49.5,1115.9-49.5,1115.9-43.7L1115.9-43.7z"/>
			</g>
		</g>
		<g>
			<g>
				<path d="M1117-23.2c-0.7,14.2,0.1,29.5-4.4,43.2c-1.8,5.5,6.9,7.9,8.7,2.4c4.7-14.5,4-30.6,4.7-45.6
					C1126.3-29,1117.3-29,1117-23.2L1117-23.2z"/>
			</g>
		</g>
		<g>
			<g>
				<path d="M1114-23.7c-0.8,13.8-1.7,27.6-2.7,41.4c-0.4,5.8,8.6,5.8,9,0c1-13.8,1.9-27.6,2.7-41.4
					C1123.4-29.5,1114.4-29.4,1114-23.7L1114-23.7z"/>
			</g>
		</g>
		<g>
			<g>
				<path d="M1114.5-37.7c-0.4,6-0.8,12-1.2,18c-0.4,5.8,8.6,5.8,9,0c0.4-6,0.8-12,1.2-18C1123.9-43.5,1114.9-43.4,1114.5-37.7
					L1114.5-37.7z"/>
			</g>
		</g>
		<g>
			<g>
				<path d="M1114.4-28c-0.4,12.6,0.4,25.8-2.1,38.2c-1.2,5.7,7.5,8.1,8.7,2.4c2.7-13.2,2-27.2,2.4-40.6
					C1123.7-33.7,1114.7-33.7,1114.4-28L1114.4-28z"/>
			</g>
		</g>
		<g>
			<g>
				<path d="M1112.8-22.1c-1.3,12.6,0,25.4-1.8,37.9c-0.8,5.7,7.9,8.1,8.7,2.4c1.9-13.4,0.7-26.9,2.1-40.3
					C1122.3-27.7,1113.3-27.7,1112.8-22.1L1112.8-22.1z"/>
			</g>
		</g>
		<g>
			<g>
				<path d="M1113.7-15.2c-2.8,4.1-2.4,10-2.8,14.8c-0.6,5.9-1.1,11.9-1.7,17.8c-0.5,5.8,8.5,5.7,9,0c0.4-4.7,0.9-9.4,1.3-14.1
					c0.4-3.9-0.3-10.7,1.9-14C1124.7-15.5,1116.8-20,1113.7-15.2L1113.7-15.2z"/>
			</g>
		</g>
		<g>
			<g>
				<path d="M1118.8-3.9c0.3,7.4-0.7,14.8,0.8,22.1c1.2,5.7,9.9,3.3,8.7-2.4c-1.4-6.5-0.2-13.2-0.5-19.7
					C1127.7-9.6,1118.7-9.6,1118.8-3.9L1118.8-3.9z"/>
			</g>
		</g>
		<g>
			<g>
				<path d="M1116.3-24.1c0.9,4.9,1.6,9.8,2.1,14.8c0.5,5.7,9.5,5.8,9,0s-1.3-11.5-2.4-17.2C1124-32,1115.3-29.7,1116.3-24.1
					L1116.3-24.1z"/>
			</g>
		</g>
		<g>
			<g>
				<path d="M1115.9-20.7c1.9,11.4,3,22.9,3.4,34.4c0.2,5.8,9.2,5.8,9,0c-0.5-12.3-1.7-24.6-3.7-36.8
					C1123.7-28.8,1114.9-26.3,1115.9-20.7L1115.9-20.7z"/>
			</g>
		</g>
		<g>
			<g>
				<path d="M1118.5-4.3c0.6,6.7,0.7,13.5,0.4,20.3c-0.3,5.8,8.7,5.8,9,0c0.3-6.8,0.2-13.5-0.4-20.3C1127-10,1118-10,1118.5-4.3
					L1118.5-4.3z"/>
			</g>
		</g>
		<g>
			<g>
				<path d="M1116.3-19.1c0.7,3.6,1.3,7.2,1.8,10.8c0.3,2.4,1.9,4.5,4.5,4.5c2.2,0,4.8-2.1,4.5-4.5c-0.5-4.4-1.2-8.8-2.1-13.2
					C1123.8-27.2,1115.3-24.7,1116.3-19.1L1116.3-19.1z"/>
			</g>
		</g>
		<g>
			<g>
				<path d="M1121-2c0.5,4.9,0.7,9.8,0.6,14.7c-0.1,5.8,8.9,5.8,9,0c0.1-4.9-0.1-9.8-0.6-14.7c-0.2-2.4-1.9-4.5-4.5-4.5
					C1123.3-6.5,1120.8-4.4,1121-2L1121-2z"/>
			</g>
		</g>
		<g>
			<g>
				<path d="M1116.9-23.1c1.2,4.3,2.2,8.6,3,13c0.4,2.4,3.3,3.7,5.5,3.1c2.5-0.7,3.6-3.1,3.1-5.5c-0.8-4.4-1.8-8.7-3-13
					C1124-31,1115.3-28.7,1116.9-23.1L1116.9-23.1z"/>
			</g>
		</g>
		<g>
			<g>
				<path d="M1119.5-3c0.2,4.3,0.3,8.6,0.3,13c0,5.8,9,5.8,9,0c0-4.3-0.1-8.6-0.3-13C1128.3-8.6,1119.3-8.8,1119.5-3L1119.5-3z"/>
			</g>
		</g>
		<g>
			<g>
				<path d="M1117.9-22.7c0.5,4.1,0.9,8.1,1.2,12.2c0.2,2.4,1.9,4.5,4.5,4.5c2.3,0,4.7-2.1,4.5-4.5c-0.3-4.1-0.7-8.2-1.2-12.2
					c-0.3-2.4-1.9-4.5-4.5-4.5C1120.3-27.2,1117.8-25.1,1117.9-22.7L1117.9-22.7z"/>
			</g>
		</g>
		<g>
			<g>
				<path d="M1120.9-1c0.7,4.5,1.5,9.1,2.2,13.6c0.4,2.4,3.4,3.7,5.5,3.1c2.5-0.7,3.5-3.1,3.1-5.5c-0.7-4.5-1.5-9.1-2.2-13.6
					c-0.4-2.4-3.4-3.7-5.5-3.1C1121.5-5.8,1120.5-3.5,1120.9-1L1120.9-1z"/>
			</g>
		</g>
		<g>
			<g>
				<path d="M1117-44.2c0.9,10.7,1.8,21.3,2.7,32c0.5,5.7,9.5,5.8,9,0c-0.9-10.7-1.8-21.3-2.7-32C1125.7-50,1116.7-50,1117-44.2
					L1117-44.2z"/>
			</g>
		</g>
		<g>
			<g>
				<path d="M1118.8-36.2c5.8,0,5.8-9,0-9S1113-36.2,1118.8-36.2L1118.8-36.2z"/>
			</g>
		</g>
		<g>
			<g>
				<path d="M1119.5-40.5c5.8,0,5.8-9,0-9C1113.8-49.5,1113.8-40.5,1119.5-40.5L1119.5-40.5z"/>
			</g>
		</g>
		<g>
			<g>
				<path d="M1119.8-43.7c5.8,0,5.8-9,0-9S1114-43.7,1119.8-43.7L1119.8-43.7z"/>
			</g>
		</g>
		<g>
			<g>
				<path d="M1119.8-45.5c5.8,0,5.8-9,0-9S1114-45.5,1119.8-45.5L1119.8-45.5z"/>
			</g>
		</g>
		<g>
			<g>
				<path d="M1138.3,32.8c1.4,0,1.5-2.3,0-2.3S1136.8,32.8,1138.3,32.8L1138.3,32.8z"/>
			</g>
		</g>
		<g>
			<g>
				<path d="M1138.3,31.3c0.5,0.2,1,0.6,1.3,1c0.8,1.2,2.7,0.1,1.9-1.1c-0.6-1-1.5-1.7-2.6-2.1c-0.6-0.2-1.2,0.2-1.4,0.8
					C1137.3,30.6,1137.8,31.2,1138.3,31.3L1138.3,31.3z"/>
			</g>
		</g>
		<g>
			<g>
				<path d="M1139,28.8c0.3,0.9,0.8,1.7,1.4,2.5c0.4,0.5,1.2,0.4,1.6,0c0.5-0.5,0.4-1.1,0-1.6c-0.4-0.4-0.7-1-0.8-1.5
					c-0.2-0.6-0.8-1-1.4-0.8C1139.3,27.7,1138.8,28.3,1139,28.8L1139,28.8z"/>
			</g>
		</g>
		<g>
			<g>
				<path d="M1139.5,28.8c1.7,1.6,3.5,3,5.4,4.3c1.2,0.8,2.3-1.1,1.1-1.9c-1.7-1.2-3.4-2.5-4.9-3.9
					C1140,26.3,1138.4,27.8,1139.5,28.8L1139.5,28.8z"/>
			</g>
		</g>
		<g>
			<g>
				<path d="M1101.3,26.2c-1.9,1.9-3.9,3.6-6.1,5.1c-1.2,0.8-0.1,2.8,1.1,1.9c2.3-1.6,4.5-3.4,6.5-5.5
					C1103.9,26.8,1102.3,25.2,1101.3,26.2L1101.3,26.2z"/>
			</g>
		</g>
		<g>
			<g>
				<path d="M1101.8,26.1c-1.4-0.3-2.2,0.6-3.2,1.5c-1.2,1-2.3,2-3.5,2.9c-1.1,0.9,0.5,2.5,1.6,1.6c0.8-0.7,1.6-1.3,2.4-2
					c0.4-0.3,0.7-0.6,1.1-0.9c0.1-0.1,0.9-0.9,1-0.9C1102.7,28.6,1103.3,26.3,1101.8,26.1L1101.8,26.1z"/>
			</g>
		</g>
		<g>
			<g>
				<path d="M1122.2-49.7c0.2,2.3-0.1,4.6,0.4,6.9c0.3,1.4,2.5,0.8,2.2-0.6c-0.4-2.1-0.1-4.2-0.3-6.3
					C1124.3-51.2,1122-51.2,1122.2-49.7L1122.2-49.7z"/>
			</g>
		</g>
		<g>
			<g>
				<path d="M1122.4-50c0.1,1.5,0.2,3.1,0.4,4.6c0.1,1.4,2.4,1.4,2.3,0c-0.1-1.5-0.2-3.1-0.4-4.6C1124.5-51.4,1122.3-51.4,1122.4-50
					L1122.4-50z"/>
			</g>
		</g>
		<g>
			<g>
				<path d="M1118.8-72.9c0.3,4.6,0.6,9.1-1.3,13.5c0.7,0.3,1.4,0.6,2.1,0.9c0.5-2.3,0.8-4.6,0.9-7c-0.8,0-1.5,0-2.3,0
					c0,2.8,0.4,6-1.2,8.6c0.7,0.2,1.4,0.4,2.1,0.6c-0.3-2.7,1-5.2,1-7.9c0-1.2-2-1.6-2.2-0.3c-0.3,2.1-0.6,4.2-0.9,6.3
					c0.7,0.1,1.5,0.2,2.2,0.3c1-7.6,1.9-15.3,2.7-23c0.2-1.4-2.1-1.4-2.3,0c-0.8,7.7-1.7,15.3-2.7,23c-0.2,1.2,2,1.6,2.2,0.3
					c0.3-2.1,0.6-4.2,0.9-6.3c-0.7-0.1-1.5-0.2-2.2-0.3c0,2.8-1.3,5.1-1,7.9c0.1,1.1,1.5,1.6,2.1,0.6c1.8-3,1.4-6.3,1.5-9.7
					c0-1.5-2.2-1.4-2.3,0c-0.1,2.2-0.3,4.2-0.8,6.4c-0.3,1.2,1.5,2.1,2.1,0.9c2-4.8,2-9.5,1.6-14.6
					C1120.8-74.3,1118.7-74.3,1118.8-72.9L1118.8-72.9z"/>
			</g>
		</g>
		<g>
			<g>
				<path d="M1119.4-77c0.2,2.8,0.3,5.6,0.5,8.4c0.1,1.4,2.3,1.4,2.3,0c-0.2-2.8-0.3-5.6-0.5-8.4C1121.7-78.4,1119.3-78.4,1119.4-77
					L1119.4-77z"/>
			</g>
		</g>
		<g>
			<g>
				<path d="M1119.4-76.5c0.4,3.4,0.7,6.7,1,10.1c0.1,1.4,2.4,1.4,2.3,0c-0.2-3.4-0.6-6.8-1-10.1C1121.4-78,1119.3-78,1119.4-76.5
					L1119.4-76.5z"/>
			</g>
		</g>
		<g>
			<g>
				<path d="M1119.8-73.5c0.3,4.5,0.6,9,0.6,13.4c0.8,0,1.5,0,2.3,0c0-0.2,0-0.5,0-0.7c-0.1-1.4-2.3-1.4-2.3,0c0,0.2,0,0.5,0,0.7
					c0.1,1.4,2.3,1.5,2.3,0c-0.1-4.5-0.3-9-0.6-13.4C1122-74.9,1119.8-74.9,1119.8-73.5L1119.8-73.5z"/>
			</g>
		</g>
		<g>
			<g>
				<path d="M1119.8-66.8c0.3,2.4,0.7,4.9,1.1,7.3c0.2,1.4,2.4,0.8,2.2-0.6c-0.4-2.4-0.8-4.8-1.1-7.3
					C1121.8-68.8,1119.7-68.1,1119.8-66.8L1119.8-66.8z"/>
			</g>
		</g>
		<g>
			<g>
				<path d="M1120.2-67.5c0.2,2.6,0.3,5.3,0.5,7.9c0.1,1.4,2.3,1.4,2.3,0c-0.2-2.6-0.3-5.3-0.5-7.9
					C1122.3-68.9,1120-68.9,1120.2-67.5L1120.2-67.5z"/>
			</g>
		</g>
		<g>
			<g>
				<path d="M1121-67.4c0,2.6,0.2,5.2,0.4,7.8c0.1,1.4,2.4,1.4,2.3,0c-0.2-2.6-0.3-5.2-0.4-7.8C1123.3-68.8,1121-68.8,1121-67.4
					L1121-67.4z"/>
			</g>
		</g>
		<g>
			<g>
				<path d="M1121.5-80.5c0.3-0.5,0.4-1,0.4-1.6c0-1.4-2.3-1.5-2.3,0c0,0.2,0,0.3-0.1,0.4C1118.8-80.4,1120.8-79.3,1121.5-80.5
					L1121.5-80.5z"/>
			</g>
		</g>
		<g>
			<g>
				<path d="M1120.8-82c1.4,0,1.5-2.3,0-2.3C1119.4-84.3,1119.3-82,1120.8-82L1120.8-82z"/>
			</g>
		</g>
		<g>
			<g>
				<path d="M1117.4-56.9c-0.3,1.5-0.7,2.9-1,4.4c0.7,0.2,1.4,0.4,2.2,0.6c0.2-1,0.3-2,0.2-3.1c-0.1-1.1-1.5-1.6-2.1-0.6
					s-0.8,2-0.3,3.1c0.3,0.8,1.2,1.1,1.9,0.5c2-1.7,2.3-4.6,2.5-7.1c-0.8,0-1.5,0-2.3,0c-0.1,2.3,0,4.6,0.1,6.9
					c0.1,1.4,2.2,1.5,2.3,0c0.2-3.1,0.1-6.2,0.1-9.3c-0.8,0-1.5,0-2.3,0c0.1,3.5,0.4,7,0.7,10.5c0.1,1,1.5,1.6,2.1,0.6
					c0.7-1.3,0.7-2.9,0.8-4.4c0.1-2.1,0.2-4.1,0.1-6.2c0-1.4-2.3-1.5-2.3,0c0,3.3,0,6.6,0,10c0.8,0,1.5,0,2.3,0c0-0.2,0-0.4,0-0.7
					c0-1.4-2.3-1.5-2.3,0c0,0.2,0,0.4,0,0.7c0,1.4,2.3,1.5,2.3,0c0-3.3,0-6.6,0-10c-0.8,0-1.5,0-2.3,0c0,1.5,0,3.1-0.1,4.6
					c-0.1,1.4,0.1,3.5-0.6,4.8c0.7,0.2,1.4,0.4,2.1,0.6c-0.3-3.5-0.6-7-0.7-10.5c-0.1-1.4-2.3-1.5-2.3,0c0,3.1,0.1,6.2-0.1,9.3
					c0.8,0,1.5,0,2.3,0c-0.2-2.3-0.2-4.6-0.1-6.9c0.1-1.5-2.2-1.4-2.3,0c-0.1,1.9-0.3,4.2-1.8,5.5c0.6,0.2,1.3,0.3,1.9,0.5
					c0-0.5,0.1-0.9,0.1-1.4c-0.7-0.2-1.4-0.4-2.1-0.6c0.1,0.9,0,1.6-0.2,2.5c-0.3,1.4,1.9,2,2.2,0.6c0.3-1.5,0.7-2.9,1-4.4
					C1119.9-57.7,1117.8-58.2,1117.4-56.9L1117.4-56.9z"/>
			</g>
		</g>
		<g>
			<g>
				<path d="M1120.3-60.9c0.3,3.1,0.6,6.2,0.9,9.3c0.8,0,1.5,0,2.3,0c-0.2-1.5-0.2-2.9-0.1-4.4c0.1-1.4-2.2-1.4-2.3,0
					c-0.1,1.5,0,2.9,0.1,4.4c0.2,1.4,2.4,1.5,2.3,0c-0.3-3.1-0.6-6.2-0.9-9.3C1122.4-62.3,1120.3-62.3,1120.3-60.9L1120.3-60.9z"/>
			</g>
		</g>
		<g>
			<g>
				<path d="M1120.9-60.9c0.1,3.4,0.3,6.8,0.6,10.1c0.1,1.4,2.4,1.4,2.3,0c-0.3-3.4-0.5-6.7-0.6-10.1
					C1123.2-62.3,1120.9-62.3,1120.9-60.9L1120.9-60.9z"/>
			</g>
		</g>
		<g>
			<g>
				<path d="M1121.3-61.9c-0.1,4.1,0.1,8.2,0.6,12.3c0.2,1.4,2.4,1.4,2.3,0c-0.5-4.1-0.7-8.2-0.6-12.3
					C1123.5-63.3,1121.3-63.3,1121.3-61.9L1121.3-61.9z"/>
			</g>
		</g>
		<g>
			<g>
				<path d="M1121.5-61.6c0.7,4.7,1,9.4,0.9,14.1c0,1.4,2.2,1.4,2.3,0c0.1-4.9-0.3-9.8-1-14.7C1123.5-63.6,1121.3-63,1121.5-61.6
					L1121.5-61.6z"/>
			</g>
		</g>
		<g>
			<g>
				<path d="M1121.3-59.9c1.3,4.3,1,8.9,1.6,13.4c0.2,1.4,2.4,0.8,2.2-0.6c-0.7-4.5-0.3-9-1.6-13.4
					C1123-61.9,1120.9-61.3,1121.3-59.9L1121.3-59.9z"/>
			</g>
		</g>
		<g>
			<g>
				<path d="M1121.7-60.5c0.6,5.1,1,10.2,1.1,15.4c0,1.4,2.3,1.5,2.3,0c-0.1-5.1-0.5-10.3-1.1-15.4C1123.8-62,1121.4-62,1121.7-60.5
					L1121.7-60.5z"/>
			</g>
		</g>
		<g>
			<g>
				<path d="M1121.5-60.5c0.1,4.3,0.6,8.6,1.4,12.9c0.3,1.4,2.4,0.8,2.2-0.6c-0.8-4.1-1.2-8.2-1.4-12.3
					C1123.8-61.9,1121.5-62,1121.5-60.5L1121.5-60.5z"/>
			</g>
		</g>
		<g>
			<g>
				<path d="M1121.9-60.4c0.6,3.7,1,7.4,1.1,11.2c0,1.4,2.3,1.5,2.3,0c-0.1-4-0.5-7.9-1.1-11.8C1123.8-62.5,1121.8-61.9,1121.9-60.4
					L1121.9-60.4z"/>
			</g>
		</g>
		<g>
			<g>
				<path d="M1125.5-46.9c-0.8-6.1-1.9-12.1-3.3-18c-0.3-1.4-2.5-0.8-2.2,0.6c1.4,5.7,2.5,11.5,3.2,17.4
					C1123.4-45.5,1125.7-45.5,1125.5-46.9L1125.5-46.9z"/>
			</g>
		</g>
		<g>
			<g>
				<path d="M1126.3-45c-0.9-3.9-1.7-7.9-2.3-11.8c-0.2-1.4-2.4-0.8-2.2,0.6c0.6,4,1.3,7.9,2.3,11.8
					C1124.4-43,1126.7-43.7,1126.3-45L1126.3-45z"/>
			</g>
		</g>
		<g>
			<g>
				<path d="M1126.4-42.9c-0.8-6.2-1.9-12.4-3.3-18.5c-0.3-1.4-2.5-0.8-2.2,0.6c1.4,5.9,2.5,11.9,3.2,17.9
					C1124.3-41.5,1126.7-41.5,1126.4-42.9L1126.4-42.9z"/>
			</g>
		</g>
		<g>
			<g>
				<path d="M1125.2-7.8c0.5,2.3,0.9,4.6,1.3,7c0.2,1.4,2.4,0.8,2.2-0.6c-0.3-2.4-0.7-4.7-1.3-7C1126.9-9.8,1124.8-9.1,1125.2-7.8
					L1125.2-7.8z"/>
			</g>
		</g>
		<g>
			<g>
				<path d="M1126.4-11.3c0.2,2.8,0.4,5.7,0.6,8.5c0.1,1.4,2.3,1.4,2.3,0c-0.2-2.8-0.4-5.7-0.6-8.5
					C1128.7-12.8,1126.3-12.8,1126.4-11.3L1126.4-11.3z"/>
			</g>
		</g>
		<g>
			<g>
				<path d="M1126.9-12.5c-0.1,3.8,0.3,7.5,1.5,11.2c0.4,1.4,2.6,0.8,2.2-0.6c-1.1-3.5-1.5-7-1.4-10.6
					C1129.3-13.8,1127-13.8,1126.9-12.5L1126.9-12.5z"/>
			</g>
		</g>
		<g>
			<g>
				<path d="M1127.2-12c-0.4,5.6-0.2,11.1,0.5,16.6c0.2,1.4,2.4,1.4,2.3,0c-0.7-5.5-0.9-11.1-0.5-16.6
					C1129.5-13.3,1127.3-13.3,1127.2-12L1127.2-12z"/>
			</g>
		</g>
		<g>
			<g>
				<path d="M1127-12.1c0.4,5,0.6,10.1,0.7,15.1c0,1.4,2.3,1.5,2.3,0c-0.1-5-0.3-10.1-0.7-15.1C1129.3-13.6,1126.9-13.6,1127-12.1
					L1127-12.1z"/>
			</g>
		</g>
		<g>
			<g>
				<path d="M1127.3-10.8c0.2,3.7,0.7,7.4,1.4,11.1c0.3,1.4,2.4,0.8,2.2-0.6c-0.7-3.5-1.1-6.9-1.3-10.5
					C1129.5-12.3,1127.3-12.3,1127.3-10.8L1127.3-10.8z"/>
			</g>
		</g>
		<g>
			<g>
				<path d="M1127.2-11.6c0.3,3.9,0.7,7.8,1.2,11.6c0.2,1.4,2.4,1.4,2.3,0c-0.5-3.9-0.9-7.7-1.2-11.6
					C1129.3-13.1,1127-13.1,1127.2-11.6L1127.2-11.6z"/>
			</g>
		</g>
		<polygon class="st6" points="1122.3,-88.5 1118.8,-88.4 1117.2,-91.3 1118.8,-94.1 1122,-94.3 1123.8,-91.4 		"/>
		<g>
			<g>
				<path d="M1120.4-90.3c1.4,0,1.5-2.3,0-2.3C1119-92.5,1119-90.3,1120.4-90.3L1120.4-90.3z"/>
			</g>
		</g>
		<g>
			<g>
				<path d="M1119-92L1119-92c0.1-0.1,0.2-0.2,0.3-0.4c0.1,0,0.1-0.1,0.2-0.1c0.2,0,0.4,0,0.6,0c0.1,0,0.1,0.1,0.2,0.1
					c0.1,0.2,0.2,0.3,0.3,0.5c0,0.1,0,0.2,0,0.2c-0.7,0-1.4,0-2.2,0c0.1,0.5,0.2,1.1,0.4,1.6c0.6-0.4,1.1-0.8,1.7-1.3
					c-0.1-0.1-0.2-0.2-0.4-0.2c-0.2,0.7-0.4,1.4-0.6,2.1c-0.1-0.1-0.1,0,0,0s0.1,0.1,0.2,0.1c0.2,0.1,0.3,0.2,0.4,0.2
					c0.4,0.2,0.8,0.3,1.3,0.1c0.8-0.2,1.4-1.1,1.1-2c-0.2-0.5-0.7-0.9-1.2-0.8s-1,0.5-1,1.1c0,0.2,0,0.4,0.1,0.5
					c0.1,0.7,0.7,1.3,1.4,1.1c0.6-0.1,1-0.6,1.1-1.1c0.2-0.9-0.6-1.6-1.4-1.4s-1.6,0.7-1.6,1.6s0.7,1.6,1.6,1.5s1.3-0.9,1.5-1.7
					c0.1-0.4,0.2-0.8,0.2-1.2c0-0.2,0-0.3,0-0.5c0-0.1,0-0.2,0-0.3c-0.1-0.2-0.1-0.2,0-0.1c-0.1,0.3-0.2,0.5-0.3,0.8
					c0,0,0,0,0.1-0.1c-0.4,0.1-0.7,0.2-1.1,0.3c0,0,0,0,0.1,0c-0.3-0.3-0.5-0.5-0.8-0.8c0,0,0,0,0,0.1c0-0.2,0-0.4,0-0.6l0,0
					c0.5-0.3,0.9-0.5,1.4-0.8l0,0c-0.6-0.1-1.2,0.2-1.4,0.8c-0.2,0.5,0.2,1.3,0.8,1.4l0,0c0.6,0.1,1.3-0.2,1.4-0.8
					c0.1-0.6-0.1-1.3-0.8-1.5c-0.6-0.2-1.2,0.1-1.4,0.7c-0.3,0.6,0.3,1.8-0.2,2.3c0.2-0.1,0.3-0.2,0.5-0.3h-0.1c0.2,0,0.4,0,0.6,0
					c0.1,0,0.1,0.1,0.2,0.1c0.1,0.2,0.2,0.3,0.3,0.5c0.2,0.5-0.6,0.7-0.1,0.6c-0.5-0.5-0.9-0.9-1.4-1.4l0,0c0.1-0.1,0.3-0.3,0.4-0.4
					l0,0c0.5,0.4,0.9,0.7,1.4,1.1c0-0.2,0-0.4-0.1-0.5c-0.7,0.1-1.5,0.2-2.2,0.3l0,0c0.1-0.2,0.1-0.4,0.2-0.6s1,0,0.4-0.3
					c-0.1-0.1-0.2-0.2-0.4-0.2c-0.3-0.2-0.7-0.3-1-0.3c-1.2-0.1-1.4,1.5-0.6,2.1c0.1,0.1,0.2,0.2,0.4,0.2c0.9,0.6,1.9-0.4,1.7-1.3
					c-0.1-0.5-0.2-1.1-0.4-1.6c-0.3-1.2-1.8-1-2.2,0c-0.3,0.8,0.2,1.7,1,1.9c0.8,0.2,1.6-0.3,1.9-1.1
					C1121.7-92.6,1119.5-93.3,1119-92L1119-92z"/>
			</g>
		</g>
		<g>
			<g>
				<path d="M1122.4-90.3c1.4,0,1.5-2.3,0-2.3C1121-92.5,1121-90.3,1122.4-90.3L1122.4-90.3z"/>
			</g>
		</g>
		<g>
			<g>
				<path d="M1122-93.5c0.1,0,0.4,0.4,0.3,0.5c0.4-1.4-1.7-2-2.2-0.6c-0.3,1,0.3,2,1.2,2.2C1122.8-91,1123.4-93,1122-93.5L1122-93.5
					z"/>
			</g>
		</g>
		<g>
			<g>
				<path d="M1119.8-91c-0.3,0-0.1,0.1,0.5,0.2c0,0,0,0-0.1-0.1c0.1,0,0.1,0.2,0-0.1c-0.1-0.2-0.2-0.3-0.2-0.5
					c-0.3-0.5-0.8-0.9-1.4-0.9c-1.4,0.1-1.5,2.3,0,2.3c-0.2,0-0.5-0.1-0.5-0.3l0.1,0.2c0.1,0.2,0.2,0.3,0.2,0.5
					c0.3,0.5,0.8,0.9,1.4,0.8s1.1-0.5,1.1-1.1C1120.8-90.4,1120.3-91,1119.8-91L1119.8-91z"/>
			</g>
		</g>
		<g>
			<g>
				<path d="M1119.8-91.8c1.4,0,1.5-2.3,0-2.3C1118.3-94,1118.3-91.8,1119.8-91.8L1119.8-91.8z"/>
			</g>
		</g>
		<g>
			<g>
				<path d="M1119.7-91.8c1.4,0,1.5-2.3,0-2.3C1118.2-94,1118.2-91.8,1119.7-91.8L1119.7-91.8z"/>
			</g>
		</g>
		<g>
			<g>
				<path d="M1118.8-91.5c1.4,0,1.5-2.3,0-2.3C1117.4-93.8,1117.3-91.5,1118.8-91.5L1118.8-91.5z"/>
			</g>
		</g>
		<g>
			<g>
				<path d="M1118.8-90.9c1.4,0,1.5-2.3,0-2.3C1117.4-93,1117.3-90.9,1118.8-90.9L1118.8-90.9z"/>
			</g>
		</g>
		<g>
			<g>
				<path d="M1118.4-90.5c1.4,0,1.5-2.3,0-2.3C1117-92.8,1117-90.5,1118.4-90.5L1118.4-90.5z"/>
			</g>
		</g>
		<g>
			<g>
				<path d="M1118.3-90c1.4,0,1.5-2.3,0-2.3S1116.8-90,1118.3-90L1118.3-90z"/>
			</g>
		</g>
		<g>
			<g>
				<path d="M1119.4-91.3c1.4,0,1.5-2.3,0-2.3C1118-93.5,1118-91.3,1119.4-91.3L1119.4-91.3z"/>
			</g>
		</g>
		<g>
			<g>
				<path d="M1119.4-92c1.4,0,1.5-2.3,0-2.3C1118-94.4,1118-92,1119.4-92L1119.4-92z"/>
			</g>
		</g>
		<g>
			<g>
				<path d="M1120.4-92c1.4,0,1.5-2.3,0-2.3C1119-94.4,1119-92,1120.4-92L1120.4-92z"/>
			</g>
		</g>
		<g>
			<g>
				<path d="M1119.7-88.3c1.4,0,1.5-2.3,0-2.3C1118.2-90.5,1118.2-88.3,1119.7-88.3L1119.7-88.3z"/>
			</g>
		</g>
		<g>
			<g>
				<path d="M1118.8-89c1.4,0,1.5-2.3,0-2.3C1117.4-91.3,1117.3-89,1118.8-89L1118.8-89z"/>
			</g>
		</g>
		<g>
			<g>
				<path d="M1122.3-90c1.4,0,1.5-2.3,0-2.3S1120.8-90,1122.3-90L1122.3-90z"/>
			</g>
		</g>
		<g>
			<g>
				<path d="M1122.7-90.4c1.4,0,1.5-2.3,0-2.3C1121.2-92.5,1121.2-90.4,1122.7-90.4L1122.7-90.4z"/>
			</g>
		</g>
		<g>
			<g>
				<path d="M1121.3-91.5c1.4,0,1.5-2.3,0-2.3S1119.8-91.5,1121.3-91.5L1121.3-91.5z"/>
			</g>
		</g>
		<g>
			<g>
				<path d="M1120.8-91.5c1.4,0,1.5-2.3,0-2.3S1119.3-91.5,1120.8-91.5L1120.8-91.5z"/>
			</g>
		</g>
		<g>
			<g>
				<path d="M1121.7-91.4c1.4,0,1.5-2.3,0-2.3C1120.2-93.5,1120.2-91.4,1121.7-91.4L1121.7-91.4z"/>
			</g>
		</g>
		<g>
			<g>
				<path d="M1121.8-91.4c1.4,0,1.5-2.3,0-2.3C1120.3-93.5,1120.3-91.4,1121.8-91.4L1121.8-91.4z"/>
			</g>
		</g>
	</g>
	<g id="Layer_2">
		<g>
			<g>
				<path d="M655.3-28.8c-0.8,4.9-1.2,9.9-1.2,14.9c0.1,5.8,9.1,5.8,9,0c0-4.2,0.2-8.3,0.8-12.5c0.4-2.4-0.6-4.8-3.1-5.5
					C658.8-32.5,655.8-31.2,655.3-28.8L655.3-28.8z"/>
			</g>
		</g>
		<rect x="159.9" y="531.1" class="st6" width="57" height="136"/>
		
			<rect x="160.2" y="515.6" transform="matrix(-1 -4.581794e-003 4.581794e-003 -1 376.4922 1183.5237)" width="58.9" height="151.5"/>
		<rect x="1360.5" y="385.1" width="79.3" height="282.1"/>
	</g>
</g>
<g id="Layer_2_1_" class="st7">
	<rect x="842.7" y="52.4" class="st8" width="39.3" height="20.5"/>
	<rect x="842.7" y="108.3" class="st8" width="39.3" height="20.5"/>
	<rect x="842.7" y="166.8" class="st8" width="39.3" height="20.5"/>
	<rect x="930.2" y="52.4" class="st8" width="39.3" height="20.5"/>
	<rect x="930.2" y="108.3" class="st8" width="39.3" height="20.5"/>
	<rect x="930.2" y="166.8" class="st8" width="39.3" height="20.5"/>
	<rect x="842.7" y="-119.5" class="st8" width="39.3" height="20.5"/>
	<rect x="842.7" y="-63.5" class="st8" width="39.3" height="20.5"/>
	<rect x="842.7" y="-5" class="st9" width="39.3" height="20.5"/>
	<rect x="930.2" y="-119.5" class="st8" width="39.3" height="20.5"/>
	<rect x="930.2" y="-63.5" class="st8" width="39.3" height="20.5"/>
	<rect x="930.2" y="-5" class="st9" width="39.3" height="20.5"/>
	<rect x="1219.7" y="153.8" class="st9" width="39.3" height="20.5"/>
	<rect x="1219.7" y="207.5" class="st8" width="39.3" height="20.5"/>
	<rect x="1219.7" y="266" class="st8" width="39.3" height="20.5"/>
	<rect x="1307.2" y="155.3" class="st9" width="39.3" height="20.5"/>
	<rect x="1307.2" y="211.2" class="st9" width="39.3" height="20.5"/>
	<rect x="1307.2" y="266" class="st8" width="39.3" height="20.5"/>
	<rect x="1219.7" y="-20.3" class="st8" width="39.3" height="20.5"/>
	<rect x="1219.7" y="35.6" class="st8" width="39.3" height="20.5"/>
	<rect x="1219.7" y="95.3" class="st9" width="39.3" height="20.5"/>
	<rect x="1307.2" y="-20.3" class="st8" width="39.3" height="20.5"/>
	<rect x="1307.2" y="35.6" class="st8" width="39.3" height="20.5"/>
	<rect x="1307.2" y="95.3" class="st9" width="39.3" height="20.5"/>
	<rect x="842.7" y="166.7" class="st8" width="39.3" height="20.5"/>
	<rect x="842.7" y="222.6" class="st8" width="39.3" height="20.5"/>
	<rect x="930.2" y="166.7" class="st8" width="39.3" height="20.5"/>
	<rect x="930.2" y="222.6" class="st8" width="39.3" height="20.5"/>
	<rect x="842.7" y="224.1" class="st8" width="39.3" height="20.5"/>
	<rect x="842.7" y="280" class="st9" width="39.3" height="20.5"/>
	<rect x="842.7" y="338.5" class="st9" width="39.3" height="20.5"/>
	<rect x="930.2" y="224.1" class="st8" width="39.3" height="20.5"/>
	<rect x="930.2" y="280" class="st8" width="39.3" height="20.5"/>
	<rect x="930.2" y="338.5" class="st8" width="39.3" height="20.5"/>
	<rect x="842.7" y="52.2" class="st8" width="39.3" height="20.5"/>
	<rect x="842.7" y="108.2" class="st8" width="39.3" height="20.5"/>
	<rect x="842.7" y="166.7" class="st8" width="39.3" height="20.5"/>
	<rect x="930.2" y="52.2" class="st8" width="39.3" height="20.5"/>
	<rect x="930.2" y="108.2" class="st8" width="39.3" height="20.5"/>
	<rect x="930.2" y="166.7" class="st9" width="39.3" height="20.5"/>
	<rect x="521.7" y="308.7" class="st8" width="39.3" height="20.5"/>
	<rect x="521.7" y="364.7" class="st8" width="39.3" height="20.5"/>
	<rect x="609.2" y="308.7" class="st8" width="39.3" height="20.5"/>
	<rect x="609.2" y="364.7" class="st9" width="39.3" height="20.5"/>
	<rect x="521.7" y="136.8" class="st8" width="39.3" height="20.5"/>
	<rect x="521.7" y="192.8" class="st9" width="39.3" height="20.5"/>
	<rect x="521.7" y="251.3" class="st8" width="39.3" height="20.5"/>
	<rect x="609.2" y="136.8" class="st8" width="39.3" height="20.5"/>
	<rect x="609.2" y="192.8" class="st8" width="39.3" height="20.5"/>
	<rect x="609.2" y="251.3" class="st8" width="39.3" height="20.5"/>
	<rect x="433.7" y="252.8" class="st8" width="39.3" height="20.5"/>
	<rect x="433.7" y="308.7" class="st9" width="39.3" height="20.5"/>
	<rect x="433.7" y="367.2" class="st9" width="39.3" height="20.5"/>
	<rect x="433.7" y="80.9" class="st8" width="39.3" height="20.5"/>
	<rect x="433.7" y="136.8" class="st8" width="39.3" height="20.5"/>
	<rect x="433.7" y="195.4" class="st8" width="39.3" height="20.5"/>
	<rect x="1481.4" y="337.4" class="st8" width="39.3" height="20.5"/>
	<rect x="1481.4" y="338.5" class="st8" width="39.3" height="20.5"/>
	<rect x="1481.4" y="221.5" class="st9" width="39.3" height="20.5"/>
	<rect x="1481.4" y="280" class="st9" width="39.3" height="20.5"/>
	<rect x="1109.7" y="269.7" class="st8" width="39.3" height="20.5"/>
	<rect x="1109.7" y="325.7" class="st8" width="39.3" height="20.5"/>
	<rect x="1109.7" y="153.8" class="st8" width="39.3" height="20.5"/>
	<rect x="1109.7" y="153.8" class="st8" width="39.3" height="20.5"/>
	<rect x="1109.7" y="212.4" class="st9" width="39.3" height="20.5"/>
	<rect x="1219.7" y="327.1" class="st8" width="39.3" height="20.5"/>
	<rect x="1307.2" y="327.1" class="st8" width="39.3" height="20.5"/>
</g>
<polygon points="448.6,110.6 396.9,110.6 371,72.4 396.9,34.1 448.6,34.1 474.5,72.3 "/>
<rect x="388.6" y="67.8" class="st1" width="68.3" height="47.7"/>
<g id="Layer_2_2_">
	<g>
		<g>
			<path d="M-545.7-27.8c-0.8,4.9-1.2,9.9-1.2,14.9c0.1,5.8,9.1,5.8,9,0c0-4.2,0.2-8.3,0.8-12.5c0.4-2.4-0.6-4.8-3.1-5.5
				C-542.3-31.5-545.3-30.2-545.7-27.8L-545.7-27.8z"/>
		</g>
	</g>
	<rect x="-1041.2" y="532.1" class="st6" width="57" height="136"/>
	
		<rect x="-1040.8" y="516.6" transform="matrix(-1 -4.581794e-003 4.581794e-003 -1 -2025.3248 1180.0221)" width="58.9" height="151.5"/>
	<rect x="159.5" y="386.1" width="79.3" height="282.1"/>
</g>
</svg>
