<?xml version="1.0" encoding="utf-8"?>
<!-- Generator: Adobe Illustrator 19.0.0, SVG Export Plug-In . SVG Version: 6.00 Build 0)  -->
<svg version="1.1" id="Layer_1" xmlns="http://www.w3.org/2000/svg" xmlns:xlink="http://www.w3.org/1999/xlink" x="0px" y="0px"
	 viewBox="160 -104 1280 768" style="enable-background:new 160 -104 1280 768;" xml:space="preserve">
<style type="text/css">
	.st0{stroke:#0065FF;stroke-miterlimit:10;}
	.st1{fill:none;}
	.st2{fill:none;stroke:#000000;stroke-width:3;stroke-miterlimit:10;}
	.st3{stroke:#000000;stroke-miterlimit:10;}
	.st4{fill:none;stroke:#000000;stroke-miterlimit:10;}
	.st5{fill:none;stroke:#000000;stroke-width:0.75;stroke-miterlimit:10;}
	.st6{stroke:#000000;stroke-width:0.25;stroke-miterlimit:10;}
	.st7{fill:#FFFFFF;}
	.st8{fill:#FFEE3F;}
	.st9{fill:#FFE900;}
</style>
<g id="Layer_1_2_">
	<g id="Layer_1_1_">
		<g transform="translate(0.000000,768.000000) scale(0.100000,-0.100000)">
			<path class="st0" d="M13918.4,2887.9l-3,1858l-500,6c-275,3-508,2-517-3c-17-8-18-44-18-548v-540h-167c-93,0-174-4-182-9
				s-16-32-19-65l-4-56h-37c-69-1-115-17-146-53l-30-35v785c0,765,0,785-19,799c-14,10-49,14-116,14h-97l-6,872
				c-4,479-7,1008-7,1174c0,290-1,304-19,314c-13,6-184,10-487,10h-467l-199-35c-109-19-207-41-218-47c-24-15-25-44-6-143
				c8-38,13-71,12-73c-2-1-54-11-117-23c-149-26-177-36-185-62c-4-12-5-267-3-567l4-545l-65-3c-35-2-70-8-77-14c-10-8-13-103-13-444
				c0-283-3-434-10-434c-6,0-10,56-10,149c0,113-3,151-14,160c-9,8-153,10-517,9l-504-3l-3-397l-2-398h-200v1517l-21,19
				c-20,18-36,19-260,16l-239-4v1066c0,1053,0,1066-20,1086s-33,20-567,19l-548-1l-206-38c-113-21-216-43-227-49c-27-14-28-46-6-161
				c8-45,14-83,12-85c-2-1-70-14-152-29c130.8,36.9-78.6-11.9-167-37c-19.4-5.5-19-42-19-906v-896l-114,6c-136,8-146,3-146-74
				c0-45-2-49-23-49c-38,0-57-30-57-88v-52h-57c-67,0-117-21-147-63c-21-28-21-36-24-963c-2-817-4-934-17-934c-12,0-15,14-15,59
				c0,38-5,63-14,70c-10,8-95,11-300,9l-286-3l-2,740c-3,616-5,745-17,768c-20,39-68,65-134,73l-57,7v51c0,29-5,57-12,64
				c-8,8-64,12-185,12h-172l-3,653c-0.9,181.7-1.6,313.1-2.7,409.1c-5.6,1.5-10.7,4.2-15.3,7.6c-1.1-1.6-2.5-3-3.8-4.3
				c-23.7-32.6-86.1-25.2-81.2,23.1c8.4,82.5,21.6,164.5,23.5,247.4c-10.3,13.6-13.6,31-7.4,46.2c-0.5,1.1-1,2.2-1.5,3.4
				c-16.5,5.7-35.9,9.4-59.5,11.5l-60,6v59c0,54-2,59-26,68c-14,6-140,10-282,10c-304,0-302,0-302-84v-53l-71-5c-49-4-79-12-97-25
				c-57-42-57-36-60-570l-3-493h-124c-143,0-145-1-145-91c0-35-3-50-10-43c-5,5-11,90-12,189l-3,180l-508,3l-507,2l-10-26
				c-6-16-10-602-10-1614v-1589l-97-3l-98-3l-3-988l-2-987h11750L13918.4,2887.9z"/>
		</g>
		<line class="st1" x1="684.5" y1="-24" x2="684.1" y2="-45.7"/>
		<line class="st2" x1="684.3" y1="-46.7" x2="699.7" y2="-44.9"/>
		<g>
			<g>
				<path d="M675.2-34.9c5.8,0,5.8-9,0-9C669.4-43.9,669.4-34.9,675.2-34.9L675.2-34.9z"/>
			</g>
		</g>
		<g>
			<g>
				<path d="M671.8-39.4c0.2,4.9-1.4,10.3-2.2,15.1c-0.4,2.4,0.6,4.8,3.1,5.5c2.1,0.6,5.2-0.7,5.5-3.1c0.9-5.6,2.7-11.9,2.5-17.5
					C680.6-45.2,671.6-45.2,671.8-39.4L671.8-39.4z"/>
			</g>
		</g>
		<g>
			<g>
				<path d="M679.3-30.7c-1.1,3.5-2.6,6.8-4.4,10.1c-2.8,5.1,4.9,9.6,7.8,4.5c2.2-3.9,4-8,5.3-12.2
					C689.8-33.9,681.1-36.2,679.3-30.7L679.3-30.7z"/>
			</g>
		</g>
		<g>
			<g>
				<path d="M681.7-35.2c-0.7,4.2-1.4,8.4-2,12.7c-0.4,2.4,0.6,4.8,3.1,5.5c2.1,0.6,5.2-0.7,5.5-3.1c0.6-4.2,1.3-8.4,2-12.7
					c0.4-2.4-0.6-4.8-3.1-5.5C685-38.9,682.1-37.6,681.7-35.2L681.7-35.2z"/>
			</g>
		</g>
		<g>
			<g>
				<path d="M690.1-33.9c-3.4,2.1-6.8,3.6-10.6,4.6c-5.6,1.5-3.2,10.2,2.4,8.7c4.5-1.2,8.8-3.1,12.8-5.5
					C699.6-29.3,695.1-37.1,690.1-33.9L690.1-33.9z"/>
			</g>
		</g>
		<g>
			<g>
				<path d="M689-38.9c-4-2.5-9.6,0.7-13.3,2.5c-2.2,1.1-2.8,4.2-1.6,6.2c1.3,2.2,4,2.7,6.2,1.6c0.9-0.5,1.9-0.9,2.9-1.3
					c0.6-0.2,1.2-0.4,1.7-0.6c0.2-0.1,0.4-0.1,0.6-0.2c1-0.2,0.7-0.3-1-0.3C689.3-28,693.9-35.9,689-38.9L689-38.9z"/>
			</g>
		</g>
		<g>
			<g>
				<path d="M688.3-45.2c-6.3,1.4-12.2,3.4-18.1,6c-5.3,2.3-0.7,10.1,4.5,7.8c5.1-2.2,10.5-3.9,15.9-5.1
					C696.3-37.9,693.9-46.6,688.3-45.2L688.3-45.2z"/>
			</g>
		</g>
		<g>
			<g>
				<path d="M688.8-47.6c-5-2.1-10-0.5-14.8,1.3c-2.3,0.8-3.8,3-3.1,5.5c0.6,2.2,3.2,4,5.5,3.1c1.6-0.6,3.2-1.2,4.8-1.6
					c0.7-0.2,1.4-0.4,2.1-0.4c0.4,0,1.9,0.3,0.9-0.1c2.2,1,4.8,0.7,6.2-1.6C691.5-43.4,691-46.7,688.8-47.6L688.8-47.6z"/>
			</g>
		</g>
		<g>
			<g>
				<path d="M677.4-39.4c2.5-0.9,4.8-1.9,7.4-2.5c2.7-0.6,5.2-1.4,7.6-2.5c-1.8-2.4-3.6-4.7-5.5-7.1c-0.8,0.6-1.7,1-2.6,1.4
					c-2.2,1-2.7,4.2-1.6,6.2c1.4,2.3,3.9,2.6,6.2,1.6c1.6-0.7,3-1.7,4.4-2.8c1.7-1.4,1.6-4.3,0.4-5.9c-1.5-1.9-3.7-2.1-5.8-1.2
					c-2,0.9-4.3,1.3-6.4,1.8c-2.3,0.6-4.3,1.5-6.5,2.3C669.6-46.2,671.9-37.4,677.4-39.4L677.4-39.4z"/>
			</g>
		</g>
		<g>
			<g>
				<path d="M685.8-50.2c-15.1,0.9-21.4,15-23.5,28.1c2.9,0.4,5.9,0.8,8.8,1.2c0.4-5.5,0.9-11,1.3-16.5c0.4-4.3-6.6-6.3-8.4-2.3
					c-2.8,6.2-5,12.6-6.5,19.3c-1.3,5.8,6.6,7.7,8.7,2.4c2.1-5.2,2.4-10.2,1.6-15.7c-0.6-4.5-7.7-4.1-8.7,0
					c-0.4,1.7-0.6,2.9-0.5,4.7c0,5.8,9,5.8,9,0c0.1-0.8,0.2-1.5,0.2-2.3c-2.9,0-5.8,0-8.7,0c0.5,3.8-0.2,7.4-1.6,10.9
					c2.9,0.8,5.8,1.6,8.7,2.4c1.3-5.9,3.1-11.6,5.6-17.2c-2.8-0.8-5.6-1.5-8.4-2.3c-0.4,5.5-0.9,11-1.3,16.5c-0.4,5,8,6.2,8.8,1.2
					c1.4-8.5,4.3-20.9,14.8-21.5C691.6-41.4,691.6-50.4,685.8-50.2L685.8-50.2z"/>
			</g>
		</g>
		<path class="st3" d="M654.1-15.4c0.1-1.9,0.1-3.9-0.2-5.8"/>
		<path class="st3" d="M654.3-17.7c-1-13,0.5-26,3.8-38.6c7.8-0.7,15.6-0.7,23.5-0.7c18,0,35.9-0.1,53.9-0.1"/>
		<g>
			<g>
				<path d="M675.6-26.9c-1.5-4.9,0.7-10.2-0.7-15.3c-1-3.5-6.5-4.7-8.2-1.1c-1.6,3.3-2.8,6.7-3.5,10.3c2.9,0.4,5.9,0.8,8.8,1.2
					c0.4-5.3,0.7-10.4,0.2-15.7c-0.5-4.9-7.2-6.2-8.8-1.2c-1.8,5.6-3.4,11.3-4.8,17.1c2.9,0.4,5.9,0.8,8.8,1.2
					c-0.7-5.4-0.8-10.7-0.5-16.1c0.2-5-8.1-6.3-8.8-1.2c-1.5,10.1-3.3,20.2-5.3,30.2c2.9,0.4,5.9,0.8,8.8,1.2
					c0.1-1.7,0.2-3.4,0.3-5.2c-3,0-6,0-9,0c0.5,13.1,0,26.8,2.8,39.6c1.3,5.7,9.9,3.3,8.7-2.4c-2.7-12-2-25-2.5-37.2
					c-0.2-5.8-8.7-5.8-9,0c-0.1,1.7-0.2,3.4-0.3,5.2c-0.2,5,7.8,6.2,8.8,1.2c2-10,3.8-20.1,5.3-30.2c-2.9-0.4-5.9-0.8-8.8-1.2
					c-0.2,5.4-0.2,10.8,0.5,16.1c0.6,4.6,7.5,6.6,8.8,1.2c1.4-5.8,3-11.4,4.8-17.1c-2.9-0.4-5.9-0.8-8.8-1.2
					c0.5,5.3,0.2,10.4-0.2,15.7c-0.4,5,7.9,6.2,8.8,1.2c0.6-2.9,1.3-5.5,2.6-8.2c-2.7-0.4-5.5-0.7-8.2-1.1c1.4,5-0.9,10.2,0.7,15.3
					C668.6-19,677.3-21.4,675.6-26.9L675.6-26.9z"/>
			</g>
		</g>
		<g>
			<g>
				<path d="M663.9,17.1c-0.6-11.3-1.4-22.7-1.5-34c-0.1-5.4,0-10.9,0.2-16.3c0.3-5.8,0.4-12.3,2.1-17.8c-0.7,0.9-1.4,1.8-2.1,2.7
					c1.1-0.7,4.7,0.2,6,0.2c3,0.2,5.9,0.3,8.9,0.4c5.6,0.2,11.2,0.4,16.7,0.6c11.2,0.3,22.3,0.3,33.5,0.1c5.8-0.1,5.8-9.1,0-9
					c-12.8,0.2-25.6,0.1-38.4-0.3c-6.2-0.2-12.5-0.4-18.7-0.7c-4.4-0.2-11.3-2-14.1,2.5c-2.4,3.8-2.1,11.2-2.5,15.6
					c-0.5,6-0.7,12.1-0.7,18.2c0,12.6,0.9,25.2,1.6,37.9C655.3,22.7,664.3,22.9,663.9,17.1L663.9,17.1z"/>
			</g>
		</g>
		<g>
			<g>
				<path d="M729.8-57.9c-19.7,0.2-39.4,0.4-59.2,0.6c-5.8,0.1-5.8,9.1,0,9c19.7-0.2,39.4-0.4,59.2-0.6
					C735.6-48.9,735.6-57.9,729.8-57.9L729.8-57.9z"/>
			</g>
		</g>
		<g>
			<g>
				<path d="M668.8-46.9c0.1,2.1,0.4,4.3,1.1,6.3c1.4,4.3,7.3,4.3,8.7,0c0.7-2,1.3-4.4,1.2-6.5c-0.1-3.9-4.6-5.9-7.8-3.9
					c-1.8,1.1-3.2,3.6-4.1,5.5c-1.1,2.5-1.4,4.9-0.9,7.6c0.4,2.4,3.4,3.7,5.5,3.1c2.5-0.7,3.6-3.1,3.1-5.5c0.1,0.6,0.1-0.8,0-0.2
					c0.1-0.5,0.2-0.9,0.4-1.2c0.2-0.5,0.5-0.9,0.8-1.4c0.4-0.6,1.6-1.5,0-0.5c-0.8,0.2-1.5,0.4-2.3,0.6c0.1,0,0.3,0,0.4,0
					c-1.1-0.4-2.1-0.9-3.2-1.3c0.1,0.1,0.2,0.2,0.3,0.2c-0.4-1.1-0.9-2.1-1.3-3.2c0.1,1.3-0.4,2.8-0.9,4.1c2.9,0,5.8,0,8.7,0
					c-0.4-1.4-0.7-2.6-0.8-3.9c-0.1-2.4-2-4.5-4.5-4.5C671-51.4,668.7-49.4,668.8-46.9L668.8-46.9z"/>
			</g>
		</g>
		<g>
			<g>
				<path d="M662.4-10.5c-1.2-13.7-0.9-27.5,1-41.1c0.8-5.7-7.9-8.1-8.7-2.4c-2,14.5-2.6,28.9-1.3,43.5
					C653.9-4.7,662.9-4.7,662.4-10.5L662.4-10.5z"/>
			</g>
		</g>
		<g>
			<g>
				<path d="M446.3,57.9c2,1.5,4,3.1,5.9,4.6c1,0.8,1.9,1.6,3,2.3c0.9,0.5,1.9,0.8,2.6,1.2c5,3,9.5-4.8,4.5-7.8
					c-1.6-1-2.8-1.4-4.3-2.6c-1.8-1.4-3.5-2.8-5.3-4.2c-1.9-1.5-4.5-1.9-6.4,0C444.7,53.1,444.4,56.4,446.3,57.9L446.3,57.9z"/>
			</g>
		</g>
		<g>
			<g>
				<path d="M446.9,53.6c3.4,4,6.8,8,10.3,12c3.9,4.3,10.2-2,6.4-6.4c-3.5-3.9-6.9-7.9-10.3-12c-1.6-1.9-4.8-1.6-6.4,0
					C445,49.1,445.3,51.8,446.9,53.6L446.9,53.6z"/>
			</g>
		</g>
		<g>
			<g>
				<path d="M387.7,64.8c3.3-5.9,9.7-9.3,13.6-14.8c3.3-4.8-4.5-9.3-7.8-4.5c-3.9,5.6-10.2,8.7-13.6,14.8
					C377.1,65.3,384.9,69.8,387.7,64.8L387.7,64.8z"/>
			</g>
		</g>
		<g>
			<g>
				<path d="M380,68.9c2.8-2.1,5.8-4,8.9-5.7c5.1-2.8,0.6-10.5-4.5-7.8c-3.1,1.7-6.1,3.6-8.9,5.7c-1.9,1.5-2.9,3.9-1.6,6.2
					C375,69.3,378,70.4,380,68.9L380,68.9z"/>
			</g>
		</g>
		<g>
			<g>
				<path d="M380.5,69.4c3.5-3.5,7-7,11.3-9.5c5-3,0.5-10.7-4.5-7.8c-4.9,2.9-9,6.9-13.1,10.9C370,67.3,376.4,73.5,380.5,69.4
					L380.5,69.4z"/>
			</g>
		</g>
		<g>
			<g>
				<path d="M400.6,51.3c0.2-0.1,0.3-0.2,0.5-0.3c-0.6,0.3-0.7,0.3-0.3,0.1c0.3-0.1,0.5-0.2,0.8-0.3c0.6-0.2,1.3-0.4,2-0.5
					c2.3-0.4,3.8-3.4,3.1-5.5c-0.8-2.5-3.1-3.6-5.5-3.1c-1.8,0.3-3.5,1-5.2,1.8c-2.1,1-2.9,4.2-1.6,6.2
					C395.9,51.8,398.4,52.4,400.6,51.3L400.6,51.3z"/>
			</g>
		</g>
		<g>
			<g>
				<path d="M392.5,43.6c-4.7,2.3-8,6.3-10,11.1c-0.9,2.2,1,4.9,3.1,5.5c2.6,0.7,4.6-0.9,5.5-3.1c1-2.3,3.2-4.4,5.9-5.7
					c2.2-1,2.8-4.2,1.6-6.2C397.3,42.9,394.7,42.6,392.5,43.6L392.5,43.6z"/>
			</g>
		</g>
		<g>
			<g>
				<path d="M399.7,42.9c-7.3,0.9-12.2,4.9-17.2,10c-4.9,5-9.4,10.2-11.2,17.1c-1.5,5.6,7.2,8,8.7,2.4c1.3-4.9,4.4-8.4,7.8-12
					c3.3-3.4,7-7.9,11.9-8.5C405.4,51.1,405.5,42.1,399.7,42.9L399.7,42.9z"/>
			</g>
		</g>
		<g>
			<g>
				<path d="M382.8,76.9c1.1-9.8,6.1-18.4,13.4-24.8c4.4-3.8-2-10.2-6.4-6.4c-9.2,8.1-14.6,19-16,31.2
					C373.1,82.5,382.1,82.5,382.8,76.9L382.8,76.9z"/>
			</g>
		</g>
		<g>
			<g>
				<path d="M390.8,77.8c-0.2-6.9,2.8-13.3,8.5-17.3c4.7-3.3,0.2-11.1-4.5-7.8c-8.3,5.7-13.2,14.9-12.9,25
					C381.9,83.7,390.9,83.7,390.8,77.8L390.8,77.8z"/>
			</g>
		</g>
		<g>
			<g>
				<path d="M383.6,72.7c-0.4-3.9,2.5-7.9,4.3-11.2c1.9-3.5,3.9-7,6-10.3c3.2-4.9-4.6-9.4-7.8-4.5c-2.8,4.3-5.3,8.8-7.6,13.3
					c-2.1,4-4.5,8.1-3.9,12.7C375.3,78.3,384.3,78.4,383.6,72.7L383.6,72.7z"/>
			</g>
		</g>
		<g>
			<g>
				<path d="M390.6,55.9c0-0.4,0.1-0.7,0.1-1.1c0.1-1.1-0.6-2.5-1.3-3.2c-0.8-0.8-2.1-1.4-3.2-1.3c-1.2,0.1-2.4,0.4-3.2,1.3
					c-0.2,0.3-0.5,0.6-0.7,0.9c-0.4,0.7-0.6,1.5-0.6,2.3c0,0.4-0.1,0.7-0.1,1.1c-0.1,1.1,0.6,2.5,1.3,3.2c0.8,0.8,2.1,1.4,3.2,1.3
					c1.2-0.1,2.4-0.4,3.2-1.3c0.2-0.3,0.5-0.6,0.7-0.9C390.4,57.6,390.6,56.8,390.6,55.9L390.6,55.9z"/>
			</g>
		</g>
		<g>
			<g>
				<path d="M387.7,85.7c8.5-9.9,23.5-8.3,35.3-7.7c13.9,0.7,30.2,3,38.4,15.6c3.2,4.8,11,0.3,7.8-4.5c-9.8-15-27.6-18.9-44.4-19.9
					c-14.7-0.9-32.8-2.1-43.4,10.2C377.6,83.7,384,90.1,387.7,85.7L387.7,85.7z"/>
			</g>
		</g>
		<g>
			<g>
				<path d="M453.6,55.8c3.6,2.9,6.3,6.4,8.3,10.6c1.1,2.2,4.2,2.8,6.2,1.6c2.2-1.3,2.7-4,1.6-6.2c-2.3-4.8-5.6-9.1-9.7-12.4
					c-1.9-1.5-4.5-1.8-6.4,0C452,50.9,451.7,54.1,453.6,55.8L453.6,55.8z"/>
			</g>
		</g>
		<g>
			<g>
				<path d="M461,65.2l0.1,0.1c-0.3-0.2-0.6-0.5-0.9-0.7c0.8,0.6,1.6,1.4,2.2,2.2c0.7,0.8,2.1,1.3,3.2,1.3s2.4-0.5,3.2-1.3
					c0.8-0.9,1.4-2,1.3-3.2c-0.1-0.4-0.1-0.8-0.2-1.2c-0.2-0.8-0.6-1.4-1.2-2c-1-1.2-2.1-2.1-3.3-3c-0.9-0.7-2.5-0.7-3.5-0.5
					c-1,0.3-2.2,1.1-2.7,2.1c-0.6,1-0.8,2.3-0.5,3.5c0.2,0.4,0.3,0.7,0.5,1.1C459.8,64.3,460.3,64.8,461,65.2L461,65.2z"/>
			</g>
		</g>
		<g>
			<g>
				<path d="M459.1,68.4c-1.2-0.9-0.6,1.3-0.6,2.2c0,1.9-0.1,3.9-0.1,5.8c-0.1,3.6-0.1,7.2-0.2,10.9c-0.1,5.8,8.9,5.8,9,0
					c0.1-5.6,0.2-11.1,0.2-16.7c0-4.2-0.4-7.3-3.9-10C459.1,57.1,454.6,64.9,459.1,68.4L459.1,68.4z"/>
			</g>
		</g>
		<g>
			<g>
				<path d="M459.9,70.9c0.7,7.8,0.6,15.5-0.4,23.2c-0.7,5.7,8.3,5.7,9,0c1-7.7,1.1-15.5,0.4-23.2C468.4,65.2,459.4,65,459.9,70.9
					L459.9,70.9z"/>
			</g>
		</g>
		<g>
			<g>
				<path d="M462.2,68.3c-0.3,3.3-0.2,6.6,0,10c0.2,2.4,1.9,4.5,4.5,4.5c2.3,0,4.7-2.1,4.5-4.5c-0.3-3.3-0.4-6.6,0-10
					c0.2-2.4-2.2-4.5-4.5-4.5C464,63.8,462.4,65.9,462.2,68.3L462.2,68.3z"/>
			</g>
		</g>
		<g>
			<g>
				<path d="M465.4,93.9c-0.3,5-0.7,10-1.3,15c-0.3,2.4,2.3,4.5,4.5,4.5c2.7,0,4.2-2.1,4.5-4.5c0.6-5,1-10,1.3-15
					C474.7,88,465.7,88,465.4,93.9L465.4,93.9z"/>
			</g>
		</g>
		<g>
			<g>
				<path d="M462.1,64.4c3.3,5.2,2.2,11.7,2.6,17.5c0.4,5.7,9.4,5.8,9,0c-0.6-7.6,0.4-15.4-3.9-22.1C466.8,54.9,459,59.4,462.1,64.4
					L462.1,64.4z"/>
			</g>
		</g>
		<g>
			<g>
				<path d="M464.1,77.8c0.3,5.5,0.2,11-0.6,16.4c-0.4,2.4,0.6,4.8,3.1,5.5c2.1,0.6,5.2-0.7,5.5-3.1c0.9-6.3,1.3-12.5,0.9-18.8
					C472.7,71.9,463.7,71.9,464.1,77.8L464.1,77.8z"/>
			</g>
		</g>
		<g>
			<g>
				<path d="M464.9,85.4c0.9,4.3,1.2,8.6,0.9,13.1c-0.3,5.8,8.7,5.8,9,0c0.3-5.2-0.2-10.3-1.2-15.4
					C472.4,77.4,463.7,79.8,464.9,85.4L464.9,85.4z"/>
			</g>
		</g>
		<g>
			<g>
				<path d="M465.7,80.4c0.4,6.2,0.3,12.4-0.3,18.6c-0.5,5.8,8.5,5.7,9,0c0.6-6.2,0.7-12.4,0.3-18.6
					C474.4,74.5,465.4,74.5,465.7,80.4L465.7,80.4z"/>
			</g>
		</g>
		<g>
			<g>
				<path d="M474.4,82.2c-0.8-3.3-1.2-6.6-1.3-9.9c-0.2-5.8-9.2-5.8-9,0c0.2,4.2,0.7,8.3,1.6,12.3C467.1,90.2,475.7,87.9,474.4,82.2
					L474.4,82.2z"/>
			</g>
		</g>
		<g>
			<g>
				<path d="M474.8,83.4c0.2-9.6,0-22.7-10.1-27.5c-5.2-2.4-9.8,5.3-4.5,7.8c6.6,3.1,5.8,13.5,5.6,19.7
					C465.6,89.3,474.6,89.3,474.8,83.4L474.8,83.4z"/>
			</g>
		</g>
		<line class="st4" x1="531.7" y1="228.4" x2="530.3" y2="212.9"/>
		<line class="st4" x1="531.3" y1="212.9" x2="507.3" y2="211.2"/>
		<line class="st4" x1="529.1" y1="228.4" x2="528.3" y2="229.7"/>
		<g>
			<g>
				<path d="M528,221.2c0-0.2,0.1-0.3,0.2-0.5c-0.2,0.4-0.3,0.7-0.5,1.1c0.2-0.4,0.3-0.7,0.6-1c-0.2,0.3-0.5,0.6-0.7,0.9
					c0.2-0.3,0.4-0.5,0.7-0.7c-0.3,0.2-0.6,0.5-0.9,0.7c0.3-0.2,0.5-0.4,0.8-0.5c-0.4,0.2-0.7,0.3-1.1,0.5c0.2-0.1,0.4-0.2,0.6-0.2
					c2.3-0.6,3.9-3.2,3.1-5.5s-3.1-3.8-5.5-3.1c-2.9,0.8-5.2,3.1-6,6c-0.6,2.3,0.8,5,3.1,5.5C524.8,224.9,527.3,223.5,528,221.2
					L528,221.2z"/>
			</g>
		</g>
		<g>
			<g>
				<path d="M526.4,223c5.8,0,5.8-9,0-9C520.6,214,520.6,223,526.4,223L526.4,223z"/>
			</g>
		</g>
		<g>
			<g>
				<path d="M521.5,219.2c4.3,0,4.4-6.8,0-6.8C517.2,212.5,517.1,219.2,521.5,219.2L521.5,219.2z"/>
			</g>
		</g>
		<g>
			<g>
				<path d="M522.5,219.2c4.3,0,4.4-6.8,0-6.8C518.2,212.4,518.1,219.2,522.5,219.2L522.5,219.2z"/>
			</g>
		</g>
		<g>
			<g>
				<path d="M523.8,219c4.3,0,4.4-6.8,0-6.8C519.4,212.2,519.4,219,523.8,219L523.8,219z"/>
			</g>
		</g>
		<g>
			<g>
				<path d="M520.9,218.7c4.3,0,4.4-6.8,0-6.8C516.5,212,516.5,218.7,520.9,218.7L520.9,218.7z"/>
			</g>
		</g>
		<g>
			<g>
				<path d="M518.9,218.5c4.3,0,4.4-6.8,0-6.8S514.5,218.5,518.9,218.5L518.9,218.5z"/>
			</g>
		</g>
		<g>
			<g>
				<path d="M526.5,221.2c4.3,0,4.4-6.8,0-6.8C522.2,214.4,522.1,221.2,526.5,221.2L526.5,221.2z"/>
			</g>
		</g>
		<g>
			<g>
				<path d="M526.5,220.7c4.3,0,4.4-6.8,0-6.8C522.2,213.9,522.1,220.7,526.5,220.7L526.5,220.7z"/>
			</g>
		</g>
		<g>
			<g>
				<path d="M526.6,220.5c4.3,0,4.4-6.8,0-6.8C522.3,213.7,522.3,220.5,526.6,220.5L526.6,220.5z"/>
			</g>
		</g>
		<g>
			<g>
				<path d="M526.6,220.4c4.3,0,4.4-6.8,0-6.8C522.3,213.7,522.3,220.4,526.6,220.4L526.6,220.4z"/>
			</g>
		</g>
		<g>
			<g>
				<path d="M526.8,220.2c4.3,0,4.4-6.8,0-6.8C522.4,213.4,522.4,220.2,526.8,220.2L526.8,220.2z"/>
			</g>
		</g>
		<g>
			<g>
				<path d="M526.8,220c4.3,0,4.4-6.8,0-6.8C522.4,213.2,522.4,220,526.8,220L526.8,220z"/>
			</g>
		</g>
		<g>
			<g>
				<path d="M526.8,219.7c4.3,0,4.4-6.8,0-6.8C522.4,212.9,522.4,219.7,526.8,219.7L526.8,219.7z"/>
			</g>
		</g>
		<g>
			<g>
				<path d="M527,219.7c4.3,0,4.4-6.8,0-6.8C522.7,212.9,522.6,219.7,527,219.7L527,219.7z"/>
			</g>
		</g>
		<g>
			<g>
				<path d="M527,219.4c4.3,0,4.4-6.8,0-6.8C522.7,212.7,522.6,219.4,527,219.4L527,219.4z"/>
			</g>
		</g>
		<g>
			<g>
				<path d="M527.1,219.2c4.3,0,4.4-6.8,0-6.8C522.8,212.5,522.8,219.2,527.1,219.2L527.1,219.2z"/>
			</g>
		</g>
		<g>
			<g>
				<path d="M527.3,219.2c4.3,0,4.4-6.8,0-6.8C522.9,212.5,522.9,219.2,527.3,219.2L527.3,219.2z"/>
			</g>
		</g>
		<g>
			<g>
				<path d="M527.5,219c4.3,0,4.4-6.8,0-6.8C523.2,212.2,523.1,219,527.5,219L527.5,219z"/>
			</g>
		</g>
		<line class="st5" x1="1107.7" y1="27" x2="1066" y2="27.1"/>
		<line class="st5" x1="1066" y1="27.1" x2="1059.3" y2="61.2"/>
		<line class="st5" x1="1066" y1="27.1" x2="1059.3" y2="27.1"/>
		<line class="st5" x1="1066" y1="27.1" x2="1059.3" y2="27.1"/>
		<line class="st5" x1="1059.3" y1="27.1" x2="1059.3" y2="58.3"/>
		<line class="st5" x1="1036.2" y1="68.4" x2="1036" y2="58.3"/>
		<line class="st5" x1="1036" y1="58.3" x2="1058" y2="58.3"/>
		<g>
			<g>
				<path d="M1041.8,73.2c5.8,0,5.8-9,0-9S1035.9,73.2,1041.8,73.2L1041.8,73.2z"/>
			</g>
		</g>
		<g>
			<g>
				<path d="M1041.3,73.2c5.8,0,5.8-9,0-9S1035.4,73.2,1041.3,73.2L1041.3,73.2z"/>
			</g>
		</g>
		<g>
			<g>
				<path d="M1040.8,73.2c5.8,0,5.8-9,0-9S1034.9,73.2,1040.8,73.2L1040.8,73.2z"/>
			</g>
		</g>
		<g>
			<g>
				<path d="M1040.3,73.2c5.8,0,5.8-9,0-9S1034.4,73.2,1040.3,73.2L1040.3,73.2z"/>
			</g>
		</g>
		<g>
			<g>
				<path d="M1041,68.9c5.8,0,5.8-9,0-9S1035.2,68.9,1041,68.9L1041,68.9z"/>
			</g>
		</g>
		<g>
			<g>
				<path d="M1041,68.2c5.8,0,5.8-9,0-9C1035.2,59.1,1035.2,68.2,1041,68.2L1041,68.2z"/>
			</g>
		</g>
		<g>
			<g>
				<path d="M1040.3,67.2c5.8,0,5.8-9,0-9C1034.5,58.1,1034.4,67.2,1040.3,67.2L1040.3,67.2z"/>
			</g>
		</g>
		<g>
			<g>
				<path d="M1051,67.4c5.8,0,5.8-9,0-9S1045.2,67.4,1051,67.4L1051,67.4z"/>
			</g>
		</g>
		<g>
			<g>
				<path d="M1049.8,66.9c5.8,0,5.8-9,0-9S1043.9,66.9,1049.8,66.9L1049.8,66.9z"/>
			</g>
		</g>
		<g>
			<g>
				<path d="M1047.3,66.9c5.8,0,5.8-9,0-9S1041.4,66.9,1047.3,66.9L1047.3,66.9z"/>
			</g>
		</g>
		<g>
			<g>
				<path d="M1044.8,66.9c5.8,0,5.8-9,0-9S1038.9,66.9,1044.8,66.9L1044.8,66.9z"/>
			</g>
		</g>
		<g>
			<g>
				<path d="M1054.5,66.9c5.8,0,5.8-9,0-9S1048.7,66.9,1054.5,66.9L1054.5,66.9z"/>
			</g>
		</g>
		<g>
			<g>
				<path d="M1069.6,60.9c0.9-8.3,2-16.7,3-25c0.7-5.7-8.3-5.7-9,0c-1,8.3-2.1,16.6-3,25C1060,66.7,1069,66.5,1069.6,60.9
					L1069.6,60.9z"/>
			</g>
		</g>
		<g>
			<g>
				<path d="M1071.1,66.5c-1.3-1.5-0.9-5.7-1-7.7c-0.3-2.7-0.5-5.5-0.6-8.3c-0.2-5.7,0.2-11.3,1.6-16.9c-1.4,1.1-2.9,2.2-4.3,3.3
					c13.8,0.2,27.7,0.4,41.5,0.7c5.8,0.1,5.8-8.9,0-9c-13.8-0.2-27.7-0.4-41.5-0.7c-1.9,0-3.9,1.4-4.3,3.3c-1.9,7.5-2.2,15.2-1.7,23
					c0.4,6,0,13.7,4.1,18.6C1068.4,77.4,1074.8,70.9,1071.1,66.5L1071.1,66.5z"/>
			</g>
		</g>
		<g>
			<g>
				<path d="M1107.3,26.9c-0.3,0-0.7,0-1,0c-1.2,0-2.4,0.5-3.2,1.3c-0.8,0.8-1.4,2.1-1.3,3.2c0.1,1.2,0.4,2.4,1.3,3.2s2,1.3,3.2,1.3
					c0.3,0,0.7,0,1,0c1.2,0,2.4-0.5,3.2-1.3c0.8-0.8,1.4-2.1,1.3-3.2c-0.1-1.2-0.4-2.4-1.3-3.2S1108.5,26.9,1107.3,26.9L1107.3,26.9
					z"/>
			</g>
		</g>
		<g>
			<g>
				<path d="M1102.5,27.1c-0.1,0-0.2,0-0.3,0c-1.2,0-2.4,0.5-3.2,1.3c-0.8,0.8-1.4,2.1-1.3,3.2c0.1,1.2,0.4,2.4,1.3,3.2
					s2,1.3,3.2,1.3c0.1,0,0.2,0,0.3,0c1.2,0,2.4-0.5,3.2-1.3c0.8-0.8,1.4-2.1,1.3-3.2c-0.1-1.2-0.4-2.4-1.3-3.2
					C1104.8,27.6,1103.7,27.1,1102.5,27.1L1102.5,27.1z"/>
			</g>
		</g>
		<g>
			<g>
				<path d="M1100.7,27.9c-6,0.1-11.9,0.3-17.8,1.1c-5.4,0.7-12.1,3.9-17.4,2.3c-2.9-0.9-5.6,1.5-5.7,4.3c-0.1,8.5-0.1,17,0.1,25.6
					c0.2,5.8,9.2,5.8,9,0c-0.2-8.5-0.3-17-0.1-25.6c-1.9,1.4-3.8,2.9-5.7,4.3c5.8,1.7,11-0.2,16.7-1.4c6.8-1.5,13.9-1.5,20.9-1.7
					C1106.5,36.8,1106.5,27.7,1100.7,27.9L1100.7,27.9z"/>
			</g>
		</g>
		<g>
			<g>
				<path d="M1101,26.6c-11.3-0.3-22.7,0.1-34,1c-5.7,0.5-5.8,9.5,0,9c11.3-0.9,22.6-1.2,34-1C1106.8,35.9,1106.8,26.9,1101,26.6
					L1101,26.6z"/>
			</g>
		</g>
		<g>
			<g>
				<path d="M1073.5,27.6c-2.4,0.1-4.8,0.2-7.2,0.3c-2.3,0.1-4.6,2-4.5,4.5c0.1,2.3,2,4.6,4.5,4.5c2.4-0.1,4.8-0.2,7.2-0.3
					c2.3-0.1,4.6-2,4.5-4.5C1077.9,29.8,1076,27.5,1073.5,27.6L1073.5,27.6z"/>
			</g>
		</g>
		<g>
			<g>
				<path d="M1072.5,28c-1.9-0.2-3.8-0.5-5.7-0.7c-2.3-0.3-4.6,2.3-4.5,4.5c0.1,2.7,2,4.2,4.5,4.5c1.9,0.2,3.8,0.5,5.7,0.7
					c2.3,0.3,4.6-2.3,4.5-4.5C1076.9,29.8,1075,28.3,1072.5,28L1072.5,28z"/>
			</g>
		</g>
		<g>
			<g>
				<path d="M1073.2,27.1c-1.9-0.2-3.9,0-5.7,0.6c-2.2,0.7-3.9,3.1-3.1,5.5c0.7,2.2,3.1,3.9,5.5,3.1c0.3-0.1,0.6-0.2,0.9-0.3
					c0.2-0.1,0.4-0.1,0.6-0.1c-0.6,0.1-0.7,0.1-0.4,0.1c0.7,0,1.4,0,2.1,0.1c1.1,0.1,2.5-0.6,3.2-1.3c0.8-0.8,1.4-2.1,1.3-3.2
					c-0.1-1.2-0.4-2.4-1.3-3.2C1075.5,27.6,1074.5,27.2,1073.2,27.1L1073.2,27.1z"/>
			</g>
		</g>
		<g>
			<g>
				<path d="M1059.1,36.4c-1.2,8,3.1,16.4,0.9,24.1c-1.6,5.6,7.1,8,8.7,2.4c2.4-8.4-2.1-15.9-0.9-24.1
					C1068.6,33.1,1060,30.6,1059.1,36.4L1059.1,36.4z"/>
			</g>
		</g>
		<g>
			<g>
				<path d="M1059,49.1c-0.5,5.2-0.2,10.3,0.5,15.4c0.3,2.4,3.4,3.7,5.5,3.1c2.6-0.7,3.5-3.1,3.1-5.5c-0.6-4.3-0.6-8.7-0.2-13
					c0.2-2.4-2.2-4.5-4.5-4.5C1060.9,44.6,1059.3,46.6,1059,49.1L1059,49.1z"/>
			</g>
		</g>
		<g>
			<g>
				<path d="M1059.3,43.1c-0.3,3.4-0.4,6.8-0.1,10.3c0.2,2.4,1.9,4.5,4.5,4.5c2.3,0,4.7-2.1,4.5-4.5c-0.3-3.4-0.2-6.8,0.1-10.3
					c0.2-2.4-2.2-4.5-4.5-4.5C1061.1,38.6,1059.5,40.6,1059.3,43.1L1059.3,43.1z"/>
			</g>
		</g>
		<g>
			<g>
				<path d="M1062.5,57.9c-1.7-0.3-3.4-0.5-5.2-0.3c-1.2,0.1-2.3,0.4-3.2,1.3c-0.8,0.8-1.4,2.1-1.3,3.2c0.1,2.3,2,4.7,4.5,4.5
					c1.1-0.1,2.3-0.1,3.4,0.1c-0.4-0.1-0.8-0.1-1.2-0.2c0.2,0,0.4,0.1,0.6,0.1c1.2,0.2,2.3,0.2,3.5-0.5c0.9-0.5,1.8-1.6,2.1-2.7
					C1066.1,61.4,1064.9,58.4,1062.5,57.9L1062.5,57.9z"/>
			</g>
		</g>
		<g>
			<g>
				<path d="M1041.5,66.9c5.8,0,5.8-9,0-9S1035.7,66.9,1041.5,66.9L1041.5,66.9z"/>
			</g>
		</g>
		<g>
			<g>
				<path d="M1039.8,66.9c5.8,0,5.8-9,0-9S1033.9,66.9,1039.8,66.9L1039.8,66.9z"/>
			</g>
		</g>
		<g>
			<g>
				<path d="M1040,75.9c5.8,0,5.8-9,0-9S1034.2,75.9,1040,75.9L1040,75.9z"/>
			</g>
		</g>
		<g>
			<g>
				<path d="M1040.5,74.7c5.8,0,5.8-9,0-9S1034.7,74.7,1040.5,74.7L1040.5,74.7z"/>
			</g>
		</g>
		<g>
			<g>
				<path d="M1040.5,74.2c5.8,0,5.8-9,0-9S1034.7,74.2,1040.5,74.2L1040.5,74.2z"/>
			</g>
		</g>
		<g>
			<g>
				<path d="M1040.5,73.2c5.8,0,5.8-9,0-9S1034.7,73.2,1040.5,73.2L1040.5,73.2z"/>
			</g>
		</g>
		<g>
			<g>
				<path d="M1064,38.1c5.8,0,5.8-9,0-9S1058.2,38.1,1064,38.1L1064,38.1z"/>
			</g>
		</g>
		<g>
			<g>
				<path d="M1064.5,35.9c5.8,0,5.8-9,0-9S1058.7,35.9,1064.5,35.9L1064.5,35.9z"/>
			</g>
		</g>
		<g>
			<g>
				<path d="M1063,36.4c5.8,0,5.8-9,0-9S1057.2,36.4,1063,36.4L1063,36.4z"/>
			</g>
		</g>
		<g>
			<g>
				<path d="M1063.5,38.1c5.8,0,5.8-9,0-9S1057.7,38.1,1063.5,38.1L1063.5,38.1z"/>
			</g>
		</g>
		<g>
			<g>
				<path d="M1063.5,39.9c5.8,0,5.8-9,0-9S1057.7,39.9,1063.5,39.9L1063.5,39.9z"/>
			</g>
		</g>
		<g>
			<g>
				<path d="M1063,35.9c5.8,0,5.8-9,0-9S1057.2,35.9,1063,35.9L1063,35.9z"/>
			</g>
		</g>
		<line class="st4" x1="1107.7" y1="27" x2="1120.7" y2="-93.5"/>
		<path class="st3" d="M1120.7-54.4c0.3,27.2,0.3,54.2,0,81.3"/>
		<path class="st3" d="M1120.7-93.5c0.3,11.3,0.3,22.3,0,33.3"/>
		<path class="st3" d="M1130.2-4.7c1.8,10.5,1.8,20.5,3.4,31.8"/>
		<path class="st3" d="M1125.1-52.2c1.5,12.9,3.1,25.9,4.2,38.9"/>
		<path class="st3" d="M1120.7-93.5c0.9,10.4,2,20.8,3.3,31.2"/>
		<polygon points="1130.9,42.6 1110.2,42.4 1100,25.2 1110.4,8.3 1131.1,8.5 1141.4,25.6 		"/>
		<g>
			<g>
				<path d="M1112.9,22.5c-1,2.5-2.4,5-4.1,7.1c2.5,1.5,5,2.9,7.5,4.4c0.7-3.3,1.4-6.7,2.1-10c-2.9-0.4-5.9-0.8-8.8-1.2
					c0,3.5-0.1,7.1-0.1,10.6c-0.1,5.9,8.4,5.6,9,0c0.8-7.5,2.7-14.7,5.4-21.8c-2.9-0.4-5.9-0.8-8.8-1.2c-0.4,6-2.1,11.6-5.1,16.8
					c2.7,0.4,5.5,0.7,8.2,1.1c-1.4-3.6,0-6.9,1.3-10.4c1.9-4.8-5.7-7.7-8.2-3.5c-1.5,2.6-3.2,5.2-4.9,7.7c-0.9,1.3-1.8,2.5-2.8,3.7
					c-0.4,0.4-0.7,0.9-1.1,1.3c-1.7,1.5-1.4,1.8,1,0.8c0.9,2.2,1.8,4.4,2.7,6.6c1.8-2.8,3.6-5.5,5.4-8.3c2.8-4.2-3.7-9.4-7.1-5.5
					c-1.9,2.2-3.8,4.4-5.7,6.7c2.4,1.8,4.7,3.6,7.1,5.5c4.4-7.1,9.1-14,13.9-20.8c3.4-4.7-4.4-9.2-7.8-4.5
					c-4.8,6.8-9.5,13.7-13.9,20.8c-2.7,4.3,3.7,9.4,7.1,5.5c1.9-2.2,3.8-4.4,5.7-6.7c-2.4-1.8-4.7-3.6-7.1-5.5
					c-1.8,2.8-3.6,5.5-5.4,8.3c-1.8,2.7,0.2,5.6,2.7,6.6c4.1,1.7,7.1-2.2,9.3-5c3.2-4,6.1-8.2,8.6-12.6c-2.7-1.2-5.5-2.3-8.2-3.5
					c-1.9,4.9-3.3,10-1.3,15.1c1.3,3.5,6.2,4.7,8.2,1.1c3.8-6.6,5.8-13.7,6.3-21.3c0.3-5.4-7.2-5.7-8.8-1.2
					c-2.9,7.8-4.7,15.9-5.7,24.2c3,0,6,0,9,0c0-3.5,0.1-7.1,0.1-10.6c0-5-7.8-6.3-8.8-1.2c-0.7,3.3-1.4,6.7-2.1,10
					c-0.8,3.9,4.5,8.2,7.5,4.4c2.7-3.5,4.8-7,6.4-11.1C1123.7,19.5,1115,17.1,1112.9,22.5L1112.9,22.5z"/>
			</g>
		</g>
		<g>
			<g>
				<path d="M1122.7,15.9c4.4,6.3,8.9,12.7,13.3,19c3.3,4.7,11.1,0.2,7.8-4.5c-4.4-6.3-8.9-12.7-13.3-19
					C1127.2,6.5,1119.4,11,1122.7,15.9L1122.7,15.9z"/>
			</g>
		</g>
		<g>
			<g>
				<path d="M1123.4,13.9c4.4,6.8,8.5,13.8,12.4,21c2.7,5.1,10.5,0.6,7.8-4.5c-3.9-7.2-8-14.1-12.4-21
					C1128.1,4.5,1120.3,9,1123.4,13.9L1123.4,13.9z"/>
			</g>
		</g>
		<g>
			<g>
				<path d="M1119.1-6c0.1,2.3,0.1,4.5,0.2,6.8c0.1,2.4,2,4.6,4.5,4.5c2.4-0.1,4.6-2,4.5-4.5c-0.1-2.3-0.1-4.5-0.2-6.8
					c-0.1-2.4-2-4.6-4.5-4.5C1121.2-10.3,1119-8.5,1119.1-6L1119.1-6z"/>
			</g>
		</g>
		<g>
			<g>
				<path d="M1121.4,8.9c-0.4,7.9-0.3,15.7,0.5,23.5c2.9-0.4,5.9-0.8,8.8-1.2c-1.7-6.2-2.9-12.4-3.7-18.7c-0.7-5.7-9.6-5.8-9,0
					c0.7,7.2,1.8,14.3,3.1,21.4c1.1,5.8,9.4,3.2,8.7-2.4c-1.1-8.2-2.3-16.4-3.4-24.6c-0.7-5.4-8.4-3.5-8.8,1.2
					c-0.5,5.1-1,10.3-1.4,15.4c3,0,6,0,9,0c-0.4-13.3,0.3-26.5,2.3-39.7c-2.9-0.4-5.9-0.8-8.8-1.2c0.1,1.8,0.1,3.6,0.2,5.4
					c0.2,5.8,9.2,5.8,9,0c-0.1-1.8-0.1-3.6-0.2-5.4c-0.1-4.8-8.1-6.4-8.8-1.2c-2.1,14-3,28-2.6,42.1c0.2,5.9,8.5,5.7,9,0
					c0.5-5.1,1-10.3,1.4-15.4c-2.9,0.4-5.9,0.8-8.8,1.2c1.1,8.2,2.3,16.4,3.4,24.6c2.9-0.8,5.8-1.6,8.7-2.4
					c-1.2-6.3-2.2-12.6-2.8-19c-3,0-6,0-9,0c0.8,7.1,2.1,14.2,4,21.1c1.3,4.7,9.3,4,8.8-1.2c-0.8-7.8-0.9-15.6-0.5-23.5
					C1130.7,3.1,1121.7,3.1,1121.4,8.9L1121.4,8.9z"/>
			</g>
		</g>
		<g>
			<g>
				<path d="M1126.1,20.4c1.5-8,3.3-15.9,4.3-24c0.7-5.7-8.3-5.7-9,0c-0.9,7.3-2.6,14.4-3.9,21.6C1116.4,23.6,1125,26.1,1126.1,20.4
					L1126.1,20.4z"/>
			</g>
		</g>
		<g>
			<g>
				<path d="M1116.1-45.9c0.1,15.8,0.1,31.6-0.1,47.3c-0.1,5.8,8.9,5.8,9,0c0.2-15.8,0.2-31.6,0.1-47.3
					C1125.1-51.7,1116.1-51.7,1116.1-45.9L1116.1-45.9z"/>
			</g>
		</g>
		<g>
			<g>
				<path d="M1117.2-25.4c-0.7,14.2,0.1,29.5-4.4,43.2c-1.8,5.5,6.9,7.9,8.7,2.4c4.7-14.5,4-30.6,4.7-45.6
					C1126.5-31.2,1117.5-31.2,1117.2-25.4L1117.2-25.4z"/>
			</g>
		</g>
		<g>
			<g>
				<path d="M1114.2-25.9c-0.8,13.8-1.7,27.6-2.7,41.4c-0.4,5.8,8.6,5.8,9,0c1-13.8,1.9-27.6,2.7-41.4
					C1123.6-31.7,1114.6-31.6,1114.2-25.9L1114.2-25.9z"/>
			</g>
		</g>
		<g>
			<g>
				<path d="M1114.7-39.9c-0.4,6-0.8,12-1.2,18c-0.4,5.8,8.6,5.8,9,0c0.4-6,0.8-12,1.2-18C1124.1-45.7,1115.1-45.6,1114.7-39.9
					L1114.7-39.9z"/>
			</g>
		</g>
		<g>
			<g>
				<path d="M1114.6-30.2c-0.4,12.6,0.4,25.8-2.1,38.2c-1.2,5.7,7.5,8.1,8.7,2.4c2.7-13.2,2-27.2,2.4-40.6
					C1123.8-35.9,1114.8-35.9,1114.6-30.2L1114.6-30.2z"/>
			</g>
		</g>
		<g>
			<g>
				<path d="M1112.9-24.3c-1.3,12.6,0,25.4-1.8,37.9c-0.8,5.7,7.9,8.1,8.7,2.4c1.9-13.4,0.7-26.9,2.1-40.3
					C1122.5-29.9,1113.5-29.9,1112.9-24.3L1112.9-24.3z"/>
			</g>
		</g>
		<g>
			<g>
				<path d="M1113.8-17.4c-2.8,4.1-2.4,10-2.8,14.8c-0.6,5.9-1.1,11.9-1.7,17.8c-0.5,5.8,8.5,5.7,9,0c0.4-4.7,0.9-9.4,1.3-14.1
					c0.4-3.9-0.3-10.7,1.9-14C1124.8-17.7,1117-22.2,1113.8-17.4L1113.8-17.4z"/>
			</g>
		</g>
		<g>
			<g>
				<path d="M1119-6.1c0.3,7.4-0.7,14.8,0.8,22.1c1.2,5.7,9.9,3.3,8.7-2.4c-1.4-6.5-0.2-13.2-0.5-19.7
					C1127.8-11.8,1118.8-11.8,1119-6.1L1119-6.1z"/>
			</g>
		</g>
		<g>
			<g>
				<path d="M1116.5-26.3c0.9,4.9,1.6,9.8,2.1,14.8c0.5,5.7,9.5,5.8,9,0s-1.3-11.5-2.4-17.2C1124.2-34.2,1115.5-31.9,1116.5-26.3
					L1116.5-26.3z"/>
			</g>
		</g>
		<g>
			<g>
				<path d="M1116.1-22.9c1.9,11.4,3,22.9,3.4,34.4c0.2,5.8,9.2,5.8,9,0c-0.5-12.3-1.7-24.6-3.7-36.8
					C1123.8-31,1115.1-28.5,1116.1-22.9L1116.1-22.9z"/>
			</g>
		</g>
		<g>
			<g>
				<path d="M1118.7-6.5c0.6,6.7,0.7,13.5,0.4,20.3c-0.3,5.8,8.7,5.8,9,0c0.3-6.8,0.2-13.5-0.4-20.3
					C1127.2-12.2,1118.2-12.2,1118.7-6.5L1118.7-6.5z"/>
			</g>
		</g>
		<g>
			<g>
				<path d="M1116.5-21.3c0.7,3.6,1.3,7.2,1.8,10.8c0.3,2.4,1.9,4.5,4.5,4.5c2.2,0,4.8-2.1,4.5-4.5c-0.5-4.4-1.2-8.8-2.1-13.2
					C1124-29.4,1115.4-26.9,1116.5-21.3L1116.5-21.3z"/>
			</g>
		</g>
		<g>
			<g>
				<path d="M1121.2-4.2c0.5,4.9,0.7,9.8,0.6,14.7c-0.1,5.8,8.9,5.8,9,0c0.1-4.9-0.1-9.8-0.6-14.7c-0.2-2.4-1.9-4.5-4.5-4.5
					C1123.5-8.7,1121-6.6,1121.2-4.2L1121.2-4.2z"/>
			</g>
		</g>
		<g>
			<g>
				<path d="M1117.1-25.3c1.2,4.3,2.2,8.6,3,13c0.4,2.4,3.3,3.7,5.5,3.1c2.5-0.7,3.6-3.1,3.1-5.5c-0.8-4.4-1.8-8.7-3-13
					C1124.2-33.2,1115.5-30.9,1117.1-25.3L1117.1-25.3z"/>
			</g>
		</g>
		<g>
			<g>
				<path d="M1119.7-5.2c0.2,4.3,0.3,8.6,0.3,13c0,5.8,9,5.8,9,0c0-4.3-0.1-8.6-0.3-13C1128.5-10.8,1119.5-11,1119.7-5.2L1119.7-5.2
					z"/>
			</g>
		</g>
		<g>
			<g>
				<path d="M1118.1-24.9c0.5,4.1,0.9,8.1,1.2,12.2c0.2,2.4,1.9,4.5,4.5,4.5c2.3,0,4.7-2.1,4.5-4.5c-0.3-4.1-0.7-8.2-1.2-12.2
					c-0.3-2.4-1.9-4.5-4.5-4.5C1120.4-29.4,1117.9-27.3,1118.1-24.9L1118.1-24.9z"/>
			</g>
		</g>
		<g>
			<g>
				<path d="M1121.1-3.2c0.7,4.5,1.5,9.1,2.2,13.6c0.4,2.4,3.4,3.7,5.5,3.1c2.5-0.7,3.5-3.1,3.1-5.5c-0.7-4.5-1.5-9.1-2.2-13.6
					c-0.4-2.4-3.4-3.7-5.5-3.1C1121.7-8,1120.7-5.7,1121.1-3.2L1121.1-3.2z"/>
			</g>
		</g>
		<g>
			<g>
				<path d="M1117.2-46.4c0.9,10.7,1.8,21.3,2.7,32c0.5,5.7,9.5,5.8,9,0c-0.9-10.7-1.8-21.3-2.7-32
					C1125.8-52.2,1116.8-52.2,1117.2-46.4L1117.2-46.4z"/>
			</g>
		</g>
		<g>
			<g>
				<path d="M1119-38.4c5.8,0,5.8-9,0-9S1113.2-38.4,1119-38.4L1119-38.4z"/>
			</g>
		</g>
		<g>
			<g>
				<path d="M1119.7-42.7c5.8,0,5.8-9,0-9C1113.9-51.7,1113.9-42.7,1119.7-42.7L1119.7-42.7z"/>
			</g>
		</g>
		<g>
			<g>
				<path d="M1120-45.9c5.8,0,5.8-9,0-9S1114.2-45.9,1120-45.9L1120-45.9z"/>
			</g>
		</g>
		<g>
			<g>
				<path d="M1120-47.7c5.8,0,5.8-9,0-9S1114.2-47.7,1120-47.7L1120-47.7z"/>
			</g>
		</g>
		<g>
			<g>
				<path d="M1138.4,30.6c1.4,0,1.5-2.3,0-2.3S1136.9,30.6,1138.4,30.6L1138.4,30.6z"/>
			</g>
		</g>
		<g>
			<g>
				<path d="M1138.5,29.1c0.5,0.2,1,0.6,1.3,1c0.8,1.2,2.7,0.1,1.9-1.1c-0.6-1-1.5-1.7-2.6-2.1c-0.6-0.2-1.2,0.2-1.4,0.8
					C1137.5,28.4,1137.9,29,1138.5,29.1L1138.5,29.1z"/>
			</g>
		</g>
		<g>
			<g>
				<path d="M1139.2,26.6c0.3,0.9,0.8,1.7,1.4,2.5c0.4,0.5,1.2,0.4,1.6,0c0.5-0.5,0.4-1.1,0-1.6c-0.4-0.4-0.7-1-0.8-1.5
					c-0.2-0.6-0.8-1-1.4-0.8C1139.4,25.5,1139,26.1,1139.2,26.6L1139.2,26.6z"/>
			</g>
		</g>
		<g>
			<g>
				<path d="M1139.7,26.6c1.7,1.6,3.5,3,5.4,4.3c1.2,0.8,2.3-1.1,1.1-1.9c-1.7-1.2-3.4-2.5-4.9-3.9
					C1140.2,24.1,1138.6,25.6,1139.7,26.6L1139.7,26.6z"/>
			</g>
		</g>
		<g>
			<g>
				<path d="M1101.5,24c-1.9,1.9-3.9,3.6-6.1,5.1c-1.2,0.8-0.1,2.8,1.1,1.9c2.3-1.6,4.5-3.4,6.5-5.5
					C1104.1,24.6,1102.5,23,1101.5,24L1101.5,24z"/>
			</g>
		</g>
		<g>
			<g>
				<path d="M1101.9,23.9c-1.4-0.3-2.2,0.6-3.2,1.5c-1.2,1-2.3,2-3.5,2.9c-1.1,0.9,0.5,2.5,1.6,1.6c0.8-0.7,1.6-1.3,2.4-2
					c0.4-0.3,0.7-0.6,1.1-0.9c0.1-0.1,0.9-0.9,1-0.9C1102.8,26.4,1103.4,24.1,1101.9,23.9L1101.9,23.9z"/>
			</g>
		</g>
		<g>
			<g>
				<path d="M1122.3-51.9c0.2,2.3-0.1,4.6,0.4,6.9c0.3,1.4,2.5,0.8,2.2-0.6c-0.4-2.1-0.1-4.2-0.3-6.3
					C1124.4-53.4,1122.2-53.4,1122.3-51.9L1122.3-51.9z"/>
			</g>
		</g>
		<g>
			<g>
				<path d="M1122.6-52.2c0.1,1.5,0.2,3.1,0.4,4.6c0.1,1.4,2.4,1.4,2.3,0c-0.1-1.5-0.2-3.1-0.4-4.6
					C1124.7-53.6,1122.5-53.6,1122.6-52.2L1122.6-52.2z"/>
			</g>
		</g>
		<g>
			<g>
				<path d="M1118.9-75.1c0.3,4.6,0.6,9.1-1.3,13.5c0.7,0.3,1.4,0.6,2.1,0.9c0.5-2.3,0.8-4.6,0.9-7c-0.8,0-1.5,0-2.3,0
					c0,2.8,0.4,6-1.2,8.6c0.7,0.2,1.4,0.4,2.1,0.6c-0.3-2.7,1-5.2,1-7.9c0-1.2-2-1.6-2.2-0.3c-0.3,2.1-0.6,4.2-0.9,6.3
					c0.7,0.1,1.5,0.2,2.2,0.3c1-7.6,1.9-15.3,2.7-23c0.2-1.4-2.1-1.4-2.3,0c-0.8,7.7-1.7,15.3-2.7,23c-0.2,1.2,2,1.6,2.2,0.3
					c0.3-2.1,0.6-4.2,0.9-6.3c-0.7-0.1-1.5-0.2-2.2-0.3c0,2.8-1.3,5.1-1,7.9c0.1,1.1,1.5,1.6,2.1,0.6c1.8-3,1.4-6.3,1.5-9.7
					c0-1.5-2.2-1.4-2.3,0c-0.1,2.2-0.3,4.2-0.8,6.4c-0.3,1.2,1.5,2.1,2.1,0.9c2-4.8,2-9.5,1.6-14.6
					C1121-76.5,1118.8-76.5,1118.9-75.1L1118.9-75.1z"/>
			</g>
		</g>
		<g>
			<g>
				<path d="M1119.6-79.2c0.2,2.8,0.3,5.6,0.5,8.4c0.1,1.4,2.3,1.4,2.3,0c-0.2-2.8-0.3-5.6-0.5-8.4
					C1121.8-80.6,1119.5-80.6,1119.6-79.2L1119.6-79.2z"/>
			</g>
		</g>
		<g>
			<g>
				<path d="M1119.6-78.7c0.4,3.4,0.7,6.7,1,10.1c0.1,1.4,2.4,1.4,2.3,0c-0.2-3.4-0.6-6.8-1-10.1
					C1121.6-80.2,1119.4-80.2,1119.6-78.7L1119.6-78.7z"/>
			</g>
		</g>
		<g>
			<g>
				<path d="M1120-75.7c0.3,4.5,0.6,9,0.6,13.4c0.8,0,1.5,0,2.3,0c0-0.2,0-0.5,0-0.7c-0.1-1.4-2.3-1.4-2.3,0c0,0.2,0,0.5,0,0.7
					c0.1,1.4,2.3,1.5,2.3,0c-0.1-4.5-0.3-9-0.6-13.4C1122.2-77.1,1119.9-77.1,1120-75.7L1120-75.7z"/>
			</g>
		</g>
		<g>
			<g>
				<path d="M1120-69c0.3,2.4,0.7,4.9,1.1,7.3c0.2,1.4,2.4,0.8,2.2-0.6c-0.4-2.4-0.8-4.8-1.1-7.3C1122-71,1119.8-70.3,1120-69
					L1120-69z"/>
			</g>
		</g>
		<g>
			<g>
				<path d="M1120.3-69.7c0.2,2.6,0.3,5.3,0.5,7.9c0.1,1.4,2.3,1.4,2.3,0c-0.2-2.6-0.3-5.3-0.5-7.9
					C1122.5-71.1,1120.2-71.1,1120.3-69.7L1120.3-69.7z"/>
			</g>
		</g>
		<g>
			<g>
				<path d="M1121.2-69.6c0,2.6,0.2,5.2,0.4,7.8c0.1,1.4,2.4,1.4,2.3,0c-0.2-2.6-0.3-5.2-0.4-7.8C1123.4-71,1121.2-71,1121.2-69.6
					L1121.2-69.6z"/>
			</g>
		</g>
		<g>
			<g>
				<path d="M1121.7-82.7c0.3-0.5,0.4-1,0.4-1.6c0-1.4-2.3-1.5-2.3,0c0,0.2,0,0.3-0.1,0.4C1119-82.6,1121-81.5,1121.7-82.7
					L1121.7-82.7z"/>
			</g>
		</g>
		<g>
			<g>
				<path d="M1121-84.2c1.4,0,1.5-2.3,0-2.3C1119.6-86.5,1119.5-84.2,1121-84.2L1121-84.2z"/>
			</g>
		</g>
		<g>
			<g>
				<path d="M1117.6-59.1c-0.3,1.5-0.7,2.9-1,4.4c0.7,0.2,1.4,0.4,2.2,0.6c0.2-1,0.3-2,0.2-3.1c-0.1-1.1-1.5-1.6-2.1-0.6
					s-0.8,2-0.3,3.1c0.3,0.8,1.2,1.1,1.9,0.5c2-1.7,2.3-4.6,2.5-7.1c-0.8,0-1.5,0-2.3,0c-0.1,2.3,0,4.6,0.1,6.9
					c0.1,1.4,2.2,1.5,2.3,0c0.2-3.1,0.1-6.2,0.1-9.3c-0.8,0-1.5,0-2.3,0c0.1,3.5,0.4,7,0.7,10.5c0.1,1,1.5,1.6,2.1,0.6
					c0.7-1.3,0.7-2.9,0.8-4.4c0.1-2.1,0.2-4.1,0.1-6.2c0-1.4-2.3-1.5-2.3,0c0,3.3,0,6.6,0,10c0.8,0,1.5,0,2.3,0c0-0.2,0-0.4,0-0.7
					c0-1.4-2.3-1.5-2.3,0c0,0.2,0,0.4,0,0.7c0,1.4,2.3,1.5,2.3,0c0-3.3,0-6.6,0-10c-0.8,0-1.5,0-2.3,0c0,1.5,0,3.1-0.1,4.6
					c-0.1,1.4,0.1,3.5-0.6,4.8c0.7,0.2,1.4,0.4,2.1,0.6c-0.3-3.5-0.6-7-0.7-10.5c-0.1-1.4-2.3-1.5-2.3,0c0,3.1,0.1,6.2-0.1,9.3
					c0.8,0,1.5,0,2.3,0c-0.2-2.3-0.2-4.6-0.1-6.9c0.1-1.5-2.2-1.4-2.3,0c-0.1,1.9-0.3,4.2-1.8,5.5c0.6,0.2,1.3,0.3,1.9,0.5
					c0-0.5,0.1-0.9,0.1-1.4c-0.7-0.2-1.4-0.4-2.1-0.6c0.1,0.9,0,1.6-0.2,2.5c-0.3,1.4,1.9,2,2.2,0.6c0.3-1.5,0.7-2.9,1-4.4
					C1120.1-59.9,1118-60.4,1117.6-59.1L1117.6-59.1z"/>
			</g>
		</g>
		<g>
			<g>
				<path d="M1120.5-63.1c0.3,3.1,0.6,6.2,0.9,9.3c0.8,0,1.5,0,2.3,0c-0.2-1.5-0.2-2.9-0.1-4.4c0.1-1.4-2.2-1.4-2.3,0
					c-0.1,1.5,0,2.9,0.1,4.4c0.2,1.4,2.4,1.5,2.3,0c-0.3-3.1-0.6-6.2-0.9-9.3C1122.6-64.5,1120.4-64.5,1120.5-63.1L1120.5-63.1z"/>
			</g>
		</g>
		<g>
			<g>
				<path d="M1121.1-63.1c0.1,3.4,0.3,6.8,0.6,10.1c0.1,1.4,2.4,1.4,2.3,0c-0.3-3.4-0.5-6.7-0.6-10.1
					C1123.3-64.5,1121.1-64.5,1121.1-63.1L1121.1-63.1z"/>
			</g>
		</g>
		<g>
			<g>
				<path d="M1121.4-64.1c-0.1,4.1,0.1,8.2,0.6,12.3c0.2,1.4,2.4,1.4,2.3,0c-0.5-4.1-0.7-8.2-0.6-12.3
					C1123.7-65.5,1121.4-65.5,1121.4-64.1L1121.4-64.1z"/>
			</g>
		</g>
		<g>
			<g>
				<path d="M1121.7-63.8c0.7,4.7,1,9.4,0.9,14.1c0,1.4,2.2,1.4,2.3,0c0.1-4.9-0.3-9.8-1-14.7C1123.7-65.8,1121.5-65.2,1121.7-63.8
					L1121.7-63.8z"/>
			</g>
		</g>
		<g>
			<g>
				<path d="M1121.5-62.1c1.3,4.3,1,8.9,1.6,13.4c0.2,1.4,2.4,0.8,2.2-0.6c-0.7-4.5-0.3-9-1.6-13.4
					C1123.2-64.1,1121.1-63.5,1121.5-62.1L1121.5-62.1z"/>
			</g>
		</g>
		<g>
			<g>
				<path d="M1121.8-62.7c0.6,5.1,1,10.2,1.1,15.4c0,1.4,2.3,1.5,2.3,0c-0.1-5.1-0.5-10.3-1.1-15.4
					C1123.9-64.2,1121.6-64.2,1121.8-62.7L1121.8-62.7z"/>
			</g>
		</g>
		<g>
			<g>
				<path d="M1121.7-62.7c0.1,4.3,0.6,8.6,1.4,12.9c0.3,1.4,2.4,0.8,2.2-0.6c-0.8-4.1-1.2-8.2-1.4-12.3
					C1123.9-64.1,1121.7-64.2,1121.7-62.7L1121.7-62.7z"/>
			</g>
		</g>
		<g>
			<g>
				<path d="M1122.1-62.6c0.6,3.7,1,7.4,1.1,11.2c0,1.4,2.3,1.5,2.3,0c-0.1-4-0.5-7.9-1.1-11.8C1124-64.7,1121.9-64.1,1122.1-62.6
					L1122.1-62.6z"/>
			</g>
		</g>
		<g>
			<g>
				<path d="M1125.7-49.1c-0.8-6.1-1.9-12.1-3.3-18c-0.3-1.4-2.5-0.8-2.2,0.6c1.4,5.7,2.5,11.5,3.2,17.4
					C1123.6-47.7,1125.8-47.7,1125.7-49.1L1125.7-49.1z"/>
			</g>
		</g>
		<g>
			<g>
				<path d="M1126.4-47.2c-0.9-3.9-1.7-7.9-2.3-11.8c-0.2-1.4-2.4-0.8-2.2,0.6c0.6,4,1.3,7.9,2.3,11.8
					C1124.6-45.2,1126.8-45.9,1126.4-47.2L1126.4-47.2z"/>
			</g>
		</g>
		<g>
			<g>
				<path d="M1126.6-45.1c-0.8-6.2-1.9-12.4-3.3-18.5c-0.3-1.4-2.5-0.8-2.2,0.6c1.4,5.9,2.5,11.9,3.2,17.9
					C1124.5-43.7,1126.8-43.7,1126.6-45.1L1126.6-45.1z"/>
			</g>
		</g>
		<g>
			<g>
				<path d="M1125.3-10c0.5,2.3,0.9,4.6,1.3,7c0.2,1.4,2.4,0.8,2.2-0.6c-0.3-2.4-0.7-4.7-1.3-7C1127.1-12,1125-11.3,1125.3-10
					L1125.3-10z"/>
			</g>
		</g>
		<g>
			<g>
				<path d="M1126.6-13.5c0.2,2.8,0.4,5.7,0.6,8.5c0.1,1.4,2.3,1.4,2.3,0c-0.2-2.8-0.4-5.7-0.6-8.5C1128.8-15,1126.5-15,1126.6-13.5
					L1126.6-13.5z"/>
			</g>
		</g>
		<g>
			<g>
				<path d="M1127.1-14.7c-0.1,3.8,0.3,7.5,1.5,11.2c0.4,1.4,2.6,0.8,2.2-0.6c-1.1-3.5-1.5-7-1.4-10.6
					C1129.4-16,1127.2-16,1127.1-14.7L1127.1-14.7z"/>
			</g>
		</g>
		<g>
			<g>
				<path d="M1127.3-14.2c-0.4,5.6-0.2,11.1,0.5,16.6c0.2,1.4,2.4,1.4,2.3,0c-0.7-5.5-0.9-11.1-0.5-16.6
					C1129.7-15.5,1127.4-15.5,1127.3-14.2L1127.3-14.2z"/>
			</g>
		</g>
		<g>
			<g>
				<path d="M1127.2-14.3c0.4,5,0.6,10.1,0.7,15.1c0,1.4,2.3,1.5,2.3,0c-0.1-5-0.3-10.1-0.7-15.1
					C1129.4-15.8,1127.1-15.8,1127.2-14.3L1127.2-14.3z"/>
			</g>
		</g>
		<g>
			<g>
				<path d="M1127.5-13c0.2,3.7,0.7,7.4,1.4,11.1c0.3,1.4,2.4,0.8,2.2-0.6c-0.7-3.5-1.1-6.9-1.3-10.5
					C1129.7-14.5,1127.4-14.5,1127.5-13L1127.5-13z"/>
			</g>
		</g>
		<g>
			<g>
				<path d="M1127.3-13.8c0.3,3.9,0.7,7.8,1.2,11.6c0.2,1.4,2.4,1.4,2.3,0c-0.5-3.9-0.9-7.7-1.2-11.6
					C1129.4-15.3,1127.2-15.3,1127.3-13.8L1127.3-13.8z"/>
			</g>
		</g>
		<polygon class="st6" points="1122.4,-90.7 1119,-90.6 1117.3,-93.5 1118.9,-96.3 1122.2,-96.5 1124,-93.6 		"/>
		<g>
			<g>
				<path d="M1120.6-92.5c1.4,0,1.5-2.3,0-2.3C1119.2-94.7,1119.2-92.5,1120.6-92.5L1120.6-92.5z"/>
			</g>
		</g>
		<g>
			<g>
				<path d="M1119.2-94.2L1119.2-94.2c0.1-0.1,0.2-0.2,0.3-0.4c0.1,0,0.1-0.1,0.2-0.1c0.2,0,0.4,0,0.6,0c0.1,0,0.1,0.1,0.2,0.1
					c0.1,0.2,0.2,0.3,0.3,0.5c0,0.1,0,0.2,0,0.2c-0.7,0-1.4,0-2.2,0c0.1,0.5,0.2,1.1,0.4,1.6c0.6-0.4,1.1-0.8,1.7-1.3
					c-0.1-0.1-0.2-0.2-0.4-0.2c-0.2,0.7-0.4,1.4-0.6,2.1c-0.1-0.1-0.1,0,0,0s0.1,0.1,0.2,0.1c0.2,0.1,0.3,0.2,0.4,0.2
					c0.4,0.2,0.8,0.3,1.3,0.1c0.8-0.2,1.4-1.1,1.1-2c-0.2-0.5-0.7-0.9-1.2-0.8s-1,0.5-1,1.1c0,0.2,0,0.4,0.1,0.5
					c0.1,0.7,0.7,1.3,1.4,1.1c0.6-0.1,1-0.6,1.1-1.1c0.2-0.9-0.6-1.6-1.4-1.4s-1.6,0.7-1.6,1.6s0.7,1.6,1.6,1.5s1.3-0.9,1.5-1.7
					c0.1-0.4,0.2-0.8,0.2-1.2c0-0.2,0-0.3,0-0.5c0-0.1,0-0.2,0-0.3c-0.1-0.2-0.1-0.2,0-0.1c-0.1,0.3-0.2,0.5-0.3,0.8
					c0,0,0,0,0.1-0.1c-0.4,0.1-0.7,0.2-1.1,0.3c0,0,0,0,0.1,0c-0.3-0.3-0.5-0.5-0.8-0.8c0,0,0,0,0,0.1c0-0.2,0-0.4,0-0.6l0,0
					c0.5-0.3,0.9-0.5,1.4-0.8l0,0c-0.6-0.1-1.2,0.2-1.4,0.8c-0.2,0.5,0.2,1.3,0.8,1.4l0,0c0.6,0.1,1.3-0.2,1.4-0.8
					c0.1-0.6-0.1-1.3-0.8-1.5c-0.6-0.2-1.2,0.1-1.4,0.7c-0.3,0.6,0.3,1.8-0.2,2.3c0.2-0.1,0.3-0.2,0.5-0.3h-0.1c0.2,0,0.4,0,0.6,0
					c0.1,0,0.1,0.1,0.2,0.1c0.1,0.2,0.2,0.3,0.3,0.5c0.2,0.5-0.6,0.7-0.1,0.6c-0.5-0.5-0.9-0.9-1.4-1.4l0,0c0.1-0.1,0.3-0.3,0.4-0.4
					l0,0c0.5,0.4,0.9,0.7,1.4,1.1c0-0.2,0-0.4-0.1-0.5c-0.7,0.1-1.5,0.2-2.2,0.3l0,0c0.1-0.2,0.1-0.4,0.2-0.6s1,0,0.4-0.3
					c-0.1-0.1-0.2-0.2-0.4-0.2c-0.3-0.2-0.7-0.3-1-0.3c-1.2-0.1-1.4,1.5-0.6,2.1c0.1,0.1,0.2,0.2,0.4,0.2c0.9,0.6,1.9-0.4,1.7-1.3
					c-0.1-0.5-0.2-1.1-0.4-1.6c-0.3-1.2-1.8-1-2.2,0c-0.3,0.8,0.2,1.7,1,1.9c0.8,0.2,1.6-0.3,1.9-1.1
					C1121.8-94.8,1119.7-95.5,1119.2-94.2L1119.2-94.2z"/>
			</g>
		</g>
		<g>
			<g>
				<path d="M1122.6-92.5c1.4,0,1.5-2.3,0-2.3C1121.2-94.7,1121.2-92.5,1122.6-92.5L1122.6-92.5z"/>
			</g>
		</g>
		<g>
			<g>
				<path d="M1122.2-95.7c0.1,0,0.4,0.4,0.3,0.5c0.4-1.4-1.7-2-2.2-0.6c-0.3,1,0.3,2,1.2,2.2C1123-93.2,1123.6-95.2,1122.2-95.7
					L1122.2-95.7z"/>
			</g>
		</g>
		<g>
			<g>
				<path d="M1119.9-93.2c-0.3,0-0.1,0.1,0.5,0.2c0,0,0,0-0.1-0.1c0.1,0,0.1,0.2,0-0.1c-0.1-0.2-0.2-0.3-0.2-0.5
					c-0.3-0.5-0.8-0.9-1.4-0.9c-1.4,0.1-1.5,2.3,0,2.3c-0.2,0-0.5-0.1-0.5-0.3l0.1,0.2c0.1,0.2,0.2,0.3,0.2,0.5
					c0.3,0.5,0.8,0.9,1.4,0.8s1.1-0.5,1.1-1.1C1121-92.6,1120.5-93.2,1119.9-93.2L1119.9-93.2z"/>
			</g>
		</g>
		<g>
			<g>
				<path d="M1119.9-94c1.4,0,1.5-2.3,0-2.3C1118.4-96.2,1118.4-94,1119.9-94L1119.9-94z"/>
			</g>
		</g>
		<g>
			<g>
				<path d="M1119.8-94c1.4,0,1.5-2.3,0-2.3C1118.3-96.2,1118.3-94,1119.8-94L1119.8-94z"/>
			</g>
		</g>
		<g>
			<g>
				<path d="M1119-93.7c1.4,0,1.5-2.3,0-2.3C1117.6-96,1117.5-93.7,1119-93.7L1119-93.7z"/>
			</g>
		</g>
		<g>
			<g>
				<path d="M1119-93.1c1.4,0,1.5-2.3,0-2.3C1117.6-95.2,1117.5-93.1,1119-93.1L1119-93.1z"/>
			</g>
		</g>
		<g>
			<g>
				<path d="M1118.6-92.7c1.4,0,1.5-2.3,0-2.3C1117.2-95,1117.2-92.7,1118.6-92.7L1118.6-92.7z"/>
			</g>
		</g>
		<g>
			<g>
				<path d="M1118.4-92.2c1.4,0,1.5-2.3,0-2.3S1116.9-92.2,1118.4-92.2L1118.4-92.2z"/>
			</g>
		</g>
		<g>
			<g>
				<path d="M1119.6-93.5c1.4,0,1.5-2.3,0-2.3C1118.2-95.7,1118.2-93.5,1119.6-93.5L1119.6-93.5z"/>
			</g>
		</g>
		<g>
			<g>
				<path d="M1119.6-94.2c1.4,0,1.5-2.3,0-2.3C1118.2-96.6,1118.2-94.2,1119.6-94.2L1119.6-94.2z"/>
			</g>
		</g>
		<g>
			<g>
				<path d="M1120.6-94.2c1.4,0,1.5-2.3,0-2.3C1119.2-96.6,1119.2-94.2,1120.6-94.2L1120.6-94.2z"/>
			</g>
		</g>
		<g>
			<g>
				<path d="M1119.8-90.5c1.4,0,1.5-2.3,0-2.3C1118.3-92.7,1118.3-90.5,1119.8-90.5L1119.8-90.5z"/>
			</g>
		</g>
		<g>
			<g>
				<path d="M1119-91.2c1.4,0,1.5-2.3,0-2.3C1117.6-93.5,1117.5-91.2,1119-91.2L1119-91.2z"/>
			</g>
		</g>
		<g>
			<g>
				<path d="M1122.4-92.2c1.4,0,1.5-2.3,0-2.3S1120.9-92.2,1122.4-92.2L1122.4-92.2z"/>
			</g>
		</g>
		<g>
			<g>
				<path d="M1122.8-92.6c1.4,0,1.5-2.3,0-2.3C1121.3-94.7,1121.3-92.6,1122.8-92.6L1122.8-92.6z"/>
			</g>
		</g>
		<g>
			<g>
				<path d="M1121.4-93.7c1.4,0,1.5-2.3,0-2.3S1119.9-93.7,1121.4-93.7L1121.4-93.7z"/>
			</g>
		</g>
		<g>
			<g>
				<path d="M1120.9-93.7c1.4,0,1.5-2.3,0-2.3S1119.4-93.7,1120.9-93.7L1120.9-93.7z"/>
			</g>
		</g>
		<g>
			<g>
				<path d="M1121.8-93.6c1.4,0,1.5-2.3,0-2.3C1120.3-95.7,1120.3-93.6,1121.8-93.6L1121.8-93.6z"/>
			</g>
		</g>
		<g>
			<g>
				<path d="M1121.9-93.6c1.4,0,1.5-2.3,0-2.3C1120.4-95.7,1120.4-93.6,1121.9-93.6L1121.9-93.6z"/>
			</g>
		</g>
	</g>
	<g id="Layer_2">
		<g>
			<g>
				<path d="M655.5-31c-0.8,4.9-1.2,9.9-1.2,14.9c0.1,5.8,9.1,5.8,9,0c0-4.2,0.2-8.3,0.8-12.5c0.4-2.4-0.6-4.8-3.1-5.5
					C658.9-34.7,655.9-33.4,655.5-31L655.5-31z"/>
			</g>
		</g>
		<rect x="160" y="528.9" class="st6" width="57" height="136"/>
		
			<rect x="160.3" y="513.4" transform="matrix(-1 -4.581890e-003 4.581890e-003 -1 376.8477 1179.1312)" width="58.9" height="151.5"/>
		<rect x="1360.7" y="382.9" width="79.3" height="282.1"/>
	</g>
	<rect x="1059.7" y="314.3" class="st7" width="39.3" height="20.5"/>
	<rect x="1059.7" y="370.3" class="st7" width="39.3" height="20.5"/>
	<rect x="1059.7" y="428.8" class="st7" width="39.3" height="20.5"/>
	<rect x="1059.7" y="142.5" class="st7" width="39.3" height="20.5"/>
	<rect x="1059.7" y="198.4" class="st7" width="39.3" height="20.5"/>
	<rect x="1059.7" y="256.9" class="st7" width="39.3" height="20.5"/>
	<rect x="1147.2" y="314.3" class="st7" width="39.3" height="20.5"/>
	<rect x="1147.2" y="370.3" class="st7" width="39.3" height="20.5"/>
	<rect x="1147.2" y="428.8" class="st7" width="39.3" height="20.5"/>
	<rect x="1147.2" y="142.5" class="st7" width="39.3" height="20.5"/>
	<rect x="1147.2" y="198.4" class="st7" width="39.3" height="20.5"/>
	<rect x="1147.2" y="256.9" class="st7" width="39.3" height="20.5"/>
</g>
<g id="Layer_2_1_">
	<rect x="682.7" y="155.5" class="st7" width="39.3" height="20.5"/>
	<rect x="682.7" y="211.4" class="st7" width="39.3" height="20.5"/>
	<rect x="682.7" y="269.9" class="st7" width="39.3" height="20.5"/>
	<rect x="770.2" y="155.5" class="st7" width="39.3" height="20.5"/>
	<rect x="770.2" y="211.4" class="st7" width="39.3" height="20.5"/>
	<rect x="770.2" y="269.9" class="st7" width="39.3" height="20.5"/>
	<rect x="682.7" y="-16.4" class="st7" width="39.3" height="20.5"/>
	<rect x="682.7" y="39.6" class="st7" width="39.3" height="20.5"/>
	<rect x="682.7" y="98.1" class="st8" width="39.3" height="20.5"/>
	<rect x="770.2" y="-16.4" class="st7" width="39.3" height="20.5"/>
	<rect x="770.2" y="39.6" class="st7" width="39.3" height="20.5"/>
	<rect x="770.2" y="98.1" class="st8" width="39.3" height="20.5"/>
	<rect x="1059.7" y="256.9" class="st8" width="39.3" height="20.5"/>
	<rect x="1059.7" y="310.6" class="st7" width="39.3" height="20.5"/>
	<rect x="1059.7" y="369.1" class="st7" width="39.3" height="20.5"/>
	<rect x="1147.2" y="258.4" class="st8" width="39.3" height="20.5"/>
	<rect x="1147.2" y="314.3" class="st8" width="39.3" height="20.5"/>
	<rect x="1147.2" y="369.1" class="st7" width="39.3" height="20.5"/>
	<rect x="1059.7" y="82.8" class="st7" width="39.3" height="20.5"/>
	<rect x="1059.7" y="138.7" class="st7" width="39.3" height="20.5"/>
	<rect x="1059.7" y="198.4" class="st8" width="39.3" height="20.5"/>
	<rect x="1147.2" y="82.8" class="st7" width="39.3" height="20.5"/>
	<rect x="1147.2" y="138.7" class="st7" width="39.3" height="20.5"/>
	<rect x="1147.2" y="198.4" class="st8" width="39.3" height="20.5"/>
	<rect x="682.7" y="269.8" class="st7" width="39.3" height="20.5"/>
	<rect x="682.7" y="325.7" class="st7" width="39.3" height="20.5"/>
	<rect x="770.2" y="269.8" class="st7" width="39.3" height="20.5"/>
	<rect x="770.2" y="325.7" class="st7" width="39.3" height="20.5"/>
	<rect x="682.7" y="327.2" class="st7" width="39.3" height="20.5"/>
	<rect x="682.7" y="383.1" class="st8" width="39.3" height="20.5"/>
	<rect x="682.7" y="441.6" class="st8" width="39.3" height="20.5"/>
	<rect x="770.2" y="327.2" class="st7" width="39.3" height="20.5"/>
	<rect x="770.2" y="383.1" class="st7" width="39.3" height="20.5"/>
	<rect x="770.2" y="441.6" class="st7" width="39.3" height="20.5"/>
	<rect x="682.7" y="155.3" class="st7" width="39.3" height="20.5"/>
	<rect x="682.7" y="211.3" class="st7" width="39.3" height="20.5"/>
	<rect x="682.7" y="269.8" class="st7" width="39.3" height="20.5"/>
	<rect x="770.2" y="155.3" class="st7" width="39.3" height="20.5"/>
	<rect x="770.2" y="211.3" class="st7" width="39.3" height="20.5"/>
	<rect x="770.2" y="269.8" class="st8" width="39.3" height="20.5"/>
	<rect x="361.7" y="411.8" class="st7" width="39.3" height="20.5"/>
	<rect x="361.7" y="467.8" class="st7" width="39.3" height="20.5"/>
	<rect x="449.2" y="411.8" class="st7" width="39.3" height="20.5"/>
	<rect x="449.2" y="467.8" class="st8" width="39.3" height="20.5"/>
	<rect x="361.7" y="239.9" class="st7" width="39.3" height="20.5"/>
	<rect x="361.7" y="295.9" class="st8" width="39.3" height="20.5"/>
	<rect x="361.7" y="354.4" class="st7" width="39.3" height="20.5"/>
	<rect x="449.2" y="239.9" class="st7" width="39.3" height="20.5"/>
	<rect x="449.2" y="295.9" class="st7" width="39.3" height="20.5"/>
	<rect x="449.2" y="354.4" class="st7" width="39.3" height="20.5"/>
	<rect x="273.7" y="355.9" class="st7" width="39.3" height="20.5"/>
	<rect x="273.7" y="411.8" class="st8" width="39.3" height="20.5"/>
	<rect x="273.7" y="470.3" class="st8" width="39.3" height="20.5"/>
	<rect x="273.7" y="184" class="st7" width="39.3" height="20.5"/>
	<rect x="273.7" y="239.9" class="st7" width="39.3" height="20.5"/>
	<rect x="273.7" y="298.5" class="st7" width="39.3" height="20.5"/>
	<rect x="1321.4" y="440.5" class="st7" width="39.3" height="20.5"/>
	<rect x="1321.4" y="441.6" class="st7" width="39.3" height="20.5"/>
	<rect x="1321.4" y="324.6" class="st8" width="39.3" height="20.5"/>
	<rect x="1321.4" y="383.1" class="st8" width="39.3" height="20.5"/>
	<rect x="949.7" y="372.8" class="st7" width="39.3" height="20.5"/>
	<rect x="949.7" y="428.8" class="st7" width="39.3" height="20.5"/>
	<rect x="949.7" y="256.9" class="st7" width="39.3" height="20.5"/>
	<rect x="949.7" y="256.9" class="st7" width="39.3" height="20.5"/>
	<rect x="949.7" y="315.5" class="st8" width="39.3" height="20.5"/>
</g>
<polygon points="448.7,108.4 397,108.4 371.1,70.2 397,31.9 448.7,31.9 474.6,70.1 "/>
<rect x="388.7" y="65.6" class="st9" width="68.3" height="47.7"/>
<g id="Layer_2_2_">
	<g>
		<g>
			<path d="M-545.5-30c-0.8,4.9-1.2,9.9-1.2,14.9c0.1,5.8,9.1,5.8,9,0c0-4.2,0.2-8.3,0.8-12.5c0.4-2.4-0.6-4.8-3.1-5.5
				C-542.1-33.7-545.1-32.4-545.5-30L-545.5-30z"/>
		</g>
	</g>
	<rect x="-1041" y="529.9" class="st6" width="57" height="136"/>
	
		<rect x="-1040.7" y="514.4" transform="matrix(-1 -4.581890e-003 4.581890e-003 -1 -2025.1443 1175.6329)" width="58.9" height="151.5"/>
	<rect x="159.7" y="383.9" width="79.3" height="282.1"/>
</g>
</svg>
